<?xml version="1.0" standalone="no"?>
<!DOCTYPE svg PUBLIC "-//W3C//DTD SVG 1.1//EN" "http://www.w3.org/Graphics/SVG/1.1/DTD/svg11.dtd" >
<svg xmlns="http://www.w3.org/2000/svg" xmlns:xlink="http://www.w3.org/1999/xlink" version="1.1">
<metadata>
Created by FontForge 20170731 at Thu Dec 17 06:39:32 2020
 By Aleksey,,,
Copyright (c) 2014 Commercial Type.
</metadata>
<defs>
<font id="AustinText-FatItalic" horiz-adv-x="348" >
  <font-face 
    font-family="Austin Text Fat"
    font-weight="900"
    font-style="italic"
    font-stretch="normal"
    units-per-em="2048"
    panose-1="0 0 0 0 0 0 0 0 0 0"
    ascent="1638"
    descent="-410"
    x-height="938"
    cap-height="1348"
    bbox="-518 -541 2421 1401"
    underline-thickness="75"
    underline-position="-269"
    slope="-14"
    unicode-range="U+000D-201D"
  />
<missing-glyph 
 />
    <glyph glyph-name=".notdef" 
 />
    <glyph glyph-name=".null" horiz-adv-x="0" 
 />
    <glyph glyph-name="nonmarkingreturn" unicode="&#xd;" 
 />
    <glyph glyph-name="NULL" horiz-adv-x="0" 
 />
    <glyph glyph-name="NULL" horiz-adv-x="0" 
 />
    <glyph glyph-name="space" unicode=" " 
 />
    <glyph glyph-name="comma" unicode="," horiz-adv-x="524" 
d="M309 123q0 -66 -40 -134q-42 -71 -107 -129q-68 -61 -155 -110q-86 -49 -181 -76l-21 64q45 12 100 38q52 24 100 54q48 29 77 57q31 29 31 50q0 19 -12 26q-16 10 -27 14q-43 16 -82 60t-39 100q0 49 18 82q16 30 46 53q26 20 60 30q31 9 58 9q75 0 125 -51
q49 -50 49 -137z" />
    <glyph glyph-name="hyphen" unicode="-" horiz-adv-x="669" 
d="M549 436h-457l39 185h457z" />
    <glyph glyph-name="period" unicode="." horiz-adv-x="520" 
d="M319 139q0 -66 -43 -116q-44 -52 -126 -52q-83 0 -127 52q-43 50 -43 116q0 67 43 117q43 51 127 51q82 0 126 -51q43 -50 43 -117z" />
    <glyph glyph-name="zero" unicode="0" horiz-adv-x="1216" 
d="M498 -23q-106 0 -187 35q-79 34 -133 96q-53 61 -80 141q-26 78 -26 173q0 175 62 309q65 142 161 233q100 96 220 146q122 51 241 51q105 0 186 -35q80 -35 133 -95q53 -61 80 -141q27 -81 27 -173q0 -171 -63 -308q-65 -140 -161 -232q-99 -95 -220 -147
q-123 -53 -240 -53zM498 47q48 0 76 26q31 29 57 72q39 63 78 165t69 216q32 121 49 230q19 120 19 205q0 53 -18 93t-72 40q-50 0 -77 -27q-28 -27 -56 -74q-39 -63 -78 -165q-43 -113 -70 -215q-33 -124 -49 -229q-18 -115 -18 -206q0 -55 17 -92q18 -39 73 -39z" />
    <glyph glyph-name="one" unicode="1" horiz-adv-x="776" 
d="M543 322q-14 -54 -20 -83q-7 -34 -7 -67q0 -37 13 -57q13 -21 40 -37q23 -12 52 -16q33 -5 45 -5l-15 -57h-739l14 57q8 1 26 4l24 4q27 4 47 13q30 13 43 24q14 12 38 39q18 23 36 66q18 44 36 115l137 552l27 109q6 31 1 44q-4 10 -19 15q-12 4 -24 5q-11 1 -42 5
t-42 5l-26 2l17 57q3 0 49 2q8 0 35.5 1.5t44.5 2.5q45 2 96 6q34 3 100 9q6 1 22.5 2.5t25.5 2.5q30 3 63 6q49 4 58 5q7 0 14.5 0.5t11.5 1t6 0.5q21 0 21 -25l-6 -28q-1 -7 -13 -46q-5 -17 -17 -57q-17 -55 -18 -61z" />
    <glyph glyph-name="two" unicode="2" horiz-adv-x="1167" 
d="M279 297q158 136 160 138q84 71 156 152q73 83 118 162q47 83 47 169q0 78 -35 122q-34 43 -113 43q-64 0 -115 -26t-89 -70t-58 -99q-20 -54 -20 -116q0 -52 18 -77t64 -25q47 0 76 28q31 30 59 72l45 -25q-18 -39 -48 -76q-30 -36 -68 -65q-37 -28 -85 -45
q-45 -16 -98 -16q-73 0 -128 50q-54 49 -54 140q0 77 32 151q33 76 101 138q65 59 170 101q101 40 243 40q137 0 227 -25q92 -26 144 -66q54 -42 76 -90t22 -99q0 -126 -91 -226q-90 -99 -253 -176q-12 -5 -25 -11.5t-28.5 -14t-23.5 -11.5q-14 -7 -43 -20t-39 -18
q-51 -24 -107 -47q-125 -52 -149 -62l2 -10h319q100 0 157 27q52 24 91 57q43 35 74 73q21 25 49 64h63l-209 -508h-995q62 48 89 69q12 10 37.5 30t38.5 30q12 9 84 70q54 45 112 98z" />
    <glyph glyph-name="three" unicode="3" horiz-adv-x="1056" 
d="M985 913q0 -57 -36 -109q-36 -53 -98 -97q-64 -46 -148 -81q-89 -37 -181 -59v-10q88 15 172 7q82 -7 145 -33q61 -25 99 -69q37 -43 37 -106q0 -98 -53 -169q-51 -68 -142 -116q-89 -47 -201 -69q-111 -22 -235 -22q-97 0 -162 25q-64 25 -106 65t-59 85q-17 44 -17 89
q0 64 40 105q40 42 103 42q74 0 107 -36t33 -93q0 -31 -5 -49q-1 -5 -4 -12t-7 -18.5t-7 -20.5q-9 -18 -14 -30q-8 -19 -8 -34q0 -31 32 -40q33 -9 64 -9q72 0 124 27q53 27 85 72q33 46 48 110q15 63 15 137q0 65 -37 92t-84 27q-25 0 -43 -6q-21 -7 -39 -16l-73 -43
l-29 53l137 76q73 40 113 74q45 37 71 82q24 41 35 96t11 120q0 58 -33 100t-100 42q-35 0 -73 -12q-39 -13 -70 -36q-32 -25 -53 -63q-22 -41 -22 -96q0 -48 28 -81q27 -32 77 -32q48 0 82 34q37 37 51 60l41 -26q-12 -27 -35 -56q-26 -32 -60 -58q-38 -28 -81 -47
q-46 -20 -98 -20q-79 0 -126 52q-46 50 -46 135q0 61 31 117q32 57 89 101q60 46 136 72q78 27 169 27q113 0 187 -20q81 -22 127 -54q50 -35 73 -80t23 -96z" />
    <glyph glyph-name="four" unicode="4" horiz-adv-x="1122" 
d="M350 141q18 23 36 66q18 44 36 115l12 51h-434l16 67l701 703h241q21 0 21 -25q0 -3 -5 -25q-2 -7 -13 -48q-3 -10 -9.5 -30t-8.5 -28q-11 -35 -17 -61l-123 -482h28q50 0 88 9q33 8 50 28q25 29 38 59q26 57 29 64h56l-107 -393h-55q3 26 7 76q3 37 -9 61q-11 19 -46 22
q-36 3 -67 3h-31l-12 -51q-9 -34 -19 -83q-8 -38 -8 -67q0 -35 14 -57q13 -21 40 -37q24 -12 51 -16q33 -5 45 -5l-14 -57h-723l14 57q8 1 26 4l24 4q26 4 46 13q30 13 43 24q18 15 39 39zM549 872l-434 -428h336l106 428h-8z" />
    <glyph glyph-name="five" unicode="5" horiz-adv-x="1038" 
d="M358 -23q-91 0 -163 22q-71 21 -115 57q-45 36 -68 80q-22 43 -22 91q0 63 38 109q38 45 109 45q75 0 105 -40t30 -97q0 -29 -7 -46q0 -1 -17 -46q-4 -11 -9 -26q-3 -9 -3 -26q0 -21 29 -37t95 -16q104 0 164 86q60 85 60 266q0 112 -52 164q-51 51 -137 51
q-63 0 -105 -29q-46 -32 -75 -75l-65 27l239 602h55q45 -21 111 -36q70 -16 147 -16q56 0 106 16q44 14 79 38q32 22 54 47q24 27 34 45l63 -14q-24 -93 -60 -170q-36 -79 -89 -136q-52 -57 -126 -89q-71 -31 -171 -31q-12 0 -58 2q-34 1 -70 6q-10 1 -33.5 3.5t-35.5 4.5
q-34 5 -53 10l-76 -182l8 -2q53 32 110 52q63 22 159 22q109 0 187 -29q76 -28 126 -75q51 -48 71 -104q21 -59 21 -118q0 -89 -43 -163q-44 -76 -121 -128q-82 -55 -186 -84q-112 -31 -240 -31z" />
    <glyph glyph-name="six" unicode="6" horiz-adv-x="1150" 
d="M1192 956q0 -70 -38 -108q-37 -37 -103 -37q-64 0 -97 33q-32 32 -32 86q0 20 5 40q3 12 11 34q6 17 13 32t7 27q0 13 -10 20q-13 9 -41 9q-55 0 -114 -28q-58 -27 -108 -79t-92 -125q-43 -76 -67 -166h11q35 30 85 41q47 10 97 10q95 0 160 -28q64 -27 106 -73
q42 -45 61 -97q19 -51 19 -105q0 -94 -36 -178q-37 -85 -107 -147q-72 -63 -181 -101q-104 -36 -254 -36q-112 0 -189 35q-78 35 -129 94q-50 58 -74 129q-23 69 -23 143q0 121 37 225q39 109 99 192q63 87 145 154q84 69 175 115q96 49 190 72q97 24 187 24q84 0 137 -20
q56 -21 90 -51q32 -28 47 -67q13 -35 13 -69zM723 563q0 58 -25 80q-24 21 -59 21q-47 0 -81 -33q-32 -31 -54 -76q-20 -44 -40 -101q-18 -52 -34 -112q-14 -51 -22 -105q-9 -59 -9 -83q0 -105 86 -105q52 0 83 31q29 29 46 63q23 51 42 109q22 69 35 118q19 73 24 109
q8 54 8 84z" />
    <glyph glyph-name="seven" unicode="7" horiz-adv-x="952" 
d="M1092 1094q-183 -224 -297 -441q-115 -219 -174 -440q-15 -54 -33 -98q-18 -45 -44 -77q-24 -30 -62 -49q-36 -18 -85 -18q-46 0 -83 16q-34 15 -55 39q-22 26 -32 53q-10 29 -10 58q0 73 47 155q44 77 113 146q65 65 113 105q21 18 62.5 53t62.5 52q23 20 63.5 54.5
t55.5 46.5q49 41 95 89v8h-397q-24 0 -62 -3q-37 -3 -73 -20q-43 -17 -73 -49q-28 -30 -64 -80h-68l189 510h51q6 -21 32 -43q24 -20 78 -20h664z" />
    <glyph glyph-name="eight" unicode="8" horiz-adv-x="1071" 
d="M1022 915q0 -73 -65 -133q-62 -58 -160 -96q33 -21 65 -50q34 -31 60 -67q25 -34 44 -81q17 -41 17 -91q0 -91 -39 -167q-39 -77 -111 -134t-174 -89t-223 -32q-90 0 -165 18q-79 19 -129 51q-55 35 -84 83t-29 113q0 47 22 87q20 36 61 72q39 34 87 59q50 26 100 42
q-54 40 -96 104q-43 65 -43 172q0 102 46 173q47 73 119 121q73 49 161 71q87 22 178 22q81 0 143 -17q67 -18 114 -49q46 -30 74 -78q27 -47 27 -104zM684 180q0 41 -20 71q-22 33 -60 62q-45 35 -97 64q-43 24 -134 76q-27 -12 -54 -30t-48 -42q-20 -23 -34 -58
q-14 -36 -14 -79q0 -98 64 -148q62 -49 149 -49q46 0 98 5q40 4 78 21q33 15 53 41q19 25 19 66zM442 948q0 -33 22 -63q21 -29 59 -56q33 -23 88 -52q20 -10 108 -52q58 29 89 88q30 57 30 105q0 86 -39 131t-137 45q-99 0 -159 -42q-61 -43 -61 -104z" />
    <glyph glyph-name="nine" unicode="9" horiz-adv-x="1148" 
d="M463 580q0 -59 24 -80t60 -21q47 0 81 33q32 31 54 76q20 44 40 101q18 52 34 112q14 51 22 105q8 53 8 83q0 105 -86 105q-52 0 -83 -31q-28 -28 -46 -64q-24 -53 -42 -108t-34 -118q-19 -73 -24 -109q-8 -54 -8 -84zM-6 186q0 67 39 107q39 41 104 41q64 0 95 -34
q32 -35 32 -87q0 -20 -5 -40q-3 -12 -11 -34q-4 -11 -14 -33q-7 -15 -7 -26q0 -14 21 -21q22 -8 51 -8q114 0 212 106q96 104 148 292h-10q-35 -30 -85 -41q-52 -11 -97 -11q-92 0 -160 28q-64 26 -107 71q-44 46 -61 95q-18 53 -18 103q0 94 36 179q37 87 107 150
q72 65 180 102q109 38 254 38q109 0 190 -35q80 -34 129 -90q50 -56 74 -126q23 -68 23 -142q0 -181 -76 -327q-76 -147 -194 -248q-118 -102 -263 -159q-141 -56 -280 -56q-88 0 -144 20q-59 21 -95 51q-34 29 -52 67q-16 35 -16 68z" />
    <glyph glyph-name="A" unicode="A" horiz-adv-x="1456" 
d="M731 160q17 28 33 72q16 43 27 141l10 114h-361l-94 -147q-33 -52 -60 -99q-28 -48 -28 -87q0 -51 49 -72q20 -9 49 -16q31 -8 58 -9l-15 -57h-540l12 57q20 4 52 15q40 13 71 30q53 30 107 86t120 156l662 1004h374l-75 -975q-4 -53 -4 -87v-50q0 -73 15 -103
q16 -32 52 -49q15 -7 43 -17q25 -9 37 -10l-14 -57h-768l14 57q43 6 90 25q25 11 45 31q17 17 39 47zM498 578h311l51 546h-14z" />
    <glyph glyph-name="B" unicode="B" horiz-adv-x="1409" 
d="M-88 57q43 6 90 25q27 11 50 31q21 18 44 47t42 73t42 140l152 602q10 37 21 98q7 38 7 78q0 83 -57 113q-41 21 -80 26l15 58h663q256 0 367 -75q110 -74 110 -218q0 -76 -31 -131t-90 -95q-54 -37 -138 -62q-82 -24 -179 -36l-2 -10q74 -11 144 -33t126 -60
q54 -37 88 -92q33 -54 33 -126q0 -97 -43 -173q-44 -77 -123 -129q-80 -53 -194 -80q-118 -28 -258 -28h-813zM762 762q68 0 107 16q41 17 65 45q49 60 67 122q19 67 19 161q0 64 -36 107q-36 44 -103 44h-50q-17 0 -30 -8t-21 -37l-110 -450h92zM676 90q62 0 111 32
q50 33 79 87q32 59 46 131q16 82 16 166q0 32 -8 64q-7 29 -28 53q-18 21 -55 35t-92 14h-98l-72 -289q-9 -39 -25 -107q-7 -31 -7 -69q0 -60 26 -86q34 -31 86 -31h21z" />
    <glyph glyph-name="C" unicode="C" horiz-adv-x="1343" 
d="M1319 823h-55q-5 131 -31 219q-28 92 -70 149q-43 58 -98 85t-113 27q-86 0 -147 -47q-62 -48 -105 -117q-26 -41 -67 -139t-74 -211q-36 -125 -59 -248q-25 -136 -25 -254q0 -55 15 -101q15 -45 49 -75q43 -37 127 -37q80 0 163 30q80 29 154 83q70 51 130 122
q55 65 95 148l54 -27q-40 -92 -110 -178q-68 -83 -155 -147q-83 -61 -184 -98q-99 -36 -197 -36q-132 0 -230 46q-101 47 -166 120t-100 165q-34 90 -34 181q0 185 65 350q63 159 179 283q114 122 274 191q159 69 348 69q68 0 118 -14q54 -15 96 -36t71 -47q27 -24 43 -50
h14l99 96h53z" />
    <glyph glyph-name="D" unicode="D" horiz-adv-x="1482" 
d="M942 1348q149 0 255 -44q104 -43 171 -116q66 -72 96 -164q31 -95 31 -190q0 -97 -26 -195q-27 -100 -68 -183q-44 -88 -102 -161q-61 -76 -121 -125q-40 -33 -95 -64q-52 -29 -116 -54q-56 -21 -139 -38q-70 -14 -156 -14h-774l14 57q43 6 90 25q27 11 50 31
q21 18 44 47t42 73t42 140l152 602q10 37 21 98q7 38 7 78q0 83 -57 113q-41 21 -80 26l15 58h704zM680 90q50 0 85 13q34 13 64 38q29 24 53 59q32 46 48 72q31 49 64 141q34 95 55 191q19 87 36 217q15 113 15 217q0 70 -11 107q-12 42 -34 65q-47 47 -152 47h-72
q-28 0 -37 -12q-10 -13 -14 -33l-205 -829q-9 -39 -25 -107q-7 -31 -7 -69q0 -29 6 -51q6 -23 18 -35q28 -31 80 -31h33z" />
    <glyph glyph-name="E" unicode="E" horiz-adv-x="1380" 
d="M-88 57q43 6 90 25q36 17 54 31q20 15 42 45q19 28 39 73q19 43 43 142l152 602q10 37 21 98q7 38 7 78q0 83 -57 113q-41 21 -80 26l15 58h1167l-45 -455h-62q-6 70 -34 145q-28 76 -66 123q-45 55 -93 75q-49 21 -116 21h-65q-67 0 -105 -29q-39 -30 -57 -104l-98 -385
h67q89 0 132 18q46 19 79 52q47 47 65 86q11 23 35 86h60l-146 -571h-59q4 62 1 108q-3 43 -26 72q-18 24 -54 42q-34 17 -113 17h-64l-68 -266q-9 -39 -25 -107q-7 -31 -7 -69q0 -57 32 -86q34 -31 101 -31h74q73 0 147 23q72 23 149 98q43 43 79 88q34 43 63 86
q20 30 46 74q6 11 17 28.5t15 24.5h59l-143 -512h-1282z" />
    <glyph glyph-name="F" unicode="F" horiz-adv-x="1337" 
d="M674 0h-776l14 57q43 6 90 25q27 11 50 31q21 18 44 47t42 73t42 140l152 602q10 37 21 98q7 38 7 78q0 83 -57 113q-41 21 -80 26l15 58h1157l-41 -474h-62q-4 98 -36 169q-34 76 -68 118q-46 55 -98 75q-55 21 -121 21h-45q-67 0 -105 -29q-39 -30 -57 -104l-90 -356
h49q91 0 132 17q44 18 79 53q45 45 64 86q17 36 36 86h60l-146 -572h-59q5 66 3 111q-2 46 -24 74q-19 26 -52 40q-34 15 -103 15h-62l-78 -305q-9 -34 -21 -99q-7 -38 -7 -77q0 -83 57 -113q22 -12 47 -18q33 -8 41 -9z" />
    <glyph glyph-name="G" unicode="G" horiz-adv-x="1445" 
d="M899 332q9 40 13 69q3 24 3 48q0 70 -53 100q-19 12 -41 18q-7 2 -22 4.5t-19 3.5l15 58h702l-14 -58q-10 -2 -25 -4t-20 -3q-20 -3 -37 -9q-19 -7 -37 -17q-12 -8 -33 -28q-23 -23 -33 -55q-5 -16 -26 -94l-80 -328h-51q-19 16 -39 29q-23 16 -66 16q-19 0 -43 -6
q-12 -3 -51 -16q-29 -10 -49 -19q-18 -8 -37 -16q-39 -20 -103 -37q-65 -17 -114 -17q-124 0 -225 40q-104 41 -175 111q-73 71 -113 168q-40 96 -40 212q0 156 57 312q58 159 168 282q109 123 271 202q159 78 364 78q118 0 208 -43q92 -44 126 -104h18l95 96h53l-127 -502
h-55q0 115 -24 204q-25 94 -66 151q-43 61 -102 94q-58 33 -126 33q-80 0 -142 -51t-112 -132q-20 -30 -59 -123q-39 -91 -72 -203q-35 -116 -60 -249q-26 -136 -26 -258t47 -189q40 -57 115 -57q61 0 100 12t72 45q28 28 45 68q16 39 27 84z" />
    <glyph glyph-name="H" unicode="H" horiz-adv-x="1619" 
d="M653 0h-755l14 57q43 6 90 25q27 11 50 31q21 18 44 47t42 73t42 140l152 602q10 37 21 98q7 38 7 78q0 83 -57 113q-41 21 -80 26l15 58h755l-14 -58q-36 -7 -39 -8q-22 -6 -39 -14q-28 -12 -50 -29q-22 -18 -44 -45q-18 -26 -20 -29q-11 -19 -17 -35q-11 -30 -17 -51
q-13 -45 -22 -78l-72 -280h416l72 278q11 42 18 86q4 25 4 66q0 83 -57 113q-24 13 -35 17q-12 5 -33 9l15 58h756l-15 -58q-46 -6 -90 -24q-27 -11 -50 -31q-21 -18 -44 -47q-22 -28 -42 -74t-42 -139l-152 -602q-9 -34 -21 -99q-7 -38 -7 -77q0 -83 57 -113q44 -23 80 -27
l-14 -57h-756l14 57q23 5 39 9q22 6 39 14q28 12 50 29q22 18 44 45q2 3 9 12.5t11 15.5q11 19 17 35q11 30 17 51q13 45 22 78l72 285h-416l-72 -283q-11 -42 -18 -86q-4 -25 -4 -65q0 -83 57 -113q24 -13 35 -17q18 -7 33 -10z" />
    <glyph glyph-name="I" unicode="I" horiz-adv-x="811" 
d="M571 373q-9 -34 -21 -99q-7 -38 -7 -77q0 -83 57 -113q44 -23 80 -27l-14 -57h-768l14 57q43 6 90 25q27 11 50 31q21 18 44 47t42 73t42 140l152 602q10 37 21 98q7 38 7 78q0 83 -57 113q-41 21 -80 26l15 58h768l-15 -58q-47 -6 -90 -24q-27 -11 -50 -31
q-21 -18 -44 -47q-22 -28 -42 -74t-42 -139z" />
    <glyph glyph-name="J" unicode="J" horiz-adv-x="1105" 
d="M633 975q10 37 21 98q8 43 8 78q0 82 -58 113q-41 21 -80 26l15 58h768l-15 -58q-46 -6 -90 -24q-27 -11 -50 -31q-21 -18 -44 -47q-22 -28 -42 -74t-42 -139l-131 -522q-23 -98 -79 -189q-53 -86 -132 -152q-81 -67 -179 -103q-103 -38 -224 -38q-98 0 -167 27
q-67 26 -112 68q-42 39 -62 92q-20 52 -20 100q0 98 57 151q56 52 136 52q31 0 62 -9t56 -29q26 -21 40 -53q16 -37 16 -83q0 -56 -10 -86q-11 -33 -15 -47q-6 -17 -14 -37q-8 -19 -8 -35q0 -33 41 -33q37 0 58 12t42 39q10 12 23 32q11 17 22 40q8 17 20 55q12 39 23 80z
" />
    <glyph glyph-name="K" unicode="K" horiz-adv-x="1552" 
d="M1206 406q1 -86 13 -142q11 -54 25 -79q15 -26 38 -34q24 -8 51 -8q39 0 70 25t53 63l51 -28q-11 -35 -44 -77q-30 -39 -82 -75q-49 -35 -120 -57q-72 -23 -161 -23q-98 0 -154 34q-57 35 -87 85q-29 50 -40 113q-11 62 -12 116q-2 29 -5 90q-1 23 -1 58v45q0 11 -2 47
q-4 43 -20 62q-15 18 -48 18q-60 0 -104 -43l-56 -223q-9 -34 -21 -99q-7 -38 -7 -77q0 -83 57 -113q44 -23 80 -27l-14 -57h-768l14 57q43 6 90 25q27 11 50 31q21 18 44 47t42 73t42 140l152 602q10 37 21 98q7 38 7 78q0 83 -57 113q-41 21 -80 26l15 58h768l-15 -58
q-47 -6 -90 -24q-27 -11 -50 -31q-21 -18 -44 -47q-22 -28 -42 -74t-42 -139l-66 -258l408 354q53 49 87 83q28 28 28 65q0 25 -13 36q-14 12 -30 19q-20 9 -38 11q-24 2 -36 5l10 58h569l-14 -58q-26 -5 -87 -20q-51 -12 -91 -33q-16 -8 -50 -24q-37 -18 -63 -34
q-32 -20 -88 -65q-47 -37 -129 -113l-329 -270v-12q23 12 64 21q47 10 73 10q53 0 103 -14t86 -50q39 -39 62 -104q22 -63 27 -176z" />
    <glyph glyph-name="L" unicode="L" horiz-adv-x="1306" 
d="M573 383q-9 -39 -25 -107q-7 -31 -7 -69q0 -30 10 -50q12 -24 22 -34q13 -13 30 -23t59 -10h32q33 0 71 5q29 4 66 19q34 14 67 37q38 27 73 60q43 43 79 88q28 35 62 86q20 30 46 74q6 11 17 28.5t15 24.5h59l-143 -512h-1208l14 57q43 6 90 25q36 17 54 31q20 15 42 45
q19 28 39 73q19 43 43 142l152 602q10 37 21 98q7 38 7 78q0 83 -57 113q-41 21 -80 26l15 58h768l-15 -58q-47 -6 -90 -24q-27 -11 -50 -31q-21 -18 -44 -47q-22 -28 -42 -74t-42 -139z" />
    <glyph glyph-name="M" unicode="M" horiz-adv-x="1816" 
d="M1976 1290q-46 -6 -90 -24q-27 -11 -50 -31q-21 -18 -44 -47q-22 -28 -42 -74t-42 -139l-152 -602q-9 -34 -21 -99q-7 -38 -7 -77q0 -83 57 -113q44 -23 80 -27l-14 -57h-748l15 57q8 2 24.5 5t24.5 5q21 4 43 13q33 15 48 30q16 16 32 42q19 30 33 71q19 55 34 115
l201 807h-19l-604 -1153h-178l-45 1153h-18l-183 -746q-13 -49 -23 -114q-9 -60 -9 -88q0 -53 21 -85q21 -31 56 -42q21 -6 37 -8q28 -4 43 -5l-16 -57h-522l16 57q33 5 72 15q28 8 54 24t54 51q20 26 52 94q33 71 55 162l131 523q12 46 22 90q1 7 6 28.5t7 30.5q3 15 5 44
q1 13 1 44q0 50 -19 74q-18 23 -61 39q-4 1 -9.5 2.5t-12 3t-10.5 2.5q-18 5 -44 6l12 58h662l24 -754h17l411 754h648z" />
    <glyph glyph-name="N" unicode="N" horiz-adv-x="1402" 
d="M901 -16l-399 1112h-19l-172 -697q-19 -71 -26 -128q-6 -49 -6 -78q0 -54 22 -83t57 -40q20 -5 39 -8q30 -4 45 -5l-14 -57h-530l16 57q33 5 72 15q28 8 54 24t54 51q20 26 52 94q33 71 55 162l131 521q25 100 32 134q9 46 9 93q0 42 -26 77q-25 34 -68 50q-29 10 -78 12
l12 58h612l281 -760h14l86 360q15 56 24 115q9 60 9 88q0 53 -21 85q-21 31 -57 42q-13 4 -37 7q-28 4 -43 5l15 58h501l-14 -58q-14 -1 -37 -6q-26 -5 -39 -10q-29 -12 -49 -25q-18 -12 -47 -47q-1 -1 -21 -34q-13 -20 -24 -49q-16 -41 -26 -72q-6 -21 -27 -103l-242 -960
h-170z" />
    <glyph glyph-name="O" unicode="O" horiz-adv-x="1437" 
d="M922 1376q125 0 223 -40q100 -41 166 -110q67 -70 103 -168q36 -97 36 -212q0 -107 -24 -212q-25 -110 -70 -201q-46 -94 -118 -178q-69 -81 -163 -144q-94 -61 -209 -99q-123 -41 -254 -41q-123 0 -221 40t-166 111q-67 70 -103 168t-36 212q0 107 24 212q26 112 69 200
q49 99 117 179q69 81 163 144q90 58 210 98q123 41 253 41zM922 1305q-65 0 -117 -38q-53 -39 -103 -120q-8 -13 -36 -76q-27 -61 -49 -122q-27 -75 -51 -155q-23 -78 -46 -177q-21 -91 -33 -183t-12 -176q0 -100 32 -158q31 -57 109 -57q63 0 115 38q53 39 103 120
q12 18 36 74q29 67 49 123q25 70 51 156q24 82 46 176q21 92 33 183q12 92 12 177q0 98 -31 157q-31 58 -108 58z" />
    <glyph glyph-name="P" unicode="P" horiz-adv-x="1292" 
d="M682 0h-784l14 57q43 6 90 25q27 11 50 31q21 18 44 47t42 73t42 140l152 602q10 37 21 98q7 38 7 78q0 83 -57 113q-41 21 -80 26l15 58h700q130 0 219 -28q85 -27 137 -74t71 -106q19 -58 19 -126q0 -55 -22 -108t-60 -103q-32 -43 -89 -89q-50 -41 -103 -65
q-60 -27 -154 -46q-85 -17 -237 -17h-94l-54 -213q-9 -33 -21 -97q-7 -36 -7 -75q0 -87 57 -117q22 -12 51 -18q41 -9 45 -9zM834 1257q-12 0 -19 -3q-2 -1 -6 -2.5t-6 -2.5q-13 -8 -21 -37l-135 -536h78q65 0 106 21t76 75q50 78 69 176q19 96 19 191q0 51 -25 85
q-24 33 -85 33h-51z" />
    <glyph glyph-name="Q" unicode="Q" horiz-adv-x="1427" 
d="M606 -266q-107 76 -183 113q-71 34 -147 34q-24 0 -45 -10q-22 -10 -22 -33q0 -13 17 -27q13 -11 28 -28q16 -17 27 -33q10 -16 10 -53q0 -61 -39 -93q-40 -32 -90 -32q-28 0 -52 7q-26 7 -45 24q-21 17 -32 43q-13 29 -13 65q0 59 26 102q25 41 63 70t75 46q32 15 66 28
q18 6 49.5 18t44.5 17q44 16 107 33v8q-85 23 -156 75q-67 49 -114 119q-45 67 -70 155q-25 89 -25 181q0 431 373 678q89 57 205 96q117 39 247 39q126 0 224 -37q97 -37 165 -103t104 -161q36 -94 36 -209q0 -106 -24 -210q-25 -109 -69 -195q-47 -91 -117 -171
q-67 -76 -165 -138q-31 -20 -71 -39q-50 -24 -75 -34q-37 -15 -72 -27q-23 -8 -59 -17q-176 -47 -196 -52q-78 -20 -219 -63v-4q116 -5 200 -9q70 -4 154 -13q53 -6 124 -19q76 -14 116 -22q82 -17 207 -48q89 -22 176 -22q51 0 82 17q34 18 57 46t42 65q16 31 34 73l61 -19
q-23 -107 -71 -209q-46 -98 -99 -166q-45 -54 -128 -92q-86 -39 -195 -39q-65 0 -125 21q-64 22 -122 57q-60 36 -130 87zM911 1305q-64 0 -111 -38t-98 -120q-22 -34 -60 -122q-36 -84 -75 -202q-36 -110 -64 -246q-28 -137 -28 -258q0 -98 29 -167q29 -68 106 -68
q63 0 113 38q49 37 100 120q25 38 61 128q33 83 74 216q39 127 65 260q28 142 28 264q0 99 -31 147t-109 48z" />
    <glyph glyph-name="R" unicode="R" horiz-adv-x="1443" 
d="M1087 -27q-95 0 -156 32q-60 31 -93 81q-31 47 -44 110q-12 60 -12 115v63q0 33 -1 48l-2 45q-1 21 -3 53q-6 105 -94 105h-49l-62 -252q-9 -33 -21 -97q-7 -36 -7 -75q0 -87 57 -117q23 -12 46 -18q34 -8 40 -9l-14 -57h-774l14 57q43 6 90 25q27 11 50 31q21 18 44 47
t42 73t42 140l152 602q10 37 21 98q7 38 7 78q0 83 -57 113q-41 21 -80 26l15 58h673q132 0 222 -23q89 -23 141 -63q54 -42 75 -98q21 -57 21 -122q0 -105 -65 -182q-66 -78 -177 -123q-47 -20 -106 -37q-57 -16 -129 -24v-14q59 -5 102 -19q47 -16 80 -43q48 -39 76 -90
q29 -53 35 -133q6 -81 17 -122q12 -47 27 -72t35 -33q23 -9 42 -9q57 0 110 90l58 -30q-15 -29 -51 -75q-30 -38 -78 -74q-43 -32 -112 -56q-66 -23 -147 -23zM834 1257q-18 0 -31 -8q-15 -12 -21 -37l-127 -505h60q61 0 106 22q47 23 82 74q50 73 68 158t18 178
q0 51 -24 85q-23 33 -74 33h-57z" />
    <glyph glyph-name="S" unicode="S" horiz-adv-x="1148" 
d="M1102 897h-55q0 108 -25 180q-23 65 -72 135q-28 39 -80 66q-51 27 -127 27q-91 0 -144 -41q-52 -40 -52 -123q0 -79 51 -135t150 -123q81 -57 153 -115q66 -54 103 -103q37 -50 56 -110q17 -54 17 -131q0 -91 -37 -171q-38 -83 -107 -144q-71 -64 -173 -101
q-101 -37 -232 -37q-110 0 -212 42q-99 41 -166 132h-15l-106 -141h-49l106 533h55q11 -111 40 -200q30 -92 79 -157q48 -64 116 -101q66 -36 152 -36q104 0 166 33t62 127q0 41 -13 73t-45 63q-39 37 -88 73q-75 55 -143 102q-124 86 -191 183t-67 231q0 88 38 172
q36 80 107 143q68 60 170 97q101 36 224 36q67 0 116 -14q52 -15 93 -36q38 -20 67 -47q28 -26 39 -46h10l80 104h57z" />
    <glyph glyph-name="T" unicode="T" horiz-adv-x="1417" 
d="M864 373q-9 -34 -21 -99q-7 -38 -7 -77q0 -83 57 -113q44 -23 80 -27l-15 -57h-768l15 57q43 6 90 25q27 11 50 31q21 18 44 47q24 30 41 73q18 46 41 138l219 886h-26q-72 0 -132 -33q-61 -33 -122 -96q-40 -40 -58 -59q-31 -33 -54 -62q-46 -58 -58 -75
q-49 -67 -70 -96h-59l165 512h1297l-68 -512h-61q-16 89 -47 160q-29 66 -74 130q-46 61 -91 96t-118 35h-33z" />
    <glyph glyph-name="U" unicode="U" horiz-adv-x="1470" 
d="M1274 438q-52 -219 -191 -344q-137 -123 -378 -123q-256 0 -389 106q-132 105 -132 292q0 21 2 57q1 16 7 55q5 32 12 64q6 29 20 82l88 348q13 49 22 98q7 38 7 78q0 83 -57 113q-41 21 -80 26l14 58h768l-14 -58q-47 -6 -90 -24q-27 -11 -50 -31q-24 -21 -45 -47
q-22 -28 -42 -74q-18 -40 -41 -139l-119 -469q-18 -67 -25 -113q-8 -56 -8 -102q0 -91 60 -154t182 -63q136 0 235 87t144 279l129 508q10 45 22 115q10 57 10 88q0 53 -21 85q-21 31 -57 42q-14 4 -36 7q-28 4 -43 5l14 58h494l-15 -58q-14 -1 -37 -6q-26 -5 -39 -10
q-29 -12 -49 -25q-18 -12 -47 -47q-1 -1 -21 -34q-13 -20 -24 -49q-16 -41 -26 -72q-6 -21 -27 -103z" />
    <glyph glyph-name="V" unicode="V" horiz-adv-x="1425" 
d="M1190 1008q39 59 62 99q28 48 28 87q0 50 -49 72q-20 9 -49 16q-26 7 -58 8l15 58h540l-12 -58q-28 -7 -48 -14q-33 -12 -65 -31q-53 -33 -112 -85q-60 -52 -125 -156l-651 -1004h-375l76 975q4 53 4 87v50q0 70 -16 102q-16 33 -52 50q-15 7 -43 17q-21 8 -37 9l15 58
h768l-15 -58q-47 -6 -90 -24q-25 -11 -45 -31q-17 -17 -39 -47q-15 -27 -33 -73q-15 -40 -26 -140l-70 -752h14z" />
    <glyph glyph-name="W" unicode="W" horiz-adv-x="2164" 
d="M1942 1008q25 48 48 98q21 46 21 88q0 50 -49 72q-20 9 -49 16q-26 7 -58 8l15 58h551l-13 -58q-35 -7 -61 -12q-34 -7 -82 -33q-47 -28 -95 -84q-49 -58 -108 -157l-596 -1004h-374l61 809h-12l-475 -809h-375l76 975q4 53 4 87v50q0 70 -16 102q-16 33 -52 50
q-15 7 -43 17q-21 8 -37 9l15 58h747l-14 -58q-40 -6 -70 -24q-25 -11 -45 -31q-17 -17 -39 -47q-15 -27 -33 -73q-15 -40 -26 -140l-70 -744h14l467 783q4 39 3 59q-1 14 -1 39q0 74 -14 103q-16 33 -43 49q-22 14 -43 19q-29 6 -37 7l15 58h737l-14 -58q-36 -6 -70 -24
q-25 -11 -45 -31q-17 -17 -39 -47q-15 -27 -33 -73q-15 -40 -26 -140l-70 -744h14z" />
    <glyph glyph-name="X" unicode="X" horiz-adv-x="1382" 
d="M-164 0l10 57q41 5 72 15q34 13 55 23q16 8 37 20q45 30 78 54t60 45q36 28 54 45q34 32 56 54l295 277l-129 446q-8 25 -31 106q-15 54 -37 77q-23 27 -43 37q-23 11 -45 20q-6 2 -17.5 4.5t-16.5 3.5q-19 5 -33 6l14 58h752l-15 -58q-21 -1 -54 -5q-24 -3 -42 -11
q-47 -23 -47 -82q0 -14 1 -21q2 -14 4 -24q1 -4 3.5 -16.5t4.5 -20.5q1 -7 6 -26t8 -31l53 -189l188 174q53 46 87 87q34 40 34 81q0 27 -10 41q-10 15 -35 27q-18 8 -35 11q-26 4 -33 5l13 58h530l-10 -58q-46 -6 -72 -14q-27 -10 -55 -24q-30 -15 -37 -19q-53 -34 -79 -54
q-56 -43 -59 -45q-30 -23 -53 -45q-34 -32 -57 -55l-288 -270l135 -471q17 -69 27 -95q14 -38 34 -65q21 -28 37 -40q12 -9 45 -21q32 -11 35 -11q2 0 12.5 -1.5t16.5 -2.5l-15 -57h-737l12 57q21 1 54 5q21 2 42 12q48 23 48 82v20q0 5 -4 25q-1 4 -3.5 16.5t-4.5 20.5
q-4 22 -15 57l-55 194l-195 -180q-53 -47 -87 -87t-34 -81q0 -27 10 -41q9 -13 35 -26q21 -10 35 -12q25 -4 33 -5l-12 -57h-531z" />
    <glyph glyph-name="Y" unicode="Y" horiz-adv-x="1476" 
d="M905 373q-9 -34 -21 -99q-7 -38 -7 -77q0 -83 57 -113q44 -23 80 -27l-15 -57h-768l15 57q43 6 90 25q27 11 50 31q21 18 44 47q10 15 22 38q1 1 22 52q11 27 21 59q8 27 15 58l45 176l-137 524q-28 104 -81 157q-51 51 -118 66l14 58h750l-14 -58q-2 0 -43 -7
q-24 -4 -43 -11q-21 -10 -43 -32q-21 -21 -21 -62q0 -34 11 -71q10 -34 22 -85l80 -317h14l219 301q58 77 82 120q23 41 23 78q0 30 -19 43q-17 11 -37 23q-18 7 -36 12q-25 7 -39 8l14 58h520l-14 -58q-39 -5 -68 -13q-31 -9 -63 -26q-54 -31 -114 -86q-68 -62 -152 -184
l-316 -436z" />
    <glyph glyph-name="Z" unicode="Z" horiz-adv-x="1288" 
d="M1368 1290l-903 -1200h143q66 0 144 15q76 15 157 88q101 88 173 171q74 85 94 119h59l-135 -483h-1151l10 57l899 1200h-129q-65 0 -136 -21q-70 -21 -161 -89q-60 -45 -116 -106q-64 -70 -101 -117h-61l125 424h1101z" />
    <glyph glyph-name="a" unicode="a" horiz-adv-x="1236" 
d="M938 166q0 -45 37 -45q41 0 92 54q52 55 98 122l43 -29q-79 -126 -177 -208q-96 -80 -240 -80q-78 0 -122 44t-44 117q0 22 2 54q2 25 6 41h-12q-21 -38 -43 -71q-17 -26 -54 -69q-25 -27 -54 -46q-34 -23 -67 -37q-35 -15 -69 -24t-64 -9q-52 0 -93 14q-45 16 -78 47
q-32 31 -54 85q-20 50 -20 126q0 127 57 250t148 220q91 96 204 157q111 59 223 59q66 0 105 -28q36 -26 41 -60h20q4 7 11 19.5t10 17.5q6 11 20 31h293l-135 -418q-41 -122 -64 -207q-20 -74 -20 -127zM750 780q0 46 -17 61q-16 15 -37 15q-24 0 -51 -17q-29 -19 -74 -87
q-30 -50 -73 -147q-38 -87 -66 -169q-27 -78 -46 -156q-17 -68 -17 -106q0 -34 15 -49q14 -14 34 -14q31 0 57 23q25 22 49 59q15 22 34 53q14 22 24 42q7 13 19 39q20 44 22 48q53 124 90 229q37 107 37 176z" />
    <glyph glyph-name="b" unicode="b" horiz-adv-x="1112" 
d="M1077 639q0 -55 -17 -117q-19 -71 -47 -133q-29 -66 -69 -127q-38 -59 -82 -98q-101 -93 -206 -139q-104 -45 -244 -45q-110 0 -179 26q-70 26 -115 68t-63 91t-18 99q0 68 19 154q18 84 50 180l189 565q10 28 16 57q4 19 4 46q0 41 -28 65q-11 11 -35 17q-13 3 -49 10
l14 43h490q16 0 16 -15q0 -8 -12 -38q-11 -28 -23 -60q-2 -6 -7 -18.5t-7 -19.5t-7 -19.5t-7 -18.5q-8 -21 -15 -45t-18 -57l-92 -289h14q89 117 250 117q119 0 198 -76q80 -77 80 -223zM729 762q0 30 -12 50q-12 19 -41 19q-28 0 -52 -15q-21 -13 -46 -38q-32 -34 -48 -63
q-20 -37 -41 -80q-25 -56 -47 -118q-26 -74 -45 -140q-19 -65 -32 -140t-13 -116q0 -72 64 -72q47 0 83 36q32 32 72 110q14 28 43 102q27 69 53 153q27 89 44 166q18 84 18 146z" />
    <glyph glyph-name="c" unicode="c" horiz-adv-x="1007" 
d="M983 715q0 -70 -40 -106q-41 -36 -101 -36q-61 0 -99 35q-36 33 -36 88q0 22 4 37q1 5 4.5 18.5t5.5 20.5t4.5 19t2.5 13q3 14 3 30q0 34 -39 34q-53 0 -96 -46q-44 -47 -84 -124q-24 -46 -45 -102t-36 -111q-16 -61 -23 -107q-9 -63 -9 -91q0 -35 7 -75q6 -34 22 -59
t45 -40q28 -15 74 -15q83 0 163 60q78 59 138 149l37 -24q-39 -67 -87 -123q-45 -52 -112 -95q-63 -41 -142 -63q-78 -22 -177 -22q-160 0 -248 94t-88 245q0 76 22 143q22 68 60 130q39 64 85 113t99 88q103 75 206 110t189 35q74 0 128 -18q51 -17 90 -51q38 -34 55 -71
q18 -41 18 -83z" />
    <glyph glyph-name="d" unicode="d" horiz-adv-x="1232" 
d="M752 799q0 41 -18 54q-17 13 -38 13q-27 0 -61 -19q-35 -20 -72 -85q-34 -61 -67 -141q-42 -100 -63 -166q-31 -97 -46 -160q-18 -77 -18 -121q0 -34 15 -51t34 -17q27 0 55 23q26 22 49 57q17 26 34 57q20 35 24 43q9 17 19 40q3 6 10.5 22.5t11.5 26.5q21 47 50 121
q26 68 42 117q16 50 28 104q11 49 11 82zM614 236q-22 -45 -41 -77q-18 -30 -53 -71q-22 -24 -54 -45q-25 -17 -67 -35q-29 -13 -71 -21q-35 -7 -70 -7q-119 0 -176 73q-57 74 -57 199q0 127 63 250q61 120 163 220q97 96 218 157q117 59 229 59q43 0 67 -10q22 -9 36 -17h6
l82 252q10 28 16 57q4 19 4 46q0 41 -28 65q-11 11 -35 17q-13 3 -49 10l14 43h494q16 0 16 -15q0 -8 -12 -38q-11 -28 -23 -60q-11 -26 -28 -76q-4 -10 -14.5 -43.5t-18.5 -56.5q-19 -55 -38 -111t-38.5 -111.5t-28.5 -80.5q-40 -117 -63 -186l-41 -123q-41 -122 -64 -207
q-20 -74 -20 -127q0 -45 37 -45q41 0 92 54q52 55 98 122l43 -29q-79 -126 -180 -208q-99 -80 -244 -80q-71 0 -115 44q-45 45 -45 117q0 6 3 54q2 25 6 41h-13z" />
    <glyph glyph-name="e" unicode="e" horiz-adv-x="985" 
d="M889 283q-36 -63 -76 -112q-43 -54 -103 -97q-59 -43 -139 -69q-76 -25 -182 -25q-72 0 -137 22q-64 22 -115 68q-50 45 -78 112q-28 66 -28 158q0 82 24 156q22 68 66 136q40 62 96 112q57 51 115 87q98 59 183 82q92 25 165 25q146 0 219 -47q72 -47 72 -131
q0 -57 -29 -112t-78 -85q-57 -36 -178 -80q-107 -39 -266 -75q-10 -41 -13 -86q-4 -58 -4 -70q0 -92 32 -127t91 -35q58 0 104 18q44 17 86 48q36 27 72 69q40 48 64 82zM430 469q84 23 123 39q36 15 65 33q61 35 89 105q28 69 28 142q0 80 -55 80q-35 0 -71 -27
q-32 -24 -69 -79q-34 -51 -63 -126q-29 -77 -47 -167z" />
    <glyph glyph-name="f" unicode="f" horiz-adv-x="753" 
d="M627 819q-64 -245 -145 -490q-76 -232 -171 -399q-95 -168 -221 -268q-123 -98 -291 -98q-124 0 -206 58t-82 169q0 64 35 98q37 35 89 35q67 0 94 -35t27 -75q0 -38 -7 -70t-7 -55q0 -35 17 -45q19 -11 42 -11q46 0 77 25t61 80q33 60 64 159q31 100 63 226
q24 95 68 288q30 135 83 343l16 65h-172l31 99h170q26 78 76 169q47 86 120 156q74 71 172 114q100 44 234 44q146 0 223 -59q76 -58 76 -154q0 -47 -33 -89t-98 -42q-63 0 -96 29q-35 30 -35 83q0 31 10 65q11 38 11 62q0 45 -58 45q-23 0 -56 -23q-32 -22 -60 -81
q-2 -4 -5.5 -12t-6.5 -16t-6 -15q-3 -9 -20 -61q-3 -8 -26 -90q-17 -58 -33 -125h244l-31 -99h-237z" />
    <glyph glyph-name="g" unicode="g" horiz-adv-x="1118" 
d="M610 883q-31 0 -55 -26q-23 -25 -39 -56q-13 -26 -26 -68q-12 -40 -25 -92q-16 -66 -21 -100q-8 -54 -8 -90q0 -35 16 -57q15 -21 48 -21q34 0 58 25q20 22 38 57q13 26 26 68q10 33 25 94q15 63 21 101q8 53 8 91q0 33 -19 54q-18 20 -47 20zM330 -436q-90 0 -170 10
q-83 10 -151 35t-107 64q-41 41 -41 100q0 63 71 112t195 64v6q-70 34 -103 82q-32 47 -32 119q0 55 27 94q24 35 69 65q38 25 91 43q49 16 93 27q-40 32 -76 94q-34 59 -34 131q0 95 45 158q46 64 111 101q70 40 146 54q79 15 146 15q69 0 141 -25q68 -24 115 -75h13
q10 59 59 102t121 43q64 0 111 -38t47 -103q0 -50 -33 -74q-34 -25 -68 -25t-60 14t-44 48q-7 12 -25 37q-12 16 -26 16q-12 0 -23 -8q-10 -7 -10 -41t7 -59q8 -27 9 -43q6 -28 6 -62q0 -95 -45 -158q-46 -64 -112 -101q-69 -38 -147 -53q-85 -16 -146 -16q-16 0 -44 5
q-9 2 -27 4.5t-26 3.5q-7 1 -24 3.5t-26 4.5q-21 4 -38 4q-29 0 -51 -7q-24 -7 -24 -34q0 -28 54 -43q47 -13 181 -43q127 -29 198 -53q81 -27 132 -60q53 -34 74 -75q22 -43 22 -105q0 -93 -45 -159t-122 -111q-79 -47 -181 -67q-105 -21 -223 -21zM330 -377q160 0 240 37
q81 38 81 96q0 46 -72 70q-73 24 -233 59q-24 5 -59 14q-38 10 -54 15q-37 0 -69 -7q-35 -8 -64 -23t-47 -42t-18 -69q0 -69 81 -109q82 -41 214 -41z" />
    <glyph glyph-name="h" unicode="h" horiz-adv-x="1257" 
d="M354 1163q13 42 16 57q5 23 5 46q0 41 -29 65q-11 11 -35 17q-13 3 -49 10l14 43h490q16 0 16 -15q0 -8 -12 -38q-5 -12 -13 -35t-9 -25q-2 -7 -7.5 -19.5t-7.5 -18.5q-8 -24 -13 -38q-8 -21 -15 -45q-2 -8 -8.5 -27t-10.5 -30l-104 -328h14q65 81 158 119q90 37 178 37
q108 0 152 -54q44 -55 44 -147q0 -47 -24 -127q-20 -68 -70 -190q-41 -99 -62 -170q-20 -68 -20 -86q0 -43 37 -43q16 0 38 14q24 15 51 39q32 29 57 56q26 29 51 67l43 -29q-79 -126 -203 -208q-121 -80 -276 -80q-172 0 -172 151q0 56 35 145q50 126 79 195q39 94 74 176
q27 63 27 98q0 22 -13 32q-12 9 -30 9q-43 0 -106 -59q-64 -60 -124 -203q-9 -20 -41 -105q-13 -35 -55 -154q-41 -116 -54 -154q-32 -92 -38 -111h-352z" />
    <glyph glyph-name="i" unicode="i" horiz-adv-x="757" 
d="M754 1188q0 -70 -48 -120t-122 -50t-121 50t-47 120q0 35 12 65q12 31 35 55q20 22 53 38q28 14 68 14q39 0 67 -14q35 -17 54 -38q20 -21 35 -55q14 -31 14 -65zM289 741q0 45 -41 45q-27 0 -72 -36q-48 -39 -98 -121l-45 26q40 70 93 122q51 50 115 88q62 37 124 55
q63 18 122 18q47 0 76 -13q31 -14 47 -36t24 -50q7 -25 7 -59q0 -21 -7 -50q-4 -18 -20 -75q-15 -55 -29 -93q-32 -88 -38 -103t-38 -103q-12 -33 -31 -90q-7 -20 -20 -68q-7 -25 -7 -38q0 -43 36 -43q16 0 38 14q27 17 52 39q27 24 56 56q26 29 51 67l43 -29
q-79 -126 -203 -208q-123 -81 -276 -81q-172 0 -172 152q0 27 10 63q10 35 27 82q21 57 37 95q8 18 21 51.5t19 48.5q5 11 15.5 37t13.5 34q3 6 14.5 34.5t17.5 43.5q17 44 27 73q11 32 11 52z" />
    <glyph glyph-name="j" unicode="j" horiz-adv-x="673" 
d="M764 1188q0 -70 -48 -120t-122 -50t-121 50t-47 120q0 35 12 65q12 31 35 55q20 22 53 38q28 14 68 14t68 -14q33 -16 53 -38q22 -23 36 -55q13 -29 13 -65zM494 279q-45 -113 -86 -200q-44 -94 -76 -147q-36 -61 -75 -109q-33 -41 -81 -89q-41 -37 -77 -62
q-46 -32 -94 -55q-49 -24 -107 -39q-53 -14 -119 -14q-64 0 -113 14q-54 16 -94 42q-42 28 -66 68t-24 93q0 77 46 124q46 48 118 48q74 0 109 -42q34 -41 34 -87q0 -36 -7 -56q-12 -33 -18 -49q-9 -23 -11 -29q-5 -17 -5 -26q0 -16 10 -25q12 -10 27 -10q38 0 66 23
q24 20 59 74q21 32 56 113q36 83 69 169q42 109 65 174q11 32 47 129q3 9 37 100q28 75 47 131q11 34 40 124q18 57 18 75q0 45 -41 45q-27 0 -72 -36q-48 -39 -98 -121l-45 26q40 71 94 122q55 52 118 88q67 38 128 55q66 18 125 18q46 0 75 -13q32 -15 48 -36
q15 -20 23 -50q7 -25 7 -59q0 -26 -13 -77q-10 -37 -35 -119q-18 -57 -50 -147q-12 -33 -59 -158z" />
    <glyph glyph-name="k" unicode="k" horiz-adv-x="1232" 
d="M768 -20q-32 0 -61 10q-34 12 -57 28q-24 17 -42 48q-16 28 -16 65q0 61 10 100q12 46 25 84q8 23 16 57q6 25 6 46q0 37 -13 62q-14 26 -63 26h-79l-162 -506h-352l372 1163q12 36 17 57q4 19 4 46q0 41 -29 65q-11 11 -35 17q-13 3 -49 10l14 43h490q16 0 16 -15
q0 -8 -12 -38q-11 -28 -23 -60q-2 -6 -7 -18.5t-7 -19.5q-8 -24 -13 -38q-16 -43 -16 -45q-8 -24 -18 -57l-170 -537h59q46 0 80 17q35 17 58 42q25 27 41 54q24 41 32 53l30 45q3 4 7.5 11t8 12.5t6.5 9.5q7 10 19 26q3 4 24 25q27 27 70 48q46 22 112 22q82 0 127 -49
q45 -50 45 -121q0 -82 -45 -127t-103 -45q-57 0 -94 27t-37 92q0 24 17 63q10 20 16 35t6 25q0 12 -14 12q-31 0 -59 -34q-35 -43 -76 -111q-25 -43 -64 -96q-33 -45 -88 -62v-8q47 -6 98 -22q45 -14 80 -42q38 -30 57 -66q22 -41 23 -98q0 -23 1 -33t1 -32q0 -27 1 -37
q2 -20 3 -31q5 -28 15 -35q11 -8 26 -8q29 0 75 45q45 44 85 111l43 -27q-29 -51 -79 -111q-45 -54 -98 -91t-118 -60q-62 -22 -137 -22z" />
    <glyph glyph-name="l" unicode="l" horiz-adv-x="716" 
d="M469 459q-38 -125 -60 -190q-26 -78 -26 -109q0 -43 37 -43q24 0 54 15q27 13 60 40q28 23 58 57q29 34 53 68l43 -29q-79 -126 -200 -208q-119 -80 -287 -80q-87 0 -135 38q-50 39 -50 113q0 26 11 68q17 64 24 87q20 62 31 93q19 54 29 86l233 698q10 28 16 57
q5 23 5 46q0 41 -29 65q-11 11 -35 17q-13 3 -49 10l14 43h490q16 0 16 -15q0 -8 -12 -38q-11 -28 -23 -60q-2 -6 -7 -18.5t-7 -19.5q-8 -24 -13 -38q-15 -43 -16 -45q-8 -24 -18 -57z" />
    <glyph glyph-name="m" unicode="m" horiz-adv-x="1935" 
d="M1257 131q0 53 36 145q50 126 79 195q43 104 71 167q23 52 23 89q0 41 -39 41q-26 0 -67 -38q-43 -40 -89 -106q-54 -78 -99 -166q-51 -101 -95 -216l-84 -242h-358l160 471q7 21 53 158q20 60 20 98q0 41 -39 41q-20 0 -47 -18q-25 -17 -61 -68q-39 -56 -79 -136
q-43 -85 -99 -227q-4 -11 -13.5 -34.5t-14.5 -37.5q-2 -5 -13.5 -35.5t-17.5 -47.5q-10 -29 -30 -85q-26 -73 -28 -79h-352l174 516q20 60 34 116q11 45 11 93q0 28 -9 46q-8 17 -36 17q-29 0 -72 -36q-46 -38 -96 -121l-45 24q79 139 190 211t232 72q46 0 75 -13
q32 -15 48 -36q15 -20 23 -50q7 -25 7 -59q0 -56 -7 -98q-10 -60 -21 -104h14q53 109 105 172q57 69 114 111q56 41 112 60q51 17 101 17q55 0 86 -14q34 -15 51 -40q19 -27 25 -64t6 -83q0 -50 -25 -159h17q53 109 105 172q59 71 113 111q57 42 111 60q51 17 101 17
q108 0 150 -54t42 -147q0 -49 -25 -127q-23 -71 -71 -190q-41 -99 -62 -170q-20 -68 -20 -86q0 -43 37 -43q16 0 38 14q24 15 51 39q32 29 57 56q26 29 51 67l43 -29q-79 -126 -203 -208q-121 -80 -276 -80q-173 0 -173 151z" />
    <glyph glyph-name="n" unicode="n" horiz-adv-x="1337" 
d="M1311 268q-79 -126 -203 -208q-121 -80 -277 -80q-172 0 -172 151q0 53 36 145q50 126 79 195q43 104 71 167q23 52 23 89q0 41 -39 41q-20 0 -47 -18q-25 -17 -61 -68q-39 -56 -79 -136q-43 -85 -99 -227q-4 -11 -13.5 -34.5t-14.5 -37.5q-2 -5 -13.5 -35.5t-17.5 -47.5
q-10 -29 -30 -85q-26 -73 -28 -79h-352l174 516q20 60 34 116q11 45 11 93q0 28 -9 46q-8 17 -36 17q-29 0 -72 -36q-46 -38 -96 -121l-45 24q79 139 190 211t232 72q46 0 75 -13q32 -15 48 -36q15 -20 23 -50q7 -25 7 -59q0 -56 -7 -98q-10 -60 -21 -104h14q52 108 104 172
q56 69 111 111q55 41 109 60q50 17 100 17q108 0 150 -54t42 -147q0 -49 -25 -127q-23 -71 -71 -190q-41 -99 -62 -170q-20 -68 -20 -86q0 -43 37 -43q16 0 38 14q24 15 51 39q32 29 57 56q26 29 51 67z" />
    <glyph glyph-name="o" unicode="o" horiz-adv-x="1089" 
d="M432 -20q-90 0 -161 28q-74 29 -124 81q-51 53 -78 124q-28 75 -28 156q0 124 55 235q56 113 146 191q36 32 86 59t103 45q57 19 113 29t113 10q88 0 161 -29q74 -29 124 -81q54 -55 79 -123q28 -75 28 -156q0 -122 -56 -236q-55 -112 -145 -190q-39 -34 -86 -60
q-49 -27 -104 -45q-51 -17 -112 -28q-56 -10 -114 -10zM657 868q-19 0 -50 -16t-64 -86q-30 -63 -54 -131q-27 -78 -55 -173q-25 -83 -44 -182q-17 -86 -17 -161q0 -70 59 -70q8 0 22 3q12 3 28 14q19 13 32 30q16 20 33 56q27 56 53 131q27 78 55 173q25 83 44 182
q18 92 18 161t-60 69z" />
    <glyph glyph-name="p" unicode="p" horiz-adv-x="1282" 
d="M616 643q27 59 67 116q36 51 83 94q43 39 99 62q55 23 116 23q55 0 103 -15q45 -14 85 -51q37 -34 58 -95q20 -57 20 -148q0 -130 -64 -257q-66 -130 -165 -229q-70 -70 -173 -117q-101 -46 -214 -46q-55 0 -102 12q-44 11 -66 24l-45 -137q-12 -35 -24 -75
q-11 -37 -11 -68q0 -29 11 -51q13 -25 40 -41q16 -10 35 -14q23 -4 51 -9l-18 -57h-695l19 57q43 5 70 15q34 12 51 28q23 21 39 48q15 25 37 89q80 252 110 342q21 66 42 129q27 81 38 115q25 79 28 86l15 43q22 69 29 116q8 53 8 93q0 28 -9 46q-8 17 -36 17
q-29 0 -72 -36q-46 -38 -96 -121l-45 24q79 139 190 211t232 72q46 0 75 -13q33 -15 50 -36t25 -50q7 -25 7 -59q0 -35 -3 -65l-7 -72h12zM905 764q0 61 -45 61q-33 0 -56 -17q-21 -16 -50 -48q-15 -16 -34 -45q-12 -18 -34 -58q-6 -10 -31 -61q-13 -26 -22 -55l-141 -439
q11 -23 32 -37q24 -16 56 -16q40 0 80 39q41 39 73 98q25 45 54 115q33 78 56 154q27 88 44 165q18 82 18 144z" />
    <glyph glyph-name="q" unicode="q" horiz-adv-x="1136" 
d="M838 -121q-12 -35 -24 -75q-11 -37 -11 -68q0 -27 9 -51t38 -41q28 -17 82 -23l-19 -57h-684l19 57q45 5 75 15q39 13 56 28q24 22 38 48q16 29 38 89l116 338h-12q-19 -28 -39 -49q-26 -28 -67 -55q-49 -34 -104 -45q-51 -10 -103 -10q-119 0 -170 73t-51 199
q0 128 55 250t147 220q90 96 212 157q118 59 247 59q63 0 105 -16q44 -17 70 -40q27 -24 44 -52t23 -50h22l172 156h66zM750 793q0 44 -18 59q-17 14 -38 14q-30 0 -59 -22q-33 -24 -72 -96q-32 -64 -65 -143q-41 -97 -63 -168q-34 -106 -46 -156q-18 -72 -18 -105
q0 -40 14 -54q16 -16 31 -16q34 0 62 25q30 27 52 57q28 38 45 78q25 61 39 94q40 98 52 130q32 85 43 121q12 37 29 104q12 47 12 78z" />
    <glyph glyph-name="r" unicode="r" horiz-adv-x="1079" 
d="M567 530q43 118 84 198q39 76 83 125q42 46 86 66q42 19 93 19q84 0 136 -47q51 -47 51 -141q0 -81 -41 -127q-41 -45 -117 -45q-56 0 -88 23q-31 23 -53 71q-16 40 -27 52q-10 11 -31 11q-11 0 -29 -21q-15 -18 -43 -75q-25 -53 -63 -144q-33 -80 -88 -231
q-29 -70 -48 -128q-5 -16 -21 -62t-25 -74h-352l174 516q20 60 34 116q11 45 11 93q0 28 -9 46q-8 17 -36 17q-29 0 -72 -36q-46 -38 -96 -121l-45 24q79 139 190 211t232 72q46 0 73 -13q28 -13 45 -36q18 -24 22 -50q5 -30 5 -59q0 -57 -17 -122q-22 -85 -34 -128h16z" />
    <glyph glyph-name="s" unicode="s" horiz-adv-x="876" 
d="M864 737q0 -53 -30 -86t-84 -33q-57 0 -91 29q-32 28 -32 76q0 39 1 49t1 29q0 25 -22 47q-20 20 -83 20q-60 0 -94 -22q-35 -23 -35 -64q0 -51 47 -86q50 -37 146 -88q98 -54 156 -123q57 -67 57 -182q0 -72 -34 -131t-92 -102t-134 -67q-73 -23 -158 -23q-75 0 -143 15
t-118 44q-49 28 -80 70q-30 41 -30 94q0 65 40 101t87 36q63 0 92 -35t29 -88q0 -28 -2 -56t-2 -50q0 -62 127 -62q67 0 113 23q45 22 45 82q0 25 -8 44q-7 18 -29 35q-20 16 -64 42q-15 9 -52 31.5t-56 33.5q-78 46 -128 112q-50 65 -50 169q0 87 33 144q35 61 88 98
q58 40 120 57q66 18 127 18q66 0 125 -10q62 -11 110 -33q49 -23 78 -61t29 -97z" />
    <glyph glyph-name="t" unicode="t" horiz-adv-x="798" 
d="M418 160q0 -43 37 -43q19 0 49 15q28 14 63 41q33 25 66 57q30 29 55 67l43 -29q-79 -126 -203 -208q-121 -80 -292 -80q-88 0 -136 38q-49 39 -49 113q0 27 9 69q7 31 25 88q10 31 32 93q18 50 33 86l137 352h-162l35 99h162l98 264h346l-92 -264h207l-35 -99h-205
l-129 -360l-71 -200q-23 -63 -23 -99z" />
    <glyph glyph-name="u" unicode="u" horiz-adv-x="1355" 
d="M1049 164q0 -43 38 -43q20 0 42 14q24 15 51 39q25 22 54 56q26 31 50 67l43 -29q-79 -127 -186 -208q-105 -80 -260 -80q-85 0 -129 47q-43 46 -43 120q0 44 7 82q10 54 23 99h-18q-49 -96 -107 -170q-52 -67 -106 -107q-52 -39 -106 -54q-52 -15 -105 -15
q-76 0 -131 52t-55 144q0 39 7 70q8 33 19 69q11 33 30 80q7 17 21 52t19 47q28 68 36 88q16 40 24 64q10 31 14 48q4 19 4 39q0 30 -7 41q-8 12 -30 12q-28 0 -73 -36q-46 -37 -97 -121l-45 24q79 139 196 211t238 72q92 0 141 -49t49 -125q0 -54 -28 -135
q-27 -79 -72 -187q-34 -78 -40 -95q-21 -57 -25 -67q-10 -25 -15 -48q-4 -17 -4 -35q0 -27 10 -36q11 -9 29 -9q16 0 45 24q30 25 67 83q40 62 86 153q48 94 103 233q36 88 56 132q32 70 55 141h356q-8 -25 -25 -76.5t-24 -74.5q-47 -145 -53 -161q-47 -135 -49 -142
q-6 -18 -31 -97q-22 -66 -36 -111q-13 -43 -13 -92z" />
    <glyph glyph-name="v" unicode="v" horiz-adv-x="1083" 
d="M209 496q8 20 20 50.5t15 38.5q8 20 23 65q10 31 14 48q4 19 4 39q0 30 -7 41q-8 13 -30 13q-26 0 -73 -38q-45 -36 -97 -122l-45 24q79 139 196 211t238 72q92 0 141 -49t49 -125q0 -54 -28 -135q-27 -79 -72 -187q-64 -155 -69 -168q-21 -56 -21 -90q0 -41 18 -59
q19 -19 47 -19q46 0 107 42q62 42 119 110q55 65 97 152q40 83 40 168q0 15 -2 35q-1 12 -7 31q-1 4 -3.5 9.5t-5.5 12.5t-5 11q-3 7 -10 21.5t-10 22.5q-18 32 -26 60q-9 30 -9 46q0 59 35 85t72 26q55 0 87 -41q31 -40 31 -123q0 -52 -14 -111q-14 -60 -39 -128
q-19 -53 -55 -128q-27 -56 -64 -112q-36 -55 -92 -116q-49 -53 -119 -101q-67 -46 -144 -72t-171 -26q-103 0 -164 55t-61 149q0 38 6 69q8 40 17 68q13 38 28 77q23 58 39 98z" />
    <glyph glyph-name="w" unicode="w" horiz-adv-x="1738" 
d="M1087 -20q-75 0 -130 23t-95 65q-73 -38 -158 -63t-192 -25q-137 0 -218 71q-83 72 -83 207q0 66 28 122q27 54 67 94q41 41 86 70q48 31 85 48q-36 24 -65 43q-38 25 -84 59q-12 9 -31.5 23t-26.5 19q-5 4 -12 9t-11.5 8.5t-8.5 5.5q-12 7 -20 9q-10 2 -15 2
q-31 0 -31 -27q0 -14 11 -25q14 -14 34 -30q29 -24 29 -74q0 -45 -28 -79q-27 -33 -81 -33q-55 0 -78 36q-22 35 -22 76q0 47 32 97q29 46 62 82q59 64 136 105q74 40 141 40q46 0 83 -29q45 -35 70 -53q38 -28 71 -48q28 -17 58 -17q28 0 35 21q6 17 23 56q27 70 69 70
q21 0 34 -13t13 -34q0 -23 -18 -42q-16 -17 -41 -44q-8 -10 -33 -35q-20 -21 -37 -43q-27 -41 -50 -81q-30 -52 -50 -102q-24 -60 -38 -123q-15 -66 -15 -140t34 -126q35 -53 107 -53q53 0 96 15q-24 41 -41 92q-14 43 -14 100q0 83 22 161q22 77 59 150q35 69 83 129
q44 55 96 101t107 68q50 20 88 20q68 0 106 -44q37 -43 37 -153q0 -116 -66 -239q-69 -129 -159 -226q23 -66 62 -94q40 -28 99 -28q56 0 94 27q35 25 66 69q58 85 77 161q19 75 19 167q0 15 -2 35q-1 12 -7 31q-4 12 -14 33q-4 8 -24 44q-15 28 -25 60q-9 30 -9 46
q0 60 34 85q35 26 72 26q55 0 87 -41t32 -123q0 -53 -11 -116q-12 -66 -33 -146q-20 -74 -56 -157q-37 -86 -76 -142q-69 -101 -173 -167q-103 -66 -262 -66zM1202 854q-17 0 -37 -10t-37 -39q-14 -23 -27 -79q-11 -45 -11 -130q0 -40 3 -102q3 -68 17 -134q70 89 118 194
q46 101 46 187q0 63 -22 88t-50 25z" />
    <glyph glyph-name="x" unicode="x" horiz-adv-x="1247" 
d="M1268 799q0 -38 -14 -77q-17 -46 -33 -73q-22 -36 -46 -63q-23 -26 -53 -49l-41 18q22 43 37 103q15 59 15 104q0 72 -58 72q-25 0 -66 -23t-75 -72q-44 -65 -71 -122q-29 -60 -56 -162q-16 -68 -19 -82q-6 -32 -9 -56q-2 -13 -4 -38q-1 -11 -1 -31v-51q0 -25 6 -43
q6 -17 22 -30q14 -11 44 -11q27 0 54 18t52 46q24 27 46 60q25 37 38 60l45 -25q-24 -41 -63 -101q-33 -50 -80 -94t-102 -70q-57 -27 -129 -27q-129 0 -181 67q-53 68 -53 178q0 25 1 38q2 19 3 42h-16q-22 -56 -58 -120q-34 -60 -75 -104q-44 -47 -95 -74t-112 -27
q-66 0 -105 36q-41 38 -41 111q0 36 14 73q13 34 34 69q22 36 46 63q25 28 52 49l41 -19q-22 -43 -37 -103q-14 -55 -14 -103q0 -41 14 -61q15 -21 49 -21q36 0 69 20t68 70q42 62 68 126q25 61 55 167q16 67 19 83q7 38 9 57q1 11 4 40q1 11 1 33q0 63 -14 90
q-15 28 -58 28q-24 0 -47 -17q-24 -18 -48 -42q-16 -16 -44 -52q-20 -26 -33 -50l-43 24q29 55 67 104q38 50 90 92q46 38 107 65q58 26 117 26q123 0 170 -67t47 -195q0 -12 -2 -40q-2 -22 -6 -40h14q28 64 64 123q37 60 82 110q45 49 94 79q50 30 100 30q66 0 105 -36
t39 -103z" />
    <glyph glyph-name="y" unicode="y" horiz-adv-x="1036" 
d="M211 760q-23 0 -58 -29t-75 -104l-45 24q44 77 79 123q42 55 86 90q48 39 102 56q57 18 130 18q106 0 161 -67t77 -164q8 -39 18 -96q11 -61 18 -118q1 -4 7 -52t8 -73q6 -63 6 -114h16q65 107 102 191q36 82 36 161q0 35 -9 73q-7 30 -26 71l-21 42q-10 20 -10 44
q0 54 33 78t65 24q47 0 76 -31t29 -92q0 -115 -34 -224q-35 -114 -88 -219q-52 -104 -123 -206q-68 -97 -140 -183q-69 -82 -141 -154q-76 -77 -119 -114q-68 -62 -164 -108q-90 -43 -193 -43q-92 0 -137 46t-45 99q0 36 11 58q13 25 29 39q20 16 38 23q20 7 39 7
q57 0 80 -17q26 -20 53 -52q11 -12 41 -42q24 -24 59 -24q20 0 49 13q33 15 60 36q30 25 31 26l24 22q16 16 24 25q2 3 27 34q2 93 -9 192q-13 120 -28 221q-18 121 -34 205q-15 80 -29 141q-17 75 -32 111q-13 33 -54 33z" />
    <glyph glyph-name="z" unicode="z" horiz-adv-x="1110" 
d="M1120 862q0 -30 -20 -53q-22 -25 -47 -39q-1 -1 -6.5 -4t-12.5 -7t-15 -9q-43 -27 -55 -35q-26 -16 -56 -35q-11 -7 -36 -25q-30 -22 -99 -70q-52 -36 -121 -82q-23 -16 -65 -44.5t-57 -38.5q-40 -27 -102 -74q14 3 42 7q21 3 50 3q38 0 81 -4q54 -5 91 -14
q49 -11 92 -24t74 -13q40 0 69 13q28 13 56 59q18 33 33 78l53 -19q-16 -55 -52 -163q-25 -75 -69 -145q-40 -64 -102 -105q-59 -39 -150 -39q-79 0 -134 32t-109 86q-63 60 -96 86q-37 29 -81 29q-26 0 -44 -14t-35 -37q-15 -20 -31 -51l-29 -58q-17 -29 -36 -51t-58 -22
q-33 0 -49 21q-17 22 -17 46q0 28 19 50q17 20 49 44l154 115l534 389q-18 -7 -57 -15q-36 -7 -62 -7q-28 0 -64 2q-24 1 -54 8q-32 7 -56 16q-22 8 -65 27q-51 21 -85 36q-42 19 -69 19q-42 0 -67 -28t-25 -74q0 -27 8 -43q6 -13 17 -19q16 39 44 63q29 25 64 25
q45 0 75 -27t30 -81q0 -41 -32 -76t-85 -35q-36 0 -70 14t-59 39q-27 27 -42 68q-16 43 -16 96q0 65 24 117q24 53 64 90t92 58q50 20 107 20q81 0 135 -28t97 -74q3 -3 41 -44q22 -24 46 -43t48 -33q25 -14 47 -14q123 0 168 156q11 36 38 60t62 24q46 0 68 -28
q20 -26 20 -52z" />
    <glyph glyph-name="quoteleft" unicode="&#x2018;" horiz-adv-x="507" 
d="M618 1325q-49 -11 -90 -28q-47 -19 -75 -36q-32 -19 -54 -41q-20 -20 -20 -40q0 -18 13 -25q16 -9 30 -14q51 -21 81 -63q29 -41 29 -101q0 -71 -48 -115q-47 -43 -111 -43q-79 0 -128 52q-50 53 -50 143q0 127 104 224q105 98 303 144z" />
    <glyph glyph-name="quoteright" unicode="&#x2019;" horiz-adv-x="507" 
d="M618 1188q0 -127 -104 -224q-106 -99 -303 -145l-16 58q54 13 89 27q45 18 76 37q32 19 54 41q20 20 20 40q0 18 -13 25q-16 9 -30 14q-52 21 -81 62t-29 102q0 70 50 114q49 43 120 43q77 0 122 -52t45 -142z" />
    <glyph glyph-name="quotedblleft" unicode="&#x201c;" horiz-adv-x="937" 
d="M1049 1325q-51 -12 -91 -28q-47 -19 -75 -36q-32 -19 -54 -41q-20 -20 -20 -40q0 -18 13 -25q16 -9 30 -14q51 -21 81 -63t30 -101q0 -71 -49 -115q-47 -43 -111 -43q-79 0 -128 52q-50 53 -50 143q0 127 104 224q105 98 303 144zM618 1325q-49 -11 -90 -28
q-47 -19 -75 -36q-32 -19 -54 -41q-20 -20 -20 -40q0 -18 13 -25q16 -9 30 -14q51 -21 81 -63q29 -41 29 -101q0 -71 -48 -115q-47 -43 -111 -43q-79 0 -128 52q-50 53 -50 143q0 127 104 224q105 98 303 144z" />
    <glyph glyph-name="quotedblright" unicode="&#x201d;" horiz-adv-x="937" 
d="M1049 1188q0 -126 -105 -224q-106 -99 -303 -145l-16 58q54 13 89 27q48 20 77 37t53 41q20 20 20 40q0 18 -13 25q-16 9 -30 14q-52 21 -81 62t-29 102q0 71 48 114q47 43 111 43q79 0 128 -52q51 -54 51 -142zM618 1188q0 -127 -104 -224q-106 -99 -303 -145l-16 58
q54 13 89 27q45 18 76 37q32 19 54 41q20 20 20 40q0 18 -13 25q-16 9 -30 14q-52 21 -81 62t-29 102q0 71 48 114q47 43 111 43q79 0 128 -52q50 -53 50 -142z" />
  </font>
</defs>
</svg>
