<?xml version="1.0" standalone="no"?>
<!DOCTYPE svg PUBLIC "-//W3C//DTD SVG 1.1//EN" "http://www.w3.org/Graphics/SVG/1.1/DTD/svg11.dtd" >
<svg xmlns="http://www.w3.org/2000/svg" xmlns:xlink="http://www.w3.org/1999/xlink" version="1.1">
<metadata>
Created by FontForge 20170731 at Thu Dec 17 06:39:32 2020
 By Aleksey,,,
Copyright (c) 2014 Commercial Type.
</metadata>
<defs>
<font id="AustinText-BoldItalic" horiz-adv-x="354" >
  <font-face 
    font-family="Austin Text Bold"
    font-weight="700"
    font-style="italic"
    font-stretch="normal"
    units-per-em="2048"
    panose-1="0 0 0 0 0 0 0 0 0 0"
    ascent="1638"
    descent="-410"
    x-height="924"
    cap-height="1348"
    bbox="-492 -557 2351 1403"
    underline-thickness="75"
    underline-position="-269"
    slope="-14"
    unicode-range="U+000D-201D"
  />
<missing-glyph 
 />
    <glyph glyph-name=".notdef" 
 />
    <glyph glyph-name=".null" horiz-adv-x="0" 
 />
    <glyph glyph-name="nonmarkingreturn" unicode="&#xd;" 
 />
    <glyph glyph-name="NULL" horiz-adv-x="0" 
 />
    <glyph glyph-name="NULL" horiz-adv-x="0" 
 />
    <glyph glyph-name="space" unicode=" " 
 />
    <glyph glyph-name="comma" unicode="," horiz-adv-x="493" 
d="M283 102q0 -67 -37 -129t-98 -117t-140 -98q-72 -39 -166 -69l-20 57q47 16 95 39q52 25 92 51q48 31 70 53q27 27 27 48q0 17 -9 24t-21 12q-45 15 -81 54t-36 92q0 40 15 70t40 49q23 17 54 27q28 9 57 9q70 0 114 -47t44 -125z" />
    <glyph glyph-name="hyphen" unicode="-" horiz-adv-x="690" 
d="M561 449h-452l36 159h451z" />
    <glyph glyph-name="period" unicode="." horiz-adv-x="481" 
d="M285 123q0 -60 -40 -106t-112 -46q-71 0 -111 46t-40 106t40 104q41 45 111 45q71 0 112 -45q40 -44 40 -104z" />
    <glyph glyph-name="zero" unicode="0" horiz-adv-x="1171" 
d="M475 -23q-101 0 -179 35q-79 36 -127 94q-52 63 -75 139q-24 79 -24 169q0 166 59 299q60 134 155 231q96 98 214 150q120 53 235 53q103 0 178 -34q78 -35 127 -93q53 -62 76 -139q25 -83 25 -170q0 -165 -60 -298q-62 -137 -154 -231q-94 -95 -214 -150
q-121 -55 -236 -55zM475 47q51 0 82 23q33 24 64 63q43 55 84 147q41 94 72 197q32 107 51 220q20 117 20 214q0 75 -26 122q-25 46 -89 46q-53 0 -82 -22q-30 -23 -63 -66q-44 -56 -84 -145q-43 -96 -73 -197q-31 -106 -51 -221q-20 -117 -20 -215q0 -73 27 -120
q27 -46 88 -46z" />
    <glyph glyph-name="one" unicode="1" horiz-adv-x="720" 
d="M479 301q-4 -15 -9.5 -41t-7.5 -36q-7 -29 -7 -62q0 -63 55 -90q31 -11 49 -14q32 -5 47 -5l-14 -53h-678l12 53q11 1 55 7q30 4 50 16q25 12 39 23q15 12 34 36q17 23 32 61q17 41 32 99l137 557q14 54 16 61q4 20 13 62q4 25 -1 37q-4 9 -18 16q-12 3 -25 5
q-25 4 -42 5q-8 1 -22 2.5t-21 1.5q-5 0 -11.5 0.5t-10 1t-5.5 0.5l15 54q9 0 53 2q12 1 72 5q58 4 84 7q14 2 43 4.5t44 3.5q22 2 47 6q34 6 55 8q38 4 50 5q6 0 13 0.5t10.5 1t5.5 0.5q20 0 20 -23q0 -6 -5 -26q-6 -23 -12 -43q-14 -45 -16 -52q-11 -40 -14 -53z" />
    <glyph glyph-name="two" unicode="2" horiz-adv-x="1107" 
d="M246 258q82 69 174 141q98 77 169 151q79 82 127 165q50 86 50 184q0 172 -164 172q-64 0 -115 -25t-93 -70q-37 -40 -63 -103q-24 -59 -24 -123q0 -111 88 -111q53 0 89 36q36 37 65 83l45 -23q-17 -40 -45 -77t-67 -68q-39 -32 -86 -49q-51 -19 -103 -19q-79 0 -131 52
q-53 53 -53 147q0 77 33 150q35 78 102 139q66 60 167 100q99 39 228 39q123 0 208 -24q87 -24 136 -62q52 -40 74 -90t22 -109q0 -74 -33 -136q-34 -63 -90 -121q-51 -53 -126 -102q-65 -43 -142 -83q-23 -11 -65 -32l-70 -35q-22 -11 -90 -43q-48 -22 -125 -54l2 -10h315
q86 0 139 24q49 23 87 52q36 27 66 65q32 40 48 64h60l-187 -453h-944q41 30 73 55q13 10 38.5 31t32.5 26q11 8 37 29.5t42 34.5q21 17 99 82z" />
    <glyph glyph-name="three" unicode="3" horiz-adv-x="1007" 
d="M946 907q0 -56 -35 -108q-36 -54 -94 -97q-59 -44 -139 -79q-87 -38 -172 -60v-10q90 12 167 3q76 -9 133 -36t88 -71q32 -46 32 -103q0 -88 -47 -156q-46 -67 -128 -114q-85 -49 -190 -72q-108 -24 -229 -24q-90 0 -152 22q-64 23 -105 58q-43 37 -62 81t-19 90
q0 61 37 99q37 39 94 39q65 0 95 -33t30 -86q0 -27 -5 -44q-1 -3 -16 -44q-8 -20 -13 -30q-7 -14 -7 -32q0 -30 39 -42q36 -11 78 -11q142 0 214 91q72 92 72 241q0 77 -40 104q-41 27 -95 27q-29 0 -48 -6q-15 -5 -42 -19l-68 -36l-28 53l131 69q75 42 117 75q44 34 76 77
q30 40 42 92q13 55 13 119q0 60 -34 101q-34 42 -106 42q-42 0 -81 -13q-42 -14 -74 -40t-53 -67t-21 -93q0 -48 29 -79q28 -29 76 -29q26 0 46 10q17 8 38 26q19 16 31 32q18 24 22 32l41 -27q-12 -23 -37 -55q-21 -27 -60 -57q-36 -28 -77 -45q-46 -19 -95 -19
q-85 0 -129 50q-43 49 -43 128q0 59 32 117q33 59 89 102q58 44 134 71q79 28 169 28q98 0 172 -20q73 -20 118 -53q48 -36 68 -77q21 -43 21 -92z" />
    <glyph glyph-name="four" unicode="4" horiz-adv-x="1081" 
d="M360 135q17 23 32 61q17 41 32 99l18 80h-448l16 63l723 697h187q20 0 16 -21q-3 -15 -20 -72q-14 -49 -27 -104l-127 -494h43q54 0 84 12q32 13 47 29q20 21 37 54q3 7 28 63h54l-105 -389h-51q5 39 6 75q2 38 -8 58q-11 20 -42 24q-35 5 -67 5h-45l-18 -74
q-4 -15 -9.5 -41t-7.5 -36q-8 -34 -8 -62q0 -33 14 -55q13 -20 40 -35q31 -11 50 -14q33 -5 48 -5l-14 -53h-668l14 53q11 1 55 7q29 4 48 16q25 12 40 23t33 36zM559 870l-448 -426h350l104 426h-6z" />
    <glyph glyph-name="five" unicode="5" horiz-adv-x="993" 
d="M344 -23q-93 0 -159 21q-68 22 -110 55q-46 36 -66 78q-21 43 -21 90q0 61 36 101q36 41 97 41q65 0 95 -36t30 -89q0 -26 -7 -43q-9 -23 -18 -41q-1 -4 -3.5 -9t-4 -9t-2.5 -7q-4 -9 -4 -27q0 -25 37 -41q36 -16 100 -16q113 0 182 84q70 85 70 264q0 112 -49 165
q-50 54 -142 54q-74 0 -121 -33q-52 -36 -81 -81l-64 26l236 600h59q42 -17 102 -31q59 -14 136 -14q60 0 103 15q48 17 77 35q27 17 53 47q21 24 33 45l57 -15q-24 -84 -60 -153q-37 -70 -86 -121q-50 -51 -119 -80q-70 -29 -159 -29q-49 0 -116 6q-65 6 -113 17l-86 -217
l6 -2q49 31 109 52q62 21 149 21q105 0 176 -26q75 -28 121 -72q49 -47 69 -103q21 -59 21 -122q0 -86 -41 -159q-42 -74 -115 -127q-75 -54 -179 -84t-228 -30z" />
    <glyph glyph-name="six" unicode="6" horiz-adv-x="1099" 
d="M1143 948q0 -66 -35 -103q-34 -36 -94 -36q-59 0 -89 33t-30 80q0 21 4 36q5 16 12 33l13 29q6 15 6 24q0 33 -66 33t-124 -29q-61 -30 -114 -85q-56 -58 -97 -132q-40 -74 -68 -167h10q41 41 99 56q59 15 112 15q86 0 148 -25t104 -67q40 -40 60 -94t20 -109
q0 -93 -34 -176q-35 -85 -102 -146q-70 -64 -172 -101t-241 -37q-109 0 -183 34q-75 35 -122 89q-49 57 -69 123q-21 69 -21 137q0 179 74 323q75 146 191 248t256 159q139 56 273 56q74 0 129 -19q53 -18 87 -48q33 -29 48 -65t15 -69zM717 526q0 69 -29 100q-28 29 -76 29
q-51 0 -90 -30q-37 -29 -63 -72q-23 -41 -42 -90t-33 -99q-13 -47 -21 -99q-9 -58 -9 -85q0 -133 113 -133q52 0 88 28q33 26 55 62q26 49 44 97q16 43 34 106q14 48 22 101q7 45 7 85z" />
    <glyph glyph-name="seven" unicode="7" horiz-adv-x="911" 
d="M1047 1077q-99 -117 -174 -225t-132 -216q-55 -104 -100 -216q-45 -110 -74 -227q-29 -101 -70 -160q-42 -60 -128 -60q-82 0 -118 45t-36 103q0 69 47 149q46 79 107 146q48 54 104 109q80 78 120 118q2 2 119 116q61 59 101 105v8h-401q-31 0 -63 -4q-40 -5 -66 -18
q-38 -16 -69 -47q-27 -27 -60 -78h-62l170 467h47q6 -23 29 -44q24 -22 72 -22h651z" />
    <glyph glyph-name="eight" unicode="8" horiz-adv-x="1019" 
d="M975 903q0 -42 -20 -80q-19 -37 -51 -67q-36 -35 -75 -56q-51 -28 -88 -43q36 -24 68 -51q36 -29 63 -64q30 -38 47 -79t17 -92q0 -82 -36 -154q-36 -73 -102 -125q-68 -54 -162 -84q-98 -31 -212 -31q-184 0 -291 71q-106 70 -106 200q0 51 23 90q24 40 63 75
q36 31 89 59q49 25 101 42q-24 16 -52 44q-26 26 -46 59q-22 35 -33 77q-12 44 -12 97q0 89 41 157q41 69 107 112q65 43 150 66q84 23 167 23q156 0 253 -66t97 -180zM676 197q0 38 -22 73t-61 65q-43 34 -95 63q-7 4 -123 71q-33 -13 -61 -30q-32 -19 -54 -44
q-26 -30 -40 -61q-15 -34 -15 -84q0 -102 65 -152q66 -51 154 -51q56 0 99 7q46 7 80 25q33 17 53 46t20 72zM401 928q0 -34 23 -65q24 -32 59 -57q39 -28 85 -54q32 -18 102 -54q59 32 98 88t39 119q0 81 -42 127q-42 47 -142 47q-99 0 -160 -40q-62 -41 -62 -111z" />
    <glyph glyph-name="nine" unicode="9" horiz-adv-x="1097" 
d="M416 602q0 -70 28 -99q28 -30 76 -30q51 0 90 30q42 32 64 72q21 38 42 91q20 50 33 99t21 98q8 51 8 85q0 133 -112 133q-54 0 -88 -27q-34 -26 -56 -63q-25 -47 -44 -98q-16 -43 -34 -106q-12 -42 -21 -101q-7 -46 -7 -84zM-8 182q0 64 36 102t95 38t88 -33
q29 -34 29 -80q0 -22 -4 -37q-3 -11 -13 -33l-12 -28q-6 -15 -6 -25q0 -17 22 -26q23 -9 58 -9q63 0 122 30t108 85q51 57 90 131t67 168h-11q-41 -41 -99 -56q-62 -16 -111 -16q-85 0 -149 26q-62 25 -103 66t-61 94q-19 51 -19 107q0 91 34 174q35 86 101 149
q68 65 171 102q105 38 243 38q104 0 182 -35q76 -34 123 -90q48 -57 68 -124q22 -72 22 -136q0 -118 -33 -222t-90 -192q-54 -84 -134 -156q-76 -69 -163 -116q-88 -48 -178 -73t-180 -25q-78 0 -134 19q-58 20 -92 48t-51 65q-16 35 -16 70z" />
    <glyph glyph-name="A" unicode="A" horiz-adv-x="1406" 
d="M737 147q17 29 30 72q13 42 19 131l9 142h-367l-104 -166q-35 -53 -57 -91q-23 -40 -23 -81q0 -55 49 -76q29 -13 51 -17q4 -1 57 -8l-14 -53h-530l10 53q44 6 121 45q43 27 99 79q52 49 120 155l672 1016h301l-56 -1002q-4 -55 -3 -85q1 -28 3 -52q1 -60 19 -89
q17 -28 53 -44q47 -19 84 -23l-14 -53h-721l14 53q52 6 88 23q30 11 49 26t41 45zM481 575h320l37 533h-15z" />
    <glyph glyph-name="B" unicode="B" horiz-adv-x="1359" 
d="M-80 53q8 2 24 4t24 4q22 4 44 15q59 22 97 71q18 23 39 73q16 38 40 130l162 651q13 56 20 92q7 35 7 72q0 40 -16 66q-15 24 -44 39q-21 10 -46 16q-27 7 -42 8l15 54h633q458 0 458 -289q0 -76 -31 -132t-87 -97q-54 -39 -134 -64q-83 -26 -170 -37l-2 -10
q80 -11 150 -35q72 -25 120 -63q51 -40 79 -92t28 -119q0 -94 -42 -170t-119 -129q-79 -54 -188 -82q-113 -29 -249 -29h-782zM754 760q68 0 110 16q44 17 72 49q49 55 69 119q19 61 19 162q0 69 -40 112q-41 44 -122 44h-71q-22 0 -31 -7q-8 -5 -11 -14q-1 -3 -8 -22
l-112 -459h125zM662 84q139 0 209 112q69 111 69 296q0 38 -9 72q-9 35 -33 59t-62 37q-40 14 -101 14h-129l-78 -322q-14 -53 -22 -92q-6 -30 -6 -65q0 -58 26 -80q39 -31 99 -31h37z" />
    <glyph glyph-name="C" unicode="C" horiz-adv-x="1306" 
d="M1278 815h-51q0 125 -24 217q-25 95 -64 153q-40 60 -96 89q-55 29 -117 29q-88 0 -152 -45q-59 -42 -110 -113q-37 -49 -76 -134q-41 -88 -77 -199q-36 -110 -60 -238q-25 -131 -25 -248q0 -66 18 -120t56 -89q55 -49 149 -49q85 0 164 30q77 29 149 84q64 48 122 123
q54 69 92 148l53 -29q-40 -93 -107 -177q-69 -86 -148 -145q-82 -62 -177 -96q-96 -35 -193 -35q-126 0 -220 42q-95 42 -161 113q-63 68 -99 164q-34 92 -34 193q0 176 63 338t174 285q113 125 264 196q153 72 333 72q67 0 118 -13q55 -14 95 -35q39 -20 68 -46
q27 -24 44 -49h13l94 94h51z" />
    <glyph glyph-name="D" unicode="D" horiz-adv-x="1458" 
d="M911 1348q146 0 252 -44q103 -43 172 -116q70 -74 99 -167q30 -95 30 -196q0 -103 -25 -199q-26 -99 -69 -185q-44 -89 -103 -159q-62 -74 -130 -126q-86 -64 -205 -110q-120 -46 -281 -46h-743l12 53q8 2 24 4t24 4q22 4 44 15q59 22 97 71q18 23 39 73q16 38 40 130
l162 651q13 56 20 92q7 35 7 72q0 40 -16 66q-15 24 -44 39q-21 10 -46 16q-27 7 -42 8l15 54h667zM659 84q94 0 156 46q65 48 123 128q41 53 77 141q30 74 57 186q23 93 37 205q13 101 13 201q0 88 -14 134q-15 51 -45 79q-30 30 -73 44q-44 14 -111 14h-88q-29 0 -37 -11
q-9 -13 -13 -32l-213 -867q-14 -53 -22 -92q-6 -30 -6 -65q0 -28 6 -49t20 -31q31 -31 92 -31h41z" />
    <glyph glyph-name="E" unicode="E" horiz-adv-x="1337" 
d="M-80 53q8 2 24 4t24 4q22 4 44 15q35 13 55 27q21 15 44 44q23 27 39 72q12 34 38 131l162 651q13 56 20 92q7 35 7 72q0 40 -16 66q-15 24 -44 39q-21 10 -46 16q-27 7 -42 8l15 54h1104l-23 -443h-57q-5 36 -15 73q-14 50 -24 74q-17 40 -31 66q-16 30 -35 53
q-41 49 -85 69q-49 22 -117 22h-82q-65 0 -103 -29q-37 -28 -55 -107l-98 -389h73q86 0 131 17q44 17 78 49q49 46 67 82q21 42 38 86h55l-139 -553h-56q4 57 1 104q-3 44 -25 72q-19 25 -54 41t-118 16h-72l-76 -299q-15 -64 -22 -106q-6 -36 2 -70q12 -92 131 -92h96
q79 0 144 22t135 89q90 82 139 162q19 31 46.5 75t35.5 57h55l-139 -489h-1241z" />
    <glyph glyph-name="F" unicode="F" horiz-adv-x="1294" 
d="M639 0h-731l12 53q8 2 24 4t24 4q22 4 44 15q59 22 97 71q18 23 39 73q16 38 40 130l162 651q13 56 20 92q7 35 7 72q0 40 -16 66q-15 24 -44 39q-21 10 -46 16q-27 7 -42 8l15 54h1106l-31 -451h-55q-7 86 -37 158q-29 70 -66 119q-40 51 -94 69q-55 19 -119 19h-69
q-66 0 -104 -32q-37 -31 -54 -104l-90 -360h55q88 0 132 15q45 16 79 48q48 46 67 83q18 34 37 87h54l-140 -553h-53q4 51 2 105q-2 46 -24 74q-18 25 -54 40q-34 15 -110 15h-68l-82 -334q-9 -33 -21 -91q-7 -35 -7 -75t15 -64q14 -22 46 -40q26 -12 49 -16q39 -6 45 -7z
" />
    <glyph glyph-name="G" unicode="G" horiz-adv-x="1406" 
d="M907 342q12 48 14 67q3 24 3 46q0 36 -16 58q-15 21 -44 36q-20 11 -41 16q-7 2 -22 4.5t-19 3.5l13 54h657l-12 -54q-60 -6 -86 -16q-18 -6 -38 -16q-15 -7 -34 -33q-20 -25 -32 -59q-7 -20 -27 -99l-78 -319h-45q-6 6 -33 24q-23 15 -55 15q-14 0 -37 -5
q-11 -2 -43 -13q-15 -5 -43 -15q-6 -2 -12.5 -4.5t-13 -5.5t-9.5 -4q-45 -21 -110 -36q-69 -16 -121 -16q-115 0 -214 38q-95 37 -168 108q-70 69 -111 167q-40 96 -40 216q0 154 57 310q58 159 165 282q107 124 263 203q155 79 351 79q123 0 213 -42q91 -43 125 -101h16
l86 94h51l-125 -496h-51q2 233 -86 353q-88 121 -229 121q-87 0 -152 -48q-67 -50 -117 -122q-24 -33 -66 -122q-37 -78 -77 -198q-35 -104 -62 -242q-26 -132 -26 -254q0 -135 55 -206q25 -36 62 -52q36 -16 80 -16q67 0 110 13q46 14 80 46q32 30 46 69q18 49 28 87z" />
    <glyph glyph-name="H" unicode="H" horiz-adv-x="1593" 
d="M618 0h-710l12 53q8 2 24 4t24 4q22 4 44 15q59 22 97 71q18 23 39 73q16 38 40 130l162 651q13 56 20 92q7 35 7 72q0 40 -16 66q-15 24 -44 39q-21 10 -46 16q-27 7 -42 8l15 54h712l-12 -54q-40 -8 -42 -8q-15 -4 -38 -12q-27 -10 -52 -27q-23 -16 -46 -45
q-19 -23 -21 -28q-12 -24 -16 -35q-12 -33 -16 -50q-3 -11 -10 -35.5t-11 -37.5l-74 -295h476l75 299q16 71 18 82q5 32 5 63q0 42 -15 66t-44 39q-23 10 -39 15q-18 5 -37 9l12 54h715l-15 -54q-53 -6 -90 -22q-53 -21 -98 -74q-21 -27 -40 -72q-17 -40 -40 -129l-162 -651
q-6 -28 -19 -91q-7 -35 -7 -75t15 -64q14 -22 46 -40q26 -12 45 -16q31 -6 41 -7l-12 -53h-715l15 53q40 6 79 21q32 12 52 25q22 14 45 44q13 17 20 30q14 29 17 36q12 35 17 50q7 24 19 73l76 305h-475l-78 -309q-13 -57 -17 -82q-5 -32 -5 -66q0 -40 15 -64
q14 -22 46 -40q23 -11 37 -15q6 -2 37 -8z" />
    <glyph glyph-name="I" unicode="I" horiz-adv-x="778" 
d="M526 346q-9 -33 -21 -91q-7 -35 -7 -75t15 -64q14 -22 46 -40q26 -12 45 -16q31 -6 41 -7l-12 -53h-725l12 53q8 2 24 4t24 4q22 4 44 15q59 22 97 71q18 23 39 73q16 38 40 130l162 651q13 56 20 92q7 35 7 72q0 40 -16 66q-15 24 -44 39q-21 10 -46 16q-27 7 -42 8
l15 54h725l-15 -54q-48 -6 -90 -22q-53 -21 -98 -74q-21 -27 -40 -72q-17 -40 -40 -129z" />
    <glyph glyph-name="J" unicode="J" horiz-adv-x="1058" 
d="M635 1001q5 21 19 92q8 40 8 72q0 78 -60 105q-20 9 -45 16t-41 8l14 54h723l-12 -54q-50 -6 -92 -22q-53 -21 -98 -74q-21 -27 -40 -72q-16 -38 -38 -129l-148 -596q-23 -91 -70 -168q-47 -76 -119 -136q-68 -57 -165 -92q-93 -34 -207 -34q-90 0 -154 24
q-67 25 -107 62t-62 89q-21 50 -21 102q0 90 51 141t125 51q65 0 111 -37q47 -38 47 -120q0 -54 -9 -78q-3 -7 -6 -15t-6.5 -16t-5.5 -12q-11 -18 -18 -36q-8 -19 -8 -34q0 -19 17 -32t46 -13q42 0 66 12t47 41q26 32 46 76q19 42 40 127z" />
    <glyph glyph-name="K" unicode="K" horiz-adv-x="1501" 
d="M1169 391q4 -80 13 -143q8 -53 23 -81t36 -35q20 -7 49 -7q42 0 73 34q32 35 52 72l49 -24q-16 -42 -43 -80q-31 -44 -73 -76q-45 -35 -108 -57q-64 -23 -144 -23q-84 0 -137 29q-50 27 -80 76q-28 45 -40 107q-13 63 -14 124q-2 54 -3 89q0 11 -0.5 32t-1.5 30
q-1 17 -1 48q0 13 -2 49q-5 59 -27 79q-24 21 -65 21q-35 0 -71 -15t-66 -42l-62 -252q-9 -33 -21 -91q-7 -35 -7 -75t15 -64q14 -22 46 -40q26 -12 45 -16q31 -6 41 -7l-14 -53h-723l12 53q8 2 24 4t24 4q22 4 44 15q59 22 97 71q18 23 39 73q16 38 40 130l162 651
q13 56 20 92q7 35 7 72q0 40 -16 66q-15 24 -44 39q-21 10 -46 16q-27 7 -42 8l15 54h725l-13 -54q-50 -6 -92 -22q-53 -21 -98 -74q-21 -27 -40 -72q-17 -40 -40 -129l-70 -284l416 350q63 55 96 87t33 71q0 29 -13 39q-14 11 -34 18q-27 9 -39 10q-16 1 -37 6l11 54h561
l-15 -54q-15 -3 -84 -20q-49 -12 -90 -33q-27 -12 -54 -27q-44 -24 -62 -37q-37 -26 -82 -62q-55 -45 -111 -95l-348 -281v-12q22 11 57 18q41 9 66 9q56 0 109 -16q49 -15 87 -56q37 -40 60 -112q21 -67 26 -179z" />
    <glyph glyph-name="L" unicode="L" horiz-adv-x="1271" 
d="M526 352q-14 -53 -22 -92q-6 -30 -6 -65q0 -27 9 -48q9 -20 23 -30q16 -15 36 -24t63 -9h55q76 0 136 23t128 88q88 80 138 162q52 85 81 132h56l-140 -489h-1175l12 53q8 2 24 4t24 4q22 4 44 15q35 13 55 27q21 15 44 44q23 27 39 72q12 34 38 131l162 651q13 56 20 92
q7 35 7 72q0 40 -16 66q-15 24 -44 39q-21 10 -46 16q-27 7 -40 8l13 54h725l-13 -54q-50 -6 -92 -22q-53 -21 -98 -74q-21 -27 -40 -72q-17 -40 -40 -129z" />
    <glyph glyph-name="M" unicode="M" horiz-adv-x="1783" 
d="M1946 1294q-50 -6 -91 -22q-53 -21 -98 -74q-21 -27 -40 -72q-17 -40 -40 -129l-159 -651q-14 -63 -20 -91q-7 -35 -7 -75q0 -76 59 -104q26 -12 45 -16q31 -6 41 -7l-12 -53h-709l15 53q8 2 24 4.5t24 3.5q20 4 42 13q31 12 50 27q20 15 36 42q21 26 37 70q13 36 31 113
l204 825h-16l-631 -1159h-149l-70 1159h-16l-191 -774q-12 -43 -21 -107q-8 -54 -8 -80q0 -53 23 -84q22 -29 57 -40q20 -5 38 -8q27 -4 44 -5l-16 -53h-516l14 53q16 1 37 6q19 4 37 9q31 11 54 25q25 14 52 48q26 31 51 84q29 61 52 156l149 580q7 30 18 74q7 26 10 52
q2 12 4 41q1 12 1 41q0 48 -20 71q-21 24 -64 40q-6 2 -18 4.5t-15 3.5q-18 4 -45 6l13 54h600l47 -842h16l471 842h590z" />
    <glyph glyph-name="N" unicode="N" horiz-adv-x="1398" 
d="M920 -16l-414 1101h-19l-176 -708q-18 -72 -24 -117t-6 -74q0 -55 23 -82t58 -38q20 -5 39 -8q30 -4 45 -5l-12 -53h-522l14 53q16 1 37 6q19 4 37 9q32 12 53 25q25 16 53 48q24 28 50 84q25 52 53 156l145 569q19 71 28 117q7 36 7 82q0 48 -25 80q-25 33 -71 51
q-6 2 -19 4.5t-17 3.5q-19 4 -44 6l12 54h541l319 -834h15l108 455q16 57 24 108q7 48 7 80q0 55 -22 84q-23 30 -58 41q-12 3 -38 7q-27 4 -44 5l13 54h499l-12 -54q-17 -2 -38 -6q-26 -5 -38 -10q-32 -12 -51 -26q-21 -15 -47 -46q-8 -10 -22 -30q-3 -5 -22 -47
q-12 -28 -24 -67q-4 -14 -26 -97l-246 -981h-143z" />
    <glyph glyph-name="O" unicode="O" horiz-adv-x="1413" 
d="M905 1374q114 0 210 -38q95 -38 163 -107q66 -67 104 -167q37 -96 37 -216q0 -107 -23 -205q-24 -103 -68 -198t-110 -178q-64 -80 -153 -144q-91 -65 -211 -108q-118 -42 -250 -42q-114 0 -210 38q-94 37 -163 108q-66 67 -104 167q-37 96 -37 216q0 97 23 203
q23 107 67 199q46 97 111 178q69 86 151 145q88 64 212 107q120 42 251 42zM905 1303q-77 0 -133 -40q-57 -41 -104 -110q-32 -41 -70 -127q-43 -96 -79 -209q-38 -121 -65 -256q-28 -142 -28 -268q0 -125 46 -187q46 -63 134 -63q75 0 131 40q60 43 105 112q26 36 67 126
q43 93 80 208q42 129 67 256q27 137 27 268q0 124 -46 186q-47 64 -132 64z" />
    <glyph glyph-name="P" unicode="P" horiz-adv-x="1247" 
d="M647 0h-739l12 53q8 2 24 4t24 4q22 4 44 15q59 22 97 71q18 23 39 73q16 38 40 130l162 651q13 56 20 92q7 35 7 72q0 40 -16 66q-15 24 -44 39q-21 10 -46 16q-27 7 -42 8l15 54h663q125 0 209 -27q83 -27 135 -71q51 -44 72 -103q20 -57 20 -123q0 -56 -20 -106
q-23 -57 -55 -102q-32 -44 -82 -88q-41 -36 -103 -66q-67 -33 -151 -51q-88 -19 -238 -19h-18q-21 0 -33 1t-35 1h-20l-64 -250q-12 -51 -18 -87t-6 -71q0 -80 59 -108q25 -12 52 -17q34 -7 48 -8zM793 1262q-22 0 -31 -9q-14 -9 -21 -36l-133 -537q11 0 20 -1t28 -1h29h17
q79 0 126 22q49 23 83 72q52 74 73 162q22 94 22 184q0 69 -34 106q-35 38 -106 38h-73z" />
    <glyph glyph-name="Q" unicode="Q" horiz-adv-x="1404" 
d="M641 -303q-81 59 -105 75q-42 29 -89 52q-41 21 -80 31q-37 10 -82 10q-27 0 -52 -11q-26 -12 -26 -34q0 -12 16 -27q21 -19 27 -26q13 -15 23 -34q10 -20 10 -52q0 -60 -38 -90q-36 -29 -87 -29q-53 0 -93 31t-40 104q0 61 27 104q26 41 66 72q36 27 78 46t62 28l90 33
q28 10 103 32v8q-166 46 -264 187q-97 139 -97 338q0 205 90 383t264 301q86 63 207 105q116 40 246 40q115 0 210 -36q96 -37 163 -102q65 -63 104 -162q37 -93 37 -214q0 -105 -22 -203q-22 -99 -68 -192t-111 -173q-66 -81 -153 -140q-63 -44 -134 -74q-81 -34 -128 -49
q-75 -21 -89 -25q-52 -15 -111 -30q-78 -20 -117 -31q-55 -15 -109 -33v-4q115 0 191 -7q77 -7 148 -20q59 -11 123 -31q103 -32 119 -38q131 -40 195 -58q85 -24 170 -24q53 0 87 17q36 18 61 46q26 29 44 65q28 55 35 72l55 -18q-25 -103 -67 -192q-42 -88 -96 -156
q-41 -47 -118 -83q-76 -36 -177 -36q-62 0 -119 18q-54 17 -116 52t-123 79q-25 18 -74.5 55.5t-65.5 49.5zM897 1303q-77 0 -129 -40q-54 -42 -100 -110q-29 -40 -68 -120q-43 -87 -80 -193q-39 -112 -66 -241q-28 -135 -28 -261q0 -122 44 -195q43 -71 132 -71
q73 0 129 41q57 41 103 110q25 34 68 124t80 204q41 129 66 251q27 134 27 265q0 123 -46 179q-47 57 -132 57z" />
    <glyph glyph-name="R" unicode="R" horiz-adv-x="1413" 
d="M786 1262q-16 0 -30 -9q-15 -12 -21 -39l-125 -503h80q78 0 128 20t89 68q51 68 71 147q21 82 21 176q0 67 -33 103q-34 37 -94 37h-86zM1077 -27q-82 0 -138 28q-55 27 -85 74q-31 48 -44 104t-13 122v73q0 23 -2 57q0 8 -1 16.5t-2.5 18.5t-2.5 16q-3 28 -9 55
q-10 48 -38 71t-85 23h-69l-68 -287q-13 -43 -20 -87q-6 -36 -6 -73q0 -80 59 -108q26 -12 48 -16q36 -6 44 -7l-14 -53h-729l12 53q8 2 24 4t24 4q22 4 44 15q55 21 98 71q21 26 40 73q15 36 38 130l162 651q13 56 20 92q7 35 7 72q0 78 -60 105q-21 10 -46 16q-27 7 -42 8
l15 54h653q123 0 210 -23q86 -23 136 -61q52 -40 73 -95t21 -118q0 -111 -68 -189q-70 -81 -180 -127q-50 -19 -95 -32q-45 -14 -120 -25v-12q53 -6 93 -20q39 -14 73 -40q49 -41 76 -94q29 -57 35 -141q6 -85 16 -130q11 -50 25 -74q16 -27 34 -34q21 -8 42 -8q32 0 62 32
t52 74l54 -26q-15 -34 -46 -78q-30 -42 -71 -75t-102 -56q-60 -23 -134 -23z" />
    <glyph glyph-name="S" unicode="S" horiz-adv-x="1120" 
d="M1079 901h-53q-1 99 -24 175q-21 71 -64 130q-30 42 -80 69q-53 28 -131 28q-95 0 -150 -46t-55 -133q0 -39 14 -73q15 -36 37 -64q23 -29 62 -60q46 -37 84 -65q79 -59 143 -112q61 -50 101 -103q38 -50 58 -108q19 -56 19 -131q0 -90 -38 -171q-37 -79 -106 -139
q-66 -57 -165 -93q-95 -34 -213 -34q-109 0 -211 44q-99 43 -160 124h-12l-108 -137h-47l108 518h53q11 -109 40 -196q30 -88 78 -151q46 -61 114 -96q65 -34 145 -34q112 0 178 42t66 138q0 50 -14 82q-15 35 -48 69q-24 25 -86 73q-56 43 -131 98q-62 49 -102 86
q-49 46 -80 91q-34 49 -51 104q-19 60 -19 124q0 85 34 162t99 136t157 93q94 35 210 35q64 0 112 -13q52 -14 90 -34q39 -20 67 -45q26 -23 42 -47h9l82 104h55z" />
    <glyph glyph-name="T" unicode="T" horiz-adv-x="1374" 
d="M815 346q-6 -28 -19 -91q-8 -40 -8 -75q0 -76 60 -104q26 -12 45 -16q32 -6 39 -7l-12 -53h-723l12 53q8 2 24 4t24 4q22 4 44 15q55 21 98 71q18 24 38 73q16 39 40 128l223 914h-41q-138 0 -253 -109q-47 -45 -59 -58q-38 -42 -55 -63q-57 -69 -58 -71q-20 -26 -62 -89
h-55l155 476h1268l-74 -476h-57q-12 83 -37 153q-24 66 -69 126q-45 54 -96 82q-53 29 -126 29h-43z" />
    <glyph glyph-name="U" unicode="U" horiz-adv-x="1458" 
d="M1253 438q-57 -233 -190 -350t-369 -117q-237 0 -369 102t-132 287q0 19 2 53q2 26 6 53q7 45 11 61q9 42 19 79l99 395q5 21 19 92q7 35 7 72q0 41 -15 65q-14 22 -46 40q-35 19 -78 24l12 54h717l-12 -54q-50 -6 -92 -22q-56 -21 -97 -74q-19 -25 -39 -72
q-17 -40 -40 -129l-123 -493q-16 -60 -23 -112q-8 -61 -8 -105q0 -98 62 -160q64 -64 186 -64q161 0 257 93q95 92 140 284l133 529q18 86 22 108q9 51 9 80q0 54 -24 84q-25 31 -58 41q-12 3 -38 7q-27 4 -44 5l14 54h492l-14 -54q-16 -1 -37 -6q-23 -5 -37 -10
q-29 -12 -50 -26q-19 -13 -46 -46q-8 -10 -22 -30q-6 -10 -23 -47q-15 -35 -25 -67q-16 -53 -25 -97z" />
    <glyph glyph-name="V" unicode="V" horiz-adv-x="1382" 
d="M1169 1020q42 63 58 92q24 44 24 82q0 30 -14 47q-16 19 -37 29q-23 10 -49 15q-24 5 -57 9l12 54h532l-12 -54q-40 -6 -113 -45q-41 -25 -50 -32q-24 -17 -53 -46q-34 -34 -58 -64q-35 -43 -66 -91l-659 -1016h-303l55 1001q4 55 3 85q-2 32 -3 53q-1 59 -19 88
q-16 26 -51 43q-20 9 -45 16t-39 8l13 54h720l-12 -54q-48 -6 -90 -22q-27 -10 -48 -27t-42 -45q-17 -30 -29 -72q-13 -47 -20 -131l-51 -757h14z" />
    <glyph glyph-name="W" unicode="W" horiz-adv-x="2095" 
d="M1890 1020q22 41 47 92q21 44 21 82q0 30 -14 47q-16 19 -37 29q-23 10 -49 15q-21 4 -58 9l15 54h536l-10 -54q-35 -7 -59 -13q-33 -8 -76 -32q-45 -24 -92 -77q-54 -61 -111 -156l-608 -1016h-303l47 838h-17l-495 -838h-303l55 1001q4 55 3 85q-2 32 -3 53
q-1 59 -19 88q-16 26 -51 43q-20 9 -45 16t-39 8l13 54h706l-14 -54q-43 -6 -74 -22q-27 -10 -48 -27t-42 -45q-17 -30 -29 -72q-13 -47 -20 -131l-51 -749h14l469 780q2 51 1 66q-2 24 -3 45q-1 58 -18 88q-14 25 -46 43q-22 13 -42 17q-29 6 -37 7l12 54h698l-12 -54
q-25 -5 -41 -9q-14 -4 -37 -13q-27 -10 -48 -27q-23 -18 -40 -45q-16 -28 -30 -72t-21 -131l-49 -749h14z" />
    <glyph glyph-name="X" unicode="X" horiz-adv-x="1361" 
d="M-131 0l10 53q5 1 13.5 2.5t15 3t11.5 2.5q12 3 34 9q37 15 56 26q27 16 40 25q66 43 124 94q52 46 116 107l291 284l-146 443q-6 18 -16 50.5t-15 46.5q-15 47 -32 68q-24 28 -43 41q-20 13 -45 23q-6 2 -18 4.5t-17 3.5l-37 8l12 54h699l-13 -54q-26 -1 -52 -6
q-28 -5 -42 -10q-31 -11 -43 -30q-12 -20 -12 -50q0 -22 6 -48q8 -35 22 -85l74 -221l205 198q58 55 85 88q32 40 32 80q0 28 -12 43t-37 25q-18 8 -35 11q-24 4 -35 5l12 54h518l-10 -54q-48 -6 -76 -18q-25 -10 -57 -26q-30 -15 -39 -23q-70 -45 -122 -91
q-41 -36 -111 -106l-287 -278l149 -467q16 -59 30 -91q14 -33 32 -57q23 -30 38 -44q13 -11 44 -23q25 -12 38 -13q4 0 15 -1.5t18 -2.5l-12 -53h-688l10 53q20 1 53 5q21 3 42 10q29 12 41 31t12 51q0 23 -4 46q-4 20 -23 85l-80 231l-200 -195q-67 -66 -92 -94
q-37 -43 -37 -86q0 -46 49 -67q22 -10 34 -12q24 -4 35 -5l-12 -53h-516z" />
    <glyph glyph-name="Y" unicode="Y" horiz-adv-x="1421" 
d="M854 346q-9 -33 -21 -91q-8 -40 -8 -75q0 -38 16 -64q14 -22 46 -40q26 -12 45 -16q31 -6 41 -7l-15 -53h-722l14 53q7 1 23 3.5t24 4.5q22 4 43 15q58 21 96 71q22 27 43 84q18 49 35 115l51 211l-145 530q-28 105 -81 150t-118 57l15 54h690l-15 -54q-2 0 -43 -7
q-24 -4 -43 -11q-23 -11 -42 -31t-19 -61q0 -32 10 -68q11 -40 21 -82l90 -336h14l231 318q59 81 77 116q22 42 22 78q0 28 -16 42t-37 24q-19 8 -35 11q-29 6 -37 7l14 54h502l-14 -54q-31 -5 -61 -12q-33 -8 -60 -22q-49 -24 -110 -79t-154 -188l-320 -438z" />
    <glyph glyph-name="Z" unicode="Z" horiz-adv-x="1239" 
d="M1329 1292l-938 -1208h154q92 0 163 14q78 15 156 80q107 86 173 161q72 82 102 126h55l-145 -465h-1102l12 55l934 1207h-162q-73 0 -144 -20q-69 -20 -153 -81q-60 -44 -113 -97q-55 -55 -108 -118h-57l141 402h1044z" />
    <glyph glyph-name="a" unicode="a" horiz-adv-x="1157" 
d="M860 150q0 -44 35 -44q19 0 45 16q24 15 50 41q27 27 51 58q30 39 49 68l40 -29q-43 -68 -76 -109q-45 -55 -88 -90q-48 -39 -104 -60t-121 -21q-72 0 -110 39q-39 41 -39 108q0 57 10 96h-12q-12 -22 -23 -38q-4 -5 -10.5 -14.5t-9.5 -14.5q-7 -10 -23 -30
q-12 -15 -30 -36q-45 -48 -111 -79t-127 -31q-46 0 -85 14q-44 16 -74 46q-31 31 -51 82q-19 48 -19 122q0 114 53 237q51 118 138 219q84 97 192 161q106 63 213 63q67 0 104 -30t43 -69h16q3 6 11 19.5t11 20.5q5 10 21 38h250l-135 -416q-37 -109 -63 -212
q-21 -82 -21 -125zM717 756q0 51 -19 72q-18 20 -47 20q-28 0 -63 -22q-33 -21 -78 -93q-36 -58 -71 -138q-28 -64 -60 -159q-27 -79 -42 -149q-15 -69 -15 -111q0 -46 16 -63q17 -19 39 -19q33 0 63 25q31 26 52 57q4 6 31 48q4 6 12.5 20t12.5 20q8 12 20 38q2 5 9.5 20.5
t12.5 25.5q18 38 50 116q22 53 40 111q16 50 27 100q10 44 10 81z" />
    <glyph glyph-name="b" unicode="b" horiz-adv-x="1044" 
d="M1010 633q0 -50 -17 -116q-15 -60 -44 -130q-27 -65 -64 -125q-38 -61 -80 -100q-90 -89 -194 -136q-101 -46 -228 -46q-96 0 -162 24q-62 23 -105 64q-40 38 -58 87q-17 45 -17 95q0 68 17 143q20 87 46 166l199 596q15 42 20 66q5 27 5 47q0 40 -27 63q-11 11 -36 17
q-13 3 -50 10l14 43h437q14 0 14 -12q0 -10 -10 -36l-21 -57q-2 -6 -7 -18.5t-7 -19.5q-3 -9 -13 -37q-16 -43 -16 -45q-1 -4 -7.5 -24.5t-10.5 -33.5l-103 -315h15q45 61 110 91q66 30 138 30q117 0 189 -74q73 -75 73 -217zM715 743q0 84 -68 84q-32 0 -58 -16
q-28 -17 -52 -41q-31 -33 -51 -68q-25 -44 -44 -84q-26 -53 -48 -113q-23 -63 -42 -131q-18 -65 -30 -128q-13 -67 -13 -105q0 -51 21 -72q22 -22 55 -22q55 0 99 41q45 42 85 119q24 50 43 101q26 71 47 141q24 80 39 153q17 80 17 141z" />
    <glyph glyph-name="c" unicode="c" horiz-adv-x="937" 
d="M922 717q0 -60 -34 -95q-34 -36 -91 -36q-55 0 -87 30t-32 78q0 20 4 35q1 2 4.5 15.5t5.5 21.5q4 16 6 30q2 18 2 25q0 37 -47 37q-46 0 -84 -37q-39 -38 -73 -98q-36 -56 -57 -99q-28 -59 -48 -119q-21 -64 -33 -125q-12 -63 -12 -116q0 -78 30 -128t113 -50
q91 0 168 60q75 59 129 145l37 -25q-72 -128 -184 -207t-287 -79q-75 0 -135 24q-57 23 -99 68t-62 102q-21 60 -21 131q0 77 23 146q23 70 62 135q37 63 86 116q52 57 97 91q99 71 184 100q91 31 166 31q133 0 201 -62t68 -145z" />
    <glyph glyph-name="d" unicode="d" horiz-adv-x="1153" 
d="M729 782q-5 41 -26 58q-20 16 -50 16q-33 0 -72 -25q-38 -24 -77 -92q-40 -69 -67 -138q-29 -74 -58 -160q-27 -82 -42 -151q-15 -70 -15 -114q0 -43 17 -63q18 -21 40 -21q30 0 58 23t50 57q36 53 58 91q20 34 45 89q26 55 51 119q29 74 43 120q18 59 30 108q8 35 15 83
zM588 229q-16 -31 -43 -76q-17 -28 -53 -69q-47 -50 -116 -77t-130 -27q-106 0 -162 68q-57 69 -57 200q0 81 26 159q26 79 73 156q48 78 107 142q54 58 132 114q70 51 144 77q78 28 146 28q46 0 76 -14t39 -23h6l86 268q16 39 21 66q4 21 4 47q0 40 -25 63q-11 11 -37 17
q-13 3 -51 10l14 43h441q16 0 16 -12q0 -11 -11 -36q-6 -13 -22 -57q-6 -15 -27 -75q-4 -12 -15.5 -45.5t-18.5 -55.5q-62 -177 -85 -248q-15 -44 -38.5 -114.5l-28.5 -85.5q-13 -39 -33.5 -104t-25.5 -81q-42 -135 -62 -212q-22 -86 -22 -125q0 -44 35 -44q19 0 45 16
q24 15 50 41q27 27 51 58q23 30 48 68l41 -29q-43 -68 -76 -109q-45 -55 -88 -90q-48 -39 -104 -60t-121 -21q-69 0 -109 40t-40 109q0 30 4 54q7 42 8 46h-12z" />
    <glyph glyph-name="e" unicode="e" horiz-adv-x="913" 
d="M827 266q-29 -54 -73 -107q-42 -51 -100 -92q-56 -40 -129 -64q-69 -23 -163 -23q-70 0 -129 22t-103 66q-46 46 -70 106q-25 62 -25 145q0 82 22 152q21 68 62 134q39 63 90 114q53 53 108 92q82 58 169 86q82 27 153 27q135 0 198 -45q62 -44 62 -123q0 -53 -31 -107
q-31 -55 -75 -84q-25 -17 -76 -43q-49 -24 -102 -44q-66 -25 -119 -42q-56 -19 -131 -37q-10 -59 -13 -86q-4 -39 -4 -75q0 -85 31 -122q30 -36 90 -36q58 0 102 17q49 19 87 47q39 29 72 68q26 31 58 79zM377 459q89 28 131 49q51 25 78 45q55 39 81 101q27 64 27 128
q0 76 -55 76q-36 0 -75 -28t-74 -79q-34 -49 -65 -126q-30 -73 -48 -166z" />
    <glyph glyph-name="f" unicode="f" horiz-adv-x="686" 
d="M567 813q-62 -240 -134 -469q-71 -225 -162 -399q-92 -175 -210 -278t-280 -103q-116 0 -195 53q-78 53 -78 158q0 59 33 92t80 33q60 0 84 -33q25 -34 25 -70q0 -32 -6 -62q-7 -35 -7 -50q0 -29 19 -42q18 -12 45 -12q52 0 87 26q33 25 64 83q64 114 128 369
q69 278 159 643q4 14 7 30q4 20 7 31h-165l26 90h166q28 91 77 184q49 91 117 161q70 72 160 113q92 42 211 42q139 0 208 -51t69 -138q0 -42 -31 -81q-30 -37 -86 -37q-54 0 -84 27q-31 28 -31 75q0 23 8 52q7 25 7 50q0 19 -14 31q-13 12 -46 12q-31 0 -66 -25
q-37 -26 -61 -77q-5 -9 -23 -50q-10 -23 -24 -66q-3 -11 -26 -92q-5 -18 -16.5 -61t-18.5 -69h231l-28 -90h-226z" />
    <glyph glyph-name="g" unicode="g" horiz-adv-x="1028" 
d="M565 870q-34 0 -64 -27q-29 -26 -48 -67q-16 -37 -25 -65q-13 -43 -24 -82q-10 -36 -17 -87q-6 -44 -6 -79q0 -45 17 -70q17 -26 59 -26q39 0 67 27q29 27 47 67q16 37 25 65q11 35 24 83q10 35 17 88q6 43 6 81q0 42 -19 67t-59 25zM319 -436q-85 0 -166 12t-144 39
q-61 26 -100 68q-38 41 -38 100q0 65 73 115q71 49 189 67v6q-63 29 -98 76q-33 45 -33 111q0 50 24 84q26 37 60 59q40 26 82 41q46 17 88 27q-45 35 -78 90t-33 127q0 88 40 152q42 67 103 106q63 41 136 60q75 20 141 20q69 0 132 -24q61 -23 106 -71h12q11 57 57 97
q47 41 113 41q62 0 105 -34t43 -93q0 -45 -29 -68q-28 -22 -62 -22q-64 0 -94 57q-12 22 -23 35q-11 14 -28 14q-15 0 -25 -14t-10 -45q0 -29 4 -48q1 -3 3.5 -17.5t4.5 -20.5q0 -3 2 -13l3 -15q2 -20 2 -32q0 -89 -41 -153q-42 -65 -104 -105q-64 -41 -137 -60
q-77 -20 -142 -20q-26 0 -78 10q-46 9 -72 9q-31 0 -57 -11q-29 -12 -29 -40q0 -16 13 -28q14 -13 41 -20q33 -9 71 -17q64 -13 103 -23q91 -23 186 -52q76 -23 127 -56q49 -31 72 -74q22 -41 22 -103q0 -86 -42 -151q-41 -63 -114 -107q-74 -45 -170 -65q-99 -21 -211 -21z
M319 -377q146 0 236 38q88 37 88 110q0 46 -66 73q-67 28 -223 62q-40 7 -63 13q-35 9 -60 18q-19 -3 -67 -13q-34 -7 -65 -26q-29 -17 -48 -49q-18 -30 -18 -72q0 -73 81 -114q80 -40 205 -40z" />
    <glyph glyph-name="h" unicode="h" horiz-adv-x="1175" 
d="M-18 0l4.5 13.5t9.5 32t13 42.5l60 186q6 17 33.5 104t44.5 138q2 6 83 255q61 189 74 226q18 54 52 158q15 42 20 66q5 27 5 47q0 40 -27 63q-11 11 -36 17q-13 3 -50 10l15 43h438q16 0 16 -12q0 -11 -11 -36l-21 -57q-2 -7 -7.5 -19.5t-7.5 -18.5q-3 -9 -13 -37
l-15 -45q-3 -8 -9 -27.5t-10 -30.5l-127 -385h12q37 53 83 91q44 37 89 59q42 21 90 31t82 10q98 0 139 -48q40 -47 40 -133q0 -47 -25 -130q-20 -67 -70 -193q-42 -105 -62 -176q-22 -77 -22 -97q0 -41 35 -41q17 0 43 16q25 16 52 41q37 35 57 58q27 31 51 68l41 -29
q-37 -59 -84 -109q-51 -55 -103 -90q-57 -39 -121 -60q-65 -21 -134 -21q-77 0 -116 36q-40 37 -40 105q0 28 10 65t27 85q21 60 37 97q8 19 23.5 58t17.5 45q16 40 39 99.5t30 76.5q27 67 27 103q0 22 -12 32q-13 11 -31 11q-21 0 -53 -16q-34 -17 -66 -52q-39 -43 -73 -98
t-74 -152q-16 -35 -39 -97q-38 -102 -50 -136q-20 -58 -50 -139q-17 -47 -35 -103h-299z" />
    <glyph glyph-name="i" unicode="i" horiz-adv-x="698" 
d="M692 1196q0 -62 -45 -106q-44 -43 -106 -43q-64 0 -107 43t-43 106t44 109q43 45 106 45q60 0 106 -44q45 -44 45 -110zM285 741q0 47 -41 47q-25 0 -71 -34q-44 -33 -101 -125l-43 24q78 136 192 203q115 68 223 68q82 0 112 -44q30 -43 30 -104q0 -36 -27 -125
q-28 -93 -67 -196q-18 -49 -39 -107q-24 -67 -32 -93q-13 -42 -21 -72q-7 -28 -7 -38q0 -41 35 -41q17 0 43 16q25 16 52 41q38 36 56 58q28 34 50 68l43 -29q-38 -61 -84 -110t-103 -89q-56 -40 -119 -60q-68 -22 -137 -22q-73 0 -113 37t-40 105q0 28 10 65t27 85
q21 59 37 98l40 102q3 8 14 35t17 43t17 43t14 35q12 29 23 67q10 33 10 49z" />
    <glyph glyph-name="j" unicode="j" horiz-adv-x="618" 
d="M698 1196q0 -62 -44 -106q-43 -43 -107 -43q-62 0 -105 43t-43 106q0 65 43 109q44 45 105 45q60 0 106 -44q45 -44 45 -110zM451 315q-45 -117 -90 -221q-49 -114 -76 -164q-41 -75 -74 -119q-44 -58 -76 -90q-61 -64 -154 -111q-91 -46 -200 -46q-57 0 -105 13
q-49 13 -85 39t-57 63q-21 38 -21 85q0 66 40 109t99 43q68 0 98 -37q31 -39 31 -78q0 -26 -5 -48q-4 -15 -16 -42q-6 -16 -9 -25q-5 -15 -5 -24q0 -35 41 -35t68 21q29 22 57 69q14 22 36 71q16 37 45 109q24 60 48 129q9 27 26.5 74t20.5 57q39 110 41 115q16 46 31 84
l36 98q33 91 41 116q7 22 18 58t15 48q15 46 15 65q0 47 -41 47q-25 0 -71 -34q-44 -33 -101 -125l-45 24q40 70 90 118q51 49 108 84q51 31 116 51q58 18 112 18q81 0 110 -44t29 -104q0 -28 -11 -71q-16 -62 -32 -110q-29 -87 -46 -135q-40 -114 -52 -145z" />
    <glyph glyph-name="k" unicode="k" horiz-adv-x="1155" 
d="M723 -20q-61 0 -109 36q-49 37 -49 105q0 61 11 99q16 56 24 83q11 43 14 55q7 31 7 50q0 41 -19 68q-18 26 -78 26h-80l-161 -502h-301l374 1155q16 54 19 66q6 24 6 47q0 40 -27 63q-11 11 -36 17q-13 3 -50 10l15 43h438q14 0 14 -12q0 -10 -10 -36
q-4 -10 -10.5 -29.5t-9.5 -27.5q-2 -7 -7.5 -19.5t-7.5 -18.5q-3 -9 -13 -37q-15 -43 -16 -45q-1 -4 -7.5 -24.5t-10.5 -33.5l-178 -551h61q43 0 78 16q33 15 57 39t42 51q7 11 18.5 29.5t13.5 22.5q8 13 19 31t18.5 29.5t12.5 19.5q18 27 46 55q27 27 65 45q40 19 97 19
q76 0 118 -47t42 -113q0 -72 -38 -113t-91 -41q-49 0 -82 24t-33 83q0 10 3 25q2 10 12 32q16 36 16 51t-16 15q-31 0 -61 -38q-22 -27 -72 -112q-25 -44 -64 -91q-34 -41 -88 -58v-9q113 -15 175 -65q62 -51 67 -150v-42q0 -22 -4 -42q0 -8 -1.5 -22.5t-1.5 -20.5v-32
q6 -41 39 -41q35 0 83 49q49 50 89 119l41 -27q-35 -58 -74 -106q-44 -53 -94 -90q-52 -38 -110 -60q-59 -22 -125 -22z" />
    <glyph glyph-name="l" unicode="l" horiz-adv-x="663" 
d="M424 455q-35 -103 -66 -197q-26 -79 -26 -113q0 -41 37 -41q22 0 54 16q26 13 59 41q34 29 59 59q29 34 51 69l41 -29q-38 -60 -82 -109q-50 -55 -100 -90q-55 -39 -122 -60q-66 -21 -143 -21q-78 0 -121 37q-45 39 -45 106q0 26 11 72q12 48 25 91q15 48 33 99
q7 19 18 51.5t14 42.5q1 3 3.5 11t7.5 23t10 29l42 126q9 28 28 82t26 75q4 12 24 70t29 86q9 26 22.5 66t18.5 55l9 27t7 19l2 7q13 36 19 66q4 21 4 47q0 40 -25 63q-11 11 -37 17q-13 3 -51 10l14 43h441q16 0 16 -12q0 -11 -11 -36q-6 -13 -22 -57q-2 -6 -7 -18.5
t-7 -19.5q-3 -9 -13 -37q-16 -43 -16 -45q-1 -4 -7.5 -24.5t-10.5 -33.5q-8 -22 -25 -71q-6 -17 -17 -53t-13 -43q-5 -15 -16.5 -51.5t-17.5 -57.5q-24 -76 -36 -113q-15 -49 -46 -144.5t-42 -129.5z" />
    <glyph glyph-name="m" unicode="m" horiz-adv-x="1798" 
d="M1176 121q0 28 10 65q13 49 26 85q21 60 37 97q8 19 23 58t18 45q58 144 68 169q24 60 24 95q0 43 -39 43q-26 0 -67 -35t-89 -101q-50 -68 -100 -163q-53 -101 -98 -217l-3.5 -10.5t-6 -19.5t-7.5 -23q-4 -13 -14 -42t-15 -44q-11 -33 -29 -81q-14 -36 -15 -42h-307
l160 471q12 36 31 91.5t24 71.5q22 65 22 101q0 43 -38 43q-24 0 -54 -21q-29 -20 -68 -75t-86 -144q-50 -95 -104 -231q-22 -54 -56 -149q-28 -79 -54 -158h-301q30 93 49 148q18 53 51 152q24 72 45 132q18 52 31 94q18 56 32 117q11 49 11 86q0 28 -11 45t-32 17
q-24 0 -71 -36q-45 -35 -101 -126l-43 24q78 136 180 203q103 68 209 68q82 0 110 -43q29 -44 29 -103q0 -55 -7 -96q-9 -51 -22 -109h15q46 95 100 163q51 64 107 109q52 42 105 60q55 19 99 19q47 0 78 -13q29 -12 45 -35q18 -26 22 -58q5 -38 5 -75q0 -35 -7 -73
q-9 -50 -22 -97h15q53 102 101 163q55 69 105 109q52 41 106 60q55 19 99 19q96 0 135 -48t39 -133q0 -52 -25 -130q-22 -70 -71 -193q-40 -100 -63 -176q-23 -75 -23 -97q0 -41 37 -41q17 0 43 16q25 16 52 41q32 30 56 58q31 36 52 68l41 -29q-37 -59 -84 -109
q-50 -53 -104 -90q-57 -39 -121 -60q-65 -21 -134 -21q-77 0 -116 36t-39 105z" />
    <glyph glyph-name="n" unicode="n" horiz-adv-x="1249" 
d="M1227 260q-38 -60 -85 -109q-52 -54 -105 -90q-57 -39 -121 -60t-134 -21q-76 0 -115 36q-40 37 -40 105q0 28 10 65t27 85q26 74 36 97q8 19 23 58t18 45q58 144 68 169q25 62 25 95q0 43 -39 43q-24 0 -54 -21q-26 -18 -70 -75q-39 -50 -88 -144q-50 -95 -104 -231
q-22 -54 -56 -149q-28 -79 -54 -158h-301q30 93 49 148q18 53 51 152q24 72 45 132q18 52 31 94q18 56 32 117q11 49 11 86q0 28 -11 45t-32 17q-24 0 -71 -36q-45 -35 -101 -126l-43 24q78 136 180 203q103 68 211 68q82 0 110 -43q29 -44 29 -103q0 -55 -7 -96
q-7 -42 -24 -109h15q96 192 206 272q109 79 203 79q96 0 135 -48t39 -133q0 -52 -25 -130q-22 -70 -71 -193q-42 -105 -62 -176q-22 -77 -22 -97q0 -41 35 -41q17 0 43 16q25 16 52 41q37 35 57 58q27 31 51 68z" />
    <glyph glyph-name="o" unicode="o" horiz-adv-x="1019" 
d="M399 -20q-82 0 -146 26q-68 28 -115 75t-73 115q-26 67 -26 146q0 126 52 242q53 118 140 196q72 66 177 105t213 39q79 0 145 -27t114 -75q47 -47 73 -114t26 -147q0 -121 -51 -240q-50 -117 -142 -198q-72 -66 -175 -105q-101 -38 -212 -38zM621 858q-32 0 -64 -19
q-33 -20 -68 -83q-23 -45 -54 -122q-30 -74 -54 -161q-25 -90 -41 -173q-16 -84 -16 -161q0 -92 75 -92q27 0 63 19q33 17 68 81q28 53 55 122q30 74 54 161q25 90 41 173q16 84 16 161q0 94 -75 94z" />
    <glyph glyph-name="p" unicode="p" horiz-adv-x="1189" 
d="M561 653q62 128 148 198q90 73 194 73q51 0 97 -15q49 -16 81 -48q37 -37 55 -92q19 -57 19 -144q0 -69 -17 -133q-19 -72 -49 -133q-29 -60 -75 -123q-43 -60 -94 -109q-69 -66 -159 -107q-87 -40 -200 -40q-53 0 -98 12q-46 12 -68 24l-51 -155q-4 -13 -10.5 -37
t-9.5 -34q-11 -38 -11 -64q0 -25 13 -51q10 -21 41 -37q24 -15 88 -21l-19 -53h-643l17 53q36 1 68 12t50 27q29 23 45 52q16 28 37 91q104 318 119 363q30 92 44 136q28 87 39 120q12 35 30 89q3 9 6.5 20t5.5 15.5t2 6.5q19 59 26 100q7 42 7 80q0 29 -10 45
q-11 17 -33 17q-27 0 -72 -36q-44 -35 -100 -126l-43 24q79 137 179 203q103 68 210 68q80 0 110 -44q31 -45 31 -104q0 -31 -4 -58q-2 -11 -4.5 -33.5l-3.5 -31.5h12zM862 737q0 46 -15 64t-44 18q-36 0 -62 -16q-25 -15 -53 -45q-16 -17 -35 -46q-15 -22 -35 -59
q-11 -20 -31 -62q-18 -38 -24 -59l-139 -428q16 -25 40 -41q25 -16 60 -16q48 0 88 35q38 34 72 86q25 41 58 114q34 75 59 150q24 70 44 161q17 77 17 144z" />
    <glyph glyph-name="q" unicode="q" horiz-adv-x="1064" 
d="M760 -139q-15 -43 -22 -71q-9 -36 -9 -64t10 -51q9 -21 39 -37q24 -15 84 -21l-16 -53h-637l18 53q35 2 71 12q36 11 54 27q17 12 25 21q11 12 18 27q15 30 18 37q4 10 19 52l125 361h-12q-17 -26 -40 -53q-14 -16 -63 -56q-48 -35 -99 -50q-53 -15 -103 -15
q-105 0 -159 67t-54 197q0 117 52 237q51 118 138 219q82 95 198 161q111 63 230 63q55 0 94 -15q42 -16 64 -37q23 -22 39 -50q13 -24 20 -54h21l166 150h59q0 -4 -15 -51l-40 -119q-7 -21 -26 -77t-30 -90q-10 -32 -31 -96t-31 -95q-7 -23 -64 -190q-22 -66 -55 -168
q-4 -13 -39 -121q-4 -14 -8 -25.5t-7 -17.5zM717 764q0 53 -20 73q-19 19 -48 19q-35 0 -69 -27q-37 -29 -76 -98q-35 -63 -66 -137q-32 -75 -58 -157q-26 -81 -42 -148t-16 -111q0 -47 16 -66q17 -20 37 -20q34 0 65 26q35 30 56 56q29 35 47 73q19 39 41 91q28 65 51 124
q32 83 43 119q20 64 29 103q10 44 10 80z" />
    <glyph glyph-name="r" unicode="r" horiz-adv-x="999" 
d="M516 535q45 117 85 189q41 74 83 120q39 43 84 62q43 18 88 18q74 0 123 -43t49 -129q0 -72 -37 -112t-100 -40q-94 0 -127 94q-14 34 -24 48q-9 12 -27 12q-13 0 -34 -24q-25 -28 -52 -80q-41 -78 -72 -149q-42 -98 -92 -233q-28 -68 -48 -130l-46 -138h-301
q30 93 49 148q18 53 51 152q24 72 45 132q18 52 31 94q18 56 32 117q11 49 11 86q0 28 -11 45t-32 17q-24 0 -71 -36q-45 -35 -101 -126l-43 24q78 136 180 203q103 68 209 68q38 0 66 -13q25 -12 40 -31q16 -20 20 -46q5 -30 5 -56q0 -51 -17 -119q-21 -84 -32 -124h16z
" />
    <glyph glyph-name="s" unicode="s" horiz-adv-x="819" 
d="M815 731q0 -48 -28 -79q-26 -29 -74 -29q-50 0 -78 25q-29 26 -29 67q0 37 1 47t1 31q0 25 -21 46t-77 21q-61 0 -95 -25t-34 -71q0 -51 40 -88q35 -32 124 -96q40 -31 79 -68q31 -30 56 -68q24 -36 35 -73q12 -39 12 -88q0 -69 -33 -125q-33 -55 -86 -96
q-50 -39 -123 -61q-69 -21 -143 -21q-72 0 -133 15q-62 15 -106 44q-43 29 -69 69q-26 41 -26 89q0 62 34 96q35 35 81 35q52 0 80 -31q26 -29 26 -78q0 -38 -7 -58t-7 -50q0 -36 34 -51q35 -15 93 -15q68 0 112 27t44 86q0 26 -8 45q-8 20 -26 39q-16 17 -54 47
q-10 8 -40.5 30.5t-50.5 38.5q-69 57 -110 116t-41 153q0 71 31 130q28 54 80 93q49 37 109 55q63 19 120 19q51 0 113 -10q55 -9 98 -31q41 -21 69 -60q27 -37 27 -92z" />
    <glyph glyph-name="t" unicode="t" horiz-adv-x="735" 
d="M360 147q0 -43 35 -43q19 0 51 16q34 17 63 42q37 31 63 59q34 35 55 68l41 -29q-39 -62 -83 -109q-50 -53 -104 -90q-57 -39 -125 -60t-143 -21q-77 0 -120 37q-44 38 -44 104q0 26 9 68q7 35 25 91q14 44 33 97q21 57 34 92l126 344h-155l31 90h155l99 277h294
l-92 -277h211l-31 -90h-210l-125 -360q-48 -139 -68 -201q-25 -80 -25 -105z" />
    <glyph glyph-name="u" unicode="u" horiz-adv-x="1257" 
d="M956 152q0 -46 37 -46q19 0 45 16q27 17 53 40q27 24 54 57q23 28 49 68l41 -27q-73 -120 -171 -199t-237 -79q-77 0 -117 45q-40 44 -40 108q0 48 7 84q9 49 23 96h-18q-50 -96 -102 -161q-52 -64 -103 -103t-102 -54t-101 -15q-69 0 -119 47q-51 48 -51 131q0 32 8 67
q9 40 19 71q13 40 30 83q7 16 20.5 51t19.5 51q28 72 61 160q21 57 21 94q0 54 -39 54q-24 0 -71 -36q-45 -35 -101 -126l-43 24q79 136 184 203q107 68 215 68q81 0 125 -44q43 -43 43 -116q0 -52 -29 -139q-30 -89 -69 -191q-49 -121 -66 -167q-20 -54 -20 -91
q0 -47 41 -47q21 0 52 27q35 30 73 86q46 68 91 154q48 91 105 235q36 88 55 132q34 79 54 140h301q-13 -39 -49 -149l-17 -51t-19.5 -59t-16.5 -49q-40 -120 -47 -142q-14 -44 -34 -99q-16 -49 -33 -115q-12 -47 -12 -87z" />
    <glyph glyph-name="v" unicode="v" horiz-adv-x="1019" 
d="M199 483q36 91 61 162q21 60 21 94q0 54 -39 54q-25 0 -71 -37q-45 -36 -101 -127l-43 24q79 136 184 203q107 68 215 68q82 0 125 -43t43 -115q0 -53 -29 -142q-33 -102 -71 -194q-44 -105 -66 -165q-22 -59 -22 -95q0 -76 65 -76q55 0 121 45q62 42 122 115
q54 65 95 154q39 84 39 163q0 44 -7 72q-8 31 -30 80q-17 37 -23 57q-8 26 -8 41q0 51 30 77q31 26 67 26q50 0 79 -41t29 -121q0 -53 -14 -112q-15 -65 -37 -128q-23 -66 -52 -128q-28 -58 -63 -111q-42 -63 -89 -112q-52 -54 -115 -97q-64 -44 -136 -69t-155 -25
q-97 0 -156 52t-59 144q0 34 6 65q6 30 18 67q7 21 29 79q26 68 37 96z" />
    <glyph glyph-name="w" unicode="w" horiz-adv-x="1642" 
d="M1024 -20q-73 0 -129 25q-57 25 -96 75q-73 -44 -157 -72t-183 -28q-123 0 -198 66t-75 190q0 65 26 125q27 62 64 106q41 49 83 85q40 34 81 64q-19 10 -60 38q-78 53 -81 55q-59 43 -82 55t-39 12q-26 0 -26 -24q0 -12 10 -23q21 -24 26 -29q25 -30 25 -69
q0 -42 -25 -72q-24 -29 -71 -29q-46 0 -68 31q-20 29 -20 70q0 46 29 94t61 80q52 52 117 86q63 33 118 33q40 0 75 -24q51 -35 65 -46q42 -30 68 -44q27 -15 50 -15q25 0 34 18q11 22 20 45q27 66 63 66q20 0 33 -13q12 -12 12 -30q0 -22 -18 -40q-6 -6 -19 -18.5
t-20 -19.5q-5 -5 -15.5 -16t-16.5 -17q-15 -15 -34 -41q-24 -35 -51 -84t-49 -107q-22 -56 -37 -124q-14 -62 -14 -135q0 -79 36 -129t103 -50q30 0 63 5q30 4 60 22q-19 36 -32 84q-11 40 -11 90q0 88 20 164q21 81 54 149q35 73 74 126q44 60 85 98q50 46 96 66
q48 20 78 20q65 0 99 -43q35 -44 35 -140q0 -58 -18 -121q-18 -62 -48 -124q-26 -54 -72 -120q-39 -56 -88 -110q23 -70 67 -100q43 -29 97 -29t95 27q40 26 73 72q57 79 81 161q23 80 23 181q0 40 -9 70q-7 24 -34 81q-30 61 -30 96q0 51 29 74q31 25 65 25q53 0 83 -41
t30 -121q0 -50 -12 -120q-14 -82 -33 -148q-23 -78 -57 -156q-33 -75 -81 -143q-68 -95 -161 -154q-95 -61 -236 -61zM1108 836q-40 0 -78 -59q-37 -58 -37 -208q0 -42 3 -102q3 -51 16 -125q29 38 62 91q28 45 52 99q22 50 36 101t14 92q0 61 -20 86t-48 25z" />
    <glyph glyph-name="x" unicode="x" horiz-adv-x="1173" 
d="M1190 786q0 -36 -12 -74q-11 -35 -32 -72q-18 -32 -43 -63q-26 -32 -48 -53l-41 19q22 47 39 105q16 57 16 106q0 41 -12 59t-47 18q-30 0 -67 -24q-39 -25 -73 -74q-39 -57 -70 -123q-31 -64 -57 -161q-23 -99 -27 -145q-5 -52 -5 -77q0 -58 11 -91q12 -36 62 -36
q30 0 60 19q27 17 54 47q29 32 47 62q23 38 38 65l43 -23q-32 -61 -60 -102q-34 -51 -78 -93q-42 -40 -99 -69q-52 -26 -121 -26q-115 0 -166 63t-51 170q0 25 1 38q2 19 3 42h-15q-21 -53 -53 -114q-29 -55 -71 -100q-44 -48 -89 -72q-49 -27 -108 -27q-64 0 -101 36
q-38 37 -38 109q0 35 12 70q11 32 33 68q24 39 44 63q24 28 48 51l43 -19q-24 -47 -42 -106q-18 -60 -18 -103q0 -41 15 -63q15 -23 51 -23q32 0 67 23t70 70q39 60 69 129q27 63 56 168q24 107 28 146q5 53 5 79q0 59 -14 87t-54 28q-23 0 -51 -19q-27 -18 -51 -45
q-27 -31 -47 -57q-18 -25 -37 -58l-43 25q29 55 65 102q42 55 87 93q48 41 103 65q56 25 109 25q108 0 155 -62q46 -61 46 -182q0 -10 -2 -36q-2 -20 -6 -38h14q24 58 59 115q37 60 74 102q41 46 88 73q48 28 97 28q63 0 100 -36t37 -102z" />
    <glyph glyph-name="y" unicode="y" horiz-adv-x="976" 
d="M201 762q-30 0 -60 -32q-32 -34 -71 -103l-45 24q40 73 71 114q40 53 79 85q42 34 92 54q51 20 114 20q86 0 134 -53q49 -54 73 -144q9 -34 22 -95q14 -67 23 -128q10 -68 18 -146q8 -82 8 -147h15q68 113 108 210q41 99 41 185q0 42 -9 73q-8 28 -26 69q-15 33 -17 38
q-9 23 -9 43q0 49 30 72q31 23 62 23q45 0 72 -32q26 -30 26 -87q0 -113 -30 -224q-30 -110 -82 -219q-47 -98 -118 -203q-61 -90 -136 -183q-60 -74 -137 -153q-70 -72 -123 -116q-71 -63 -158 -104q-84 -39 -174 -39q-83 0 -126 40q-44 41 -44 93q0 62 37 90q38 29 71 29
q48 0 73 -18q27 -19 50 -48q19 -20 39 -38q22 -19 51 -19q19 0 51 15q31 15 62 38q38 32 60 53q28 27 65 74q0 92 -10 195q-10 98 -26 215q-15 103 -33 197q-24 120 -29 143q-22 79 -35 107q-15 32 -49 32z" />
    <glyph glyph-name="z" unicode="z" horiz-adv-x="1038" 
d="M1047 854q0 -28 -25 -59q-26 -33 -53 -54q-1 -1 -7 -5.5t-17 -12t-23 -16.5t-26.5 -20t-33.5 -25.5t-31 -23.5q-18 -13 -91 -71q-12 -9 -23.5 -18.5t-18 -14t-8.5 -6.5q-34 -27 -70 -50q-28 -18 -86 -58q-14 -10 -43.5 -30.5t-44.5 -30.5q-46 -31 -73 -52q37 11 90 6
q25 0 77 -5q45 -4 83 -15q56 -13 90 -22q40 -11 73 -11q42 0 69 11q30 12 60 59q20 29 39 82l50 -19q-15 -49 -51 -147q-27 -74 -67 -133q-39 -59 -98 -97q-55 -36 -137 -36q-73 0 -126 30q-49 28 -101 80q-53 53 -87 80q-37 29 -77 29q-43 0 -73 -46q-28 -44 -54 -100
q-12 -29 -33 -51t-57 -22q-32 0 -50 21t-18 46q0 27 19 51q16 20 47 43q2 2 11.5 9t16.5 12q7 6 21 15t20 13q8 6 22.5 15.5t18.5 12.5q28 20 29 20l527 405q-18 -7 -47 -11q-33 -5 -48 -5q-66 0 -115 14q-53 15 -120 45q-27 12 -83 40q-44 22 -71 22q-42 0 -67 -28t-25 -75
q0 -30 7 -44q7 -13 16 -19q12 33 40 57q28 23 60 23q40 0 70 -25q28 -24 28 -76q0 -36 -30 -69t-78 -33q-72 0 -125 50t-53 153q0 57 21 105q22 50 58 83q38 35 85 54q49 20 104 20q77 0 128 -28q48 -26 93 -71q26 -26 42 -41q31 -29 47 -41q25 -19 46 -30q24 -13 43 -13
q58 0 88 42t51 110q11 34 37 54q28 22 58 22q40 0 60 -25t20 -49z" />
    <glyph glyph-name="quoteleft" unicode="&#x2018;" horiz-adv-x="468" 
d="M586 1329q-47 -12 -81 -26q-41 -17 -73 -37q-33 -21 -53 -41q-21 -21 -21 -41q0 -17 11 -23q12 -7 26 -12q49 -22 74 -57q27 -38 27 -91q0 -63 -44 -102t-104 -39q-65 0 -111 46q-47 47 -47 126q0 124 103 215q102 90 276 135z" />
    <glyph glyph-name="quoteright" unicode="&#x2019;" horiz-adv-x="468" 
d="M586 1210q0 -124 -103 -216q-100 -90 -276 -134l-17 53q40 11 80 27q42 17 74 36q29 17 53 41q21 21 21 42q0 17 -11 22q-21 10 -28 13q-47 18 -73 56q-25 37 -25 89q0 65 45 104t108 39q68 0 110 -46t42 -126z" />
    <glyph glyph-name="quotedblleft" unicode="&#x201c;" horiz-adv-x="860" 
d="M977 1329q-47 -12 -81 -26q-41 -17 -73 -37q-33 -21 -53 -41t-20 -41q0 -18 11 -23q16 -8 27 -12q49 -22 73 -57q26 -38 26 -91q0 -63 -44 -102q-43 -39 -104 -39q-65 0 -111 46t-46 126q0 125 102 215t277 135zM586 1329q-47 -12 -81 -26q-41 -17 -73 -37
q-33 -21 -53 -41q-21 -21 -21 -41q0 -17 11 -23q12 -7 26 -12q49 -22 74 -57q27 -38 27 -91q0 -63 -44 -102t-104 -39q-65 0 -111 46q-47 47 -47 126q0 124 103 215q102 90 276 135z" />
    <glyph glyph-name="quotedblright" unicode="&#x201d;" horiz-adv-x="860" 
d="M977 1210q0 -124 -103 -216q-100 -90 -276 -134l-16 53q40 11 80 27q39 16 73 36q29 17 53 41q21 21 21 42q0 16 -10 22q-15 9 -27 13q-100 39 -100 145q0 65 44 104t103 39q66 0 112 -46t46 -126zM586 1210q0 -124 -103 -216q-100 -90 -276 -134l-17 53q40 11 80 27
q42 17 74 36q29 17 53 41q21 21 21 42q0 17 -11 22q-21 10 -28 13q-47 18 -73 56q-25 37 -25 89q0 65 44 104t103 39q66 0 112 -46t46 -126z" />
  </font>
</defs>
</svg>
