<?xml version="1.0" standalone="no"?>
<!DOCTYPE svg PUBLIC "-//W3C//DTD SVG 1.1//EN" "http://www.w3.org/Graphics/SVG/1.1/DTD/svg11.dtd" >
<svg xmlns="http://www.w3.org/2000/svg" xmlns:xlink="http://www.w3.org/1999/xlink" version="1.1">
<metadata>
Created by FontForge 20170731 at Thu Dec 17 06:39:33 2020
 By Aleksey,,,
Copyright (c) 2014 Commercial Type.
</metadata>
<defs>
<font id="AustinText-Roman" horiz-adv-x="307" >
  <font-face 
    font-family="Austin Text Roman"
    font-weight="400"
    font-stretch="normal"
    units-per-em="2048"
    panose-1="2 0 0 0 0 0 0 0 0 0"
    ascent="1638"
    descent="-410"
    x-height="868"
    cap-height="1348"
    bbox="-205 -547 1980 1411"
    underline-thickness="75"
    underline-position="-269"
    unicode-range="U+000D-201D"
  />
<missing-glyph 
 />
    <glyph glyph-name=".notdef" 
 />
    <glyph glyph-name=".null" horiz-adv-x="0" 
 />
    <glyph glyph-name="nonmarkingreturn" unicode="&#xd;" 
 />
    <glyph glyph-name="NULL" horiz-adv-x="0" 
 />
    <glyph glyph-name="NULL" horiz-adv-x="0" 
 />
    <glyph glyph-name="space" unicode=" " 
 />
    <glyph glyph-name="comma" unicode="," horiz-adv-x="462" 
d="M340 76q0 -63 -21 -115q-22 -55 -56 -96q-35 -43 -83 -75q-45 -30 -102 -52l-17 39q92 41 132 92q40 50 40 92q0 33 -30 43q-41 16 -70 36q-31 22 -31 75q0 47 35 74q36 28 76 28q53 0 90 -36t37 -105z" />
    <glyph glyph-name="hyphen" unicode="-" horiz-adv-x="681" 
d="M123 477v103h436v-103h-436z" />
    <glyph glyph-name="period" unicode="." horiz-adv-x="434" 
d="M113 78q0 44 30 74t74 30t74 -30q31 -31 31 -74t-31 -74t-74 -31t-74 31q-30 30 -30 74z" />
    <glyph glyph-name="zero" unicode="0" horiz-adv-x="1075" 
d="M539 49q75 0 125 37q52 38 84 102q33 66 48 157q15 92 15 200q0 107 -15 199q-15 91 -48 157q-33 65 -84 103q-49 36 -125 36q-74 0 -124 -36q-51 -37 -86 -103q-34 -65 -49 -157q-16 -98 -16 -199q0 -102 16 -200q15 -92 49 -157q34 -64 85 -102q50 -37 125 -37zM72 545
q0 141 40 245q41 107 104 177t149 107q84 36 174 36q88 0 172 -36t149 -107q66 -72 105 -177t39 -245t-39 -245t-105 -177q-67 -73 -149 -108t-172 -35q-92 0 -174 35q-85 36 -149 108q-63 70 -104 177q-40 104 -40 245z" />
    <glyph glyph-name="one" unicode="1" horiz-adv-x="587" 
d="M61 0v43l42 9q22 5 32 9q26 11 39 28q14 18 21 42q7 25 8 42q2 26 2 52v586q0 37 -1 55q-2 35 -5 51q-6 31 -18 45q-11 14 -36 25q-24 9 -46 10q-6 0 -26 1.5t-32 2.5v43l36 6t35 6q12 2 34 6t25 4q21 4 53 11q1 0 22.5 5.5t32.5 7.5q6 2 51 14q29 8 35 8q22 0 22 -20
q0 -26 -1 -51t-1 -84q0 -60 -1 -89t-1 -63v-580q0 -26 2 -52q1 -17 8 -42q7 -24 21 -42q13 -17 39 -28q11 -5 31 -9l42 -9v-43h-465z" />
    <glyph glyph-name="two" unicode="2" horiz-adv-x="974" 
d="M901 307q-17 -61 -39 -138q-21 -71 -45 -169h-749v57l157 113q53 36 145 109q78 62 148 144q71 83 116 181q46 99 46 221q0 119 -49 165t-142 46q-61 0 -112 -26q-54 -28 -95 -76q-44 -52 -67 -118q-25 -72 -25 -150q0 -72 32 -99q30 -26 69 -26q38 0 64 16q29 18 49 42
q22 27 39 59q15 30 32 71l43 -16q-17 -53 -41 -100q-23 -45 -59 -81q-33 -33 -80 -55q-43 -20 -98 -20q-92 0 -145 54q-52 53 -52 144q0 93 42 175q43 84 111 145q68 60 158 98q89 37 189 37q164 0 249 -76t85 -198q0 -86 -31 -162q-29 -72 -77 -135q-49 -65 -99 -109
q-16 -14 -97 -84q-57 -45 -118 -90q-67 -50 -144 -96v-10h291q47 0 71 4q28 5 47 12q20 8 34 19q10 8 30 28q27 27 40 49q18 30 26 45h51z" />
    <glyph glyph-name="three" unicode="3" horiz-adv-x="940" 
d="M858 371q0 -75 -32 -147q-32 -71 -93 -125q-62 -54 -151 -87q-87 -32 -207 -32q-79 0 -142 18q-59 17 -109 49q-45 29 -72 72q-25 40 -25 86q0 56 28 84t72 28q48 0 72 -28q26 -29 26 -78q0 -15 -5 -38t-5 -38q0 -43 44 -64q46 -22 116 -22q156 0 228 78q73 79 73 242
q0 91 -40 132q-40 42 -95 42q-26 0 -51 -7q-26 -7 -56 -26l-78 -49l-30 47l147 96q46 29 76 53q31 26 54 58q21 30 33 70q11 37 11 96q0 86 -43 125q-42 38 -115 38q-57 0 -102 -19q-48 -20 -80 -52q-33 -33 -51 -76t-18 -90q0 -107 92 -107q44 0 79 29q32 26 60 78l37 -21
q-32 -65 -92 -114q-59 -49 -148 -49q-67 0 -106 46q-39 47 -39 117q0 65 32 124t87 104q55 44 127 70q73 26 151 26q62 0 117 -12q53 -12 97 -38q43 -26 67 -68t24 -103q0 -103 -66 -164q-68 -63 -179 -115v-6q139 10 209 -54q71 -65 71 -179z" />
    <glyph glyph-name="four" unicode="4" horiz-adv-x="991" 
d="M707 446q64 0 93 13q27 12 50 35q22 22 33 47q10 22 16 57h41v-373h-41q-7 37 -16 58q-11 25 -33 47q-23 23 -50 35t-93 12h-41v-152q0 -26 2 -52q1 -17 8 -42q7 -26 20 -42q13 -17 39 -28q10 -4 32 -9l42 -9v-43h-465v43l42 9q22 5 32 9q26 11 39 28q13 16 20 42
q7 25 8 42q2 26 2 52v152h-467v55l594 680h50q4 0 4 -6q0 -33 -1 -55t-1 -74v-531h41zM125 446h362v408h-12z" />
    <glyph glyph-name="five" unicode="5" horiz-adv-x="921" 
d="M352 45q149 0 225 98t76 252q0 130 -47 183t-133 53q-85 0 -147 -46q-66 -49 -95 -130l-71 14l137 621h94q44 -16 49 -18q14 -5 40 -11q13 -3 44 -5q16 -1 62 -1q43 0 79 13q39 14 69 34q33 22 53 45q23 26 30 49l45 -10q-21 -86 -61 -137q-42 -54 -92 -85
q-52 -32 -109 -44q-62 -13 -108 -13q-44 0 -77 4q-11 1 -24.5 3t-31.5 4.5t-29 3.5l-68 -314l6 -2q38 43 103 72q64 29 151 29q143 0 231 -73q87 -72 87 -237q0 -84 -37 -159q-38 -78 -103 -134q-66 -57 -155 -91q-86 -33 -197 -33q-161 0 -239 62q-80 63 -80 153
q0 56 30 86t72 30q54 0 78 -35q18 -29 18 -71q0 -17 -3 -38t-3 -38q0 -42 36 -63t95 -21z" />
    <glyph glyph-name="six" unicode="6" horiz-adv-x="944" 
d="M913 924q0 -119 -96 -119q-44 0 -65 20q-31 25 -31 70q0 17 8 43t8 35q0 40 -27 58t-104 18q-71 0 -130 -38q-58 -37 -102 -101q-47 -69 -72 -141q-28 -82 -38 -159h10q39 48 101 75q65 28 149 28q74 0 143 -25q64 -23 115 -71q50 -47 78 -112q29 -67 29 -153
q0 -78 -31 -149q-30 -70 -85 -120t-129 -80q-75 -30 -161 -30q-97 0 -176 38q-77 37 -131 105t-82 154q-28 87 -28 189q0 157 51 280t130 208t174 129q96 44 185 44q82 0 140 -15t96 -42q35 -25 54 -63q17 -34 17 -76zM483 633q-40 0 -80 -12q-39 -12 -73 -44
q-32 -31 -54 -90q-20 -54 -20 -145q0 -82 17 -136t49 -91q30 -35 71 -50q43 -16 88 -16q102 0 160 67q57 66 57 226q0 159 -60 225t-155 66z" />
    <glyph glyph-name="seven" unicode="7" horiz-adv-x="888" 
d="M858 1032q-21 -32 -65 -106q-36 -61 -72 -134q-43 -88 -66 -143q-34 -81 -49 -133q-22 -74 -34 -132q-9 -45 -15 -102q-5 -47 -6 -88q0 -13 -1.5 -42.5t-2.5 -45.5q-6 -83 -37 -108t-70 -25q-46 0 -73 30t-27 81q0 41 16 93q18 58 39 112q23 57 49 113q14 30 48 100
q66 134 112 218q45 81 113 200v4h-443q-27 0 -46 -4q-21 -4 -44 -23q-26 -20 -38 -44q-11 -21 -19 -48h-53l84 356h35q11 -28 35 -49q25 -22 83 -22h547v-58z" />
    <glyph glyph-name="eight" unicode="8" horiz-adv-x="917" 
d="M807 862q0 -98 -57 -163q-54 -61 -144 -107q38 -15 90 -43q45 -24 81 -57q37 -34 58 -77t21 -104q0 -152 -107 -241q-108 -90 -294 -90q-89 0 -159 16q-77 18 -126 50q-53 35 -83 84q-30 50 -30 120q0 46 21 86q23 44 54 75q35 35 77 61q45 28 90 44q-106 50 -158 117
q-53 68 -53 172q0 67 29 123q28 54 79 96q50 41 118 63q71 23 147 23t137 -16q64 -17 110 -48q44 -30 72 -78q27 -47 27 -106zM700 242q0 53 -20 83q-23 34 -60 56q-44 26 -100 47q-20 8 -66.5 25.5t-72.5 27.5q-85 -34 -143 -86t-58 -141q0 -59 25 -101q24 -41 63 -63
q40 -23 88 -32q50 -9 99 -9q53 0 96 10q45 11 78 33q32 22 52 60q19 37 19 90zM240 870q0 -55 17 -88q19 -36 53 -60t90 -49q39 -17 128 -50q64 29 112 85q46 53 46 142q0 107 -62 148q-63 42 -163 42q-96 0 -159 -42q-62 -41 -62 -128z" />
    <glyph glyph-name="nine" unicode="9" horiz-adv-x="937" 
d="M31 176q0 50 29 78q31 29 73 29q55 0 82 -43q12 -22 12 -54q0 -29 -1 -41t-1 -36q0 -19 12 -31q14 -14 29 -20q16 -7 40 -10q21 -3 42 -3q93 0 154 38q58 36 96 100q35 59 54 142q17 76 28 158h-10q-38 -47 -102 -74q-67 -28 -150 -28q-79 0 -151 25q-67 23 -117 70
q-48 45 -76 113q-27 66 -27 152q0 79 31 150q30 69 84 120q53 50 128 80q72 29 161 29q97 0 177 -39t133 -104q55 -67 83 -154t28 -188q0 -159 -43 -281q-44 -125 -114 -208q-72 -85 -167 -129q-96 -44 -200 -44q-84 0 -146 17q-61 17 -99 44q-37 27 -55 64q-17 35 -17 78z
M442 461q39 0 81 12q40 12 76 44q33 30 56 88t23 147q0 79 -18 136q-18 56 -48 91t-71 50q-40 15 -88 15q-103 0 -160 -73t-57 -219q0 -161 56 -226t150 -65z" />
    <glyph glyph-name="A" unicode="A" horiz-adv-x="1314" 
d="M797 465h-424l-51 -146q-19 -53 -25 -80q-8 -38 -8 -71q0 -43 17 -68q18 -27 46 -39q16 -7 44 -12q26 -4 57 -6v-43h-453v43q30 5 50 9q17 4 42 18q42 25 70 77q35 64 78 183l383 1026h71l367 -1032q19 -56 38 -95q20 -42 40 -69q25 -36 49 -57q20 -18 53 -35
q36 -18 74 -25v-43h-590v43q38 4 58 9q17 4 34 9q34 11 54 28q22 19 22 65q0 45 -19 97q-6 16 -17 47.5t-17 47.5zM399 537h371l-178 499h-14z" />
    <glyph glyph-name="B" unicode="B" horiz-adv-x="1273" 
d="M659 1348q81 0 167 -14q83 -14 149 -48q65 -34 106 -93t41 -151q0 -107 -49 -163q-53 -60 -121 -99q-19 -11 -59 -27q-27 -11 -88 -22v-6q74 -7 149 -32q72 -24 127 -64q54 -39 88 -103q33 -62 33 -147q0 -87 -36 -156q-37 -72 -96 -120q-59 -49 -141 -76
q-81 -27 -171 -27h-699v43q46 2 74 12q33 11 55 28q23 19 39 50q20 42 24 80q5 48 5 133v658q0 55 -1 76q-2 39 -4 56q-3 24 -9 42l-15 36q-17 33 -39 51q-20 16 -55 27q-34 9 -74 13v43h600zM457 680v-381q0 -75 7 -117q7 -44 34 -71q24 -24 61 -31q42 -8 92 -8h51
q72 0 131 18q56 17 97 60q61 67 61 229q0 68 -16 129q-17 63 -60 108q-38 38 -103 51q-64 13 -144 13h-211zM457 754h202q160 0 215 73q34 45 46 104q12 60 12 111q0 67 -20 113t-55 72q-34 26 -85 38q-45 11 -108 11h-160q-20 0 -27 -1q-9 -1 -14 -9q-6 -8 -6 -33v-479z
" />
    <glyph glyph-name="C" unicode="C" horiz-adv-x="1320" 
d="M741 1300q-53 0 -97 -11q-51 -13 -93 -38q-47 -29 -88 -69q-41 -41 -77 -113q-32 -63 -54 -167q-21 -98 -21 -230q0 -123 17 -214q16 -88 44 -151q27 -61 66 -102q41 -43 82 -68q54 -34 114 -49q55 -14 148 -14q137 0 251 63q113 62 181 197l56 -37q-73 -149 -200 -237
q-128 -89 -345 -89q-140 0 -260 53t-205 144q-86 92 -134 221t-48 283q0 155 56 282q58 132 150 222q93 92 213 144q119 52 244 52q81 0 138 -10q58 -10 104 -27q47 -17 76 -36q37 -24 53 -39h8l66 90h43v-463h-43q-28 101 -71 173t-79 111q-35 37 -53 53q-26 23 -59 41
q-30 16 -77 26q-43 9 -106 9z" />
    <glyph glyph-name="D" unicode="D" horiz-adv-x="1437" 
d="M655 1348q121 0 213 -23t154 -57q69 -39 132 -96q64 -58 108 -130q44 -71 71 -164q27 -92 27 -202q0 -224 -91 -370q-91 -147 -235 -226q-68 -35 -147 -57q-84 -23 -170 -23h-658v43q46 2 74 12q33 11 55 28q23 19 39 50q20 42 24 80q5 48 5 133v655q0 86 -5 134
q-4 37 -24 79q-17 33 -39 51q-20 16 -55 27q-34 9 -74 13v43h596zM688 72q68 0 145 24q74 23 132 78q37 37 71 85q33 47 57 106q22 54 36 134q14 78 14 173q0 197 -52 319q-53 123 -135 195q-28 24 -66 42q-25 12 -79 28q-38 11 -83 16q-37 4 -81 4h-143q-20 0 -27 -1
q-9 -1 -14 -9q-6 -8 -6 -41v-926q0 -75 7 -117q7 -44 34 -71q24 -24 61 -31q42 -8 92 -8h37z" />
    <glyph glyph-name="E" unicode="E" horiz-adv-x="1236" 
d="M1116 0h-1057v43q46 2 74 12q33 11 55 28q23 19 39 50q20 42 24 80q5 48 5 133v655q0 86 -5 134q-4 37 -24 79q-17 33 -39 51q-20 16 -55 27q-34 9 -74 13v43h1002l59 -334h-47q-40 71 -76 111q-40 45 -88 83q-29 22 -87 45q-60 23 -144 23h-105q-26 0 -53 -5
q-24 -5 -41 -26q-16 -22 -19 -49t-3 -63v-400h116q71 0 110 11q43 12 71 40q41 38 51 77q10 37 16 87h43v-504h-43q-6 48 -18 91q-11 40 -53 79q-29 29 -70 38q-45 10 -107 10h-116v-363q0 -75 7 -117q7 -44 34 -71q24 -24 61 -31q42 -8 92 -8h45q108 0 167 28t106 64
q30 23 63 54q24 23 48 50q21 24 39 51t36 60h41z" />
    <glyph glyph-name="F" unicode="F" horiz-adv-x="1165" 
d="M666 0h-607v43q46 2 74 12q33 11 55 28q23 19 39 50q20 42 24 80q5 48 5 133v655q0 86 -5 134q-4 37 -24 79q-17 33 -39 51q-20 16 -55 27q-34 9 -74 13v43h1004l61 -369h-47q-78 145 -180 225q-30 24 -81 47q-55 25 -146 25h-97q-26 0 -53 -5q-24 -5 -41 -26
q-16 -22 -19 -49t-3 -63v-392h69q68 0 110 12q43 12 71 40q41 38 51 76q10 37 16 87h43v-503h-43q-6 47 -18 90q-11 40 -54 80q-28 28 -69 37q-45 10 -107 10h-69v-324q0 -85 5 -133q4 -41 23 -80q16 -31 39 -50q21 -17 56 -28q13 -4 38 -7q31 -4 48 -5v-43z" />
    <glyph glyph-name="G" unicode="G" horiz-adv-x="1449" 
d="M1028 367q0 65 -5 98q-4 25 -24 67q-17 34 -38 48q-18 12 -56 24q-28 7 -74 12v41h599v-41q-47 -5 -74 -12q-37 -12 -56 -27q-21 -17 -38 -51q-20 -41 -24 -109q-5 -80 -5 -165v-182q-25 -14 -62 -28q-46 -17 -94 -28q-59 -13 -146 -27q-98 -16 -186 -16q-152 0 -276 53
q-123 52 -210 144q-88 92 -134 221q-47 130 -47 283q0 154 55 282q56 130 148 222t209 144t243 52q82 0 141 -10q62 -10 108 -27q48 -17 77 -36q37 -24 53 -39h8l66 90h43v-463h-43q-28 100 -70 173q-40 69 -80 111q-35 37 -53 53q-26 23 -60 41q-32 17 -80 26q-46 9 -112 9
q-49 0 -92 -10q-47 -11 -92 -37q-41 -24 -81 -65q-41 -42 -76 -114q-32 -66 -56 -170q-23 -101 -23 -232q0 -129 15 -222q16 -99 41 -160q29 -71 65 -111q43 -47 88 -75q50 -32 108 -46q52 -13 120 -13q114 0 165 16q53 17 80 39q7 7 14 17q6 9 11 28q4 14 7 49q3 30 3 76
v97z" />
    <glyph glyph-name="H" unicode="H" horiz-adv-x="1531" 
d="M649 0h-590v43q46 2 74 12q33 11 55 28q23 19 39 50q20 42 24 80q5 48 5 133v655q0 86 -5 134q-4 37 -24 79q-17 33 -39 51q-20 16 -55 27q-34 9 -74 13v43h590v-43q-37 -1 -69 -13q-37 -12 -56 -27q-22 -18 -39 -51q-19 -39 -23 -79q-5 -48 -5 -134v-280h618v280
q0 86 -5 134q-4 40 -23 79q-17 33 -39 51q-19 15 -56 27q-32 12 -69 13v43h590v-43q-42 -4 -74 -13q-37 -12 -56 -27q-21 -17 -38 -51q-20 -42 -24 -79q-5 -48 -5 -134v-655q0 -85 5 -133q4 -38 24 -80q16 -33 38 -50q21 -17 56 -28q27 -10 74 -12v-43h-590v43q41 1 69 12
q35 11 56 28q23 19 39 50q19 39 23 80q5 48 5 133v303h-618v-303q0 -85 5 -133q4 -41 23 -80q16 -31 39 -50q21 -17 56 -28q28 -11 69 -12v-43z" />
    <glyph glyph-name="I" unicode="I" horiz-adv-x="712" 
d="M457 346q0 -85 5 -133q4 -41 23 -80q16 -31 39 -50q21 -17 56 -28q27 -11 73 -12v-43h-594v43q46 2 74 12q33 11 55 28q23 19 39 50q20 42 24 80q5 48 5 133v655q0 86 -5 134q-4 37 -24 79q-17 33 -39 51q-20 16 -55 27q-34 9 -74 13v43h594v-43q-40 -4 -73 -13
q-37 -12 -56 -27q-22 -18 -39 -51q-19 -39 -23 -79q-5 -48 -5 -134v-655z" />
    <glyph glyph-name="J" unicode="J" horiz-adv-x="835" 
d="M416 1001q0 86 -5 134q-4 37 -24 79q-17 33 -39 51q-20 16 -55 27q-34 9 -74 13v43h592v-43q-42 -4 -74 -13q-35 -11 -55 -27q-22 -18 -39 -51q-19 -39 -23 -79q-6 -58 -6 -134v-593q0 -75 -11 -123q-14 -61 -29 -95q-21 -47 -37 -69q-18 -25 -39 -49q-46 -46 -108 -74
q-60 -27 -138 -27q-43 0 -97 13q-51 12 -92 47q-18 15 -36 50q-17 32 -17 69q0 48 28 76t73 28q53 0 77 -37q18 -29 33 -78q7 -30 19 -55q23 -41 61 -41q30 0 54 9t40 46q12 25 16 53q5 30 6 62q1 33 0 63q-1 20 -1 58v667z" />
    <glyph glyph-name="K" unicode="K" horiz-adv-x="1343" 
d="M457 694l329 338q21 23 54.5 58t45.5 48q38 41 38 81q0 37 -18 49q-17 11 -40 22q-17 6 -37 9q-2 0 -17.5 2.5t-23.5 3.5v43h498v-43q-34 -5 -79 -22q-46 -18 -83 -40q-30 -20 -46 -30q-22 -14 -49 -36q-23 -19 -56 -52q-9 -9 -32.5 -31.5t-37.5 -36.5l-246 -250v-14
q107 -5 173 -30q67 -26 114 -73q55 -57 96 -149q42 -95 54 -207q7 -73 17 -110q13 -46 26 -69q18 -32 30 -43q22 -20 33 -28q22 -16 62 -27q26 -7 61 -14v-43h-340q-18 18 -35 48q-20 35 -34 74q-12 32 -26 92q-11 46 -16 101q-11 118 -27 175q-19 70 -38 104q-28 53 -66 91
q-34 34 -106 34q-32 0 -62 -18q-37 -22 -55 -39q-5 -4 -32 -31q-13 -13 -29 -35v-250q0 -85 5 -133q4 -41 23 -80q16 -31 39 -50q21 -17 56 -28q27 -8 77 -12v-43h-598v43q46 2 74 12q33 11 55 28q23 19 39 50q20 42 24 80q5 48 5 133v655q0 86 -5 134q-4 37 -24 79
q-17 33 -39 51q-20 16 -55 27q-34 9 -74 13v43h598v-43q-44 -4 -77 -13q-37 -12 -56 -27q-22 -18 -39 -51q-19 -39 -23 -79q-5 -48 -5 -134v-307z" />
    <glyph glyph-name="L" unicode="L" horiz-adv-x="1206" 
d="M59 43q46 2 74 12q33 11 55 28q23 19 39 50q20 42 24 80q5 48 5 133v655q0 86 -5 134q-4 37 -24 79q-17 33 -39 51q-20 16 -55 27q-34 9 -74 13v43h594v-43q-40 -4 -73 -13q-37 -12 -56 -27q-22 -18 -39 -51q-19 -39 -23 -79q-5 -48 -5 -134v-702q0 -75 7 -117
q7 -44 34 -71q24 -24 61 -31q42 -8 92 -8h25q108 0 167 28q57 27 105 64q73 61 107 117q35 58 69 133h41l-69 -414h-1037v43z" />
    <glyph glyph-name="M" unicode="M" horiz-adv-x="1794" 
d="M1735 1305q-42 -4 -74 -13q-35 -11 -55 -27q-22 -18 -39 -51q-20 -42 -24 -79q-5 -48 -5 -134v-655q0 -85 5 -133q4 -38 24 -80q16 -31 39 -50q22 -17 55 -28q27 -10 74 -12v-43h-602v43q15 1 45 5q23 3 36 7q35 11 56 28q23 19 39 50q19 39 23 80q5 48 5 133v821h-12
l-432 -1175h-82l-438 1175h-15v-864q0 -78 10 -120q9 -38 27 -62q17 -25 38 -40q22 -15 46 -22q22 -6 38 -9q6 -1 21.5 -3.5t24.5 -3.5v-43h-504v43q17 1 42 5q24 4 36 7q24 6 48 21q19 12 42 39q24 29 35 66q12 40 12 122v698q0 86 -5 134q-4 40 -23 79q-16 33 -39 51
q-20 16 -55 27q-12 4 -42 7q-5 1 -23.5 3t-27.5 3v43h461l385 -1049h13l391 1049h426v-43z" />
    <glyph glyph-name="N" unicode="N" horiz-adv-x="1470" 
d="M1167 -16l-804 1140h-11v-821q0 -83 9 -120q9 -36 28 -62q17 -25 38 -40q22 -15 46 -22q22 -6 38 -9q6 -1 21.5 -3.5t24.5 -3.5v-43h-504v43q17 1 42 5q24 4 36 7q24 6 48 21q19 12 42 39q24 29 35 66q12 40 12 122v615q0 114 -11 169q-12 59 -30 97q-33 72 -121 106
q-32 14 -69 15v43h422l694 -998h8v694q0 86 -11 123q-13 42 -34 68t-43 38q-20 11 -49 19q-14 4 -40 7q-3 0 -20 2.5t-26 3.5v43h512v-43q-11 -2 -26.5 -4.5t-19.5 -3.5q-16 -3 -38 -9q-26 -7 -46 -21q-21 -15 -38 -40q-19 -25 -28 -63t-9 -120v-1060h-78z" />
    <glyph glyph-name="O" unicode="O" horiz-adv-x="1433" 
d="M717 1372q134 0 250 -52t202 -144q88 -94 137 -222q50 -130 50 -282q0 -153 -50 -283q-48 -126 -137 -221q-86 -92 -202 -144q-118 -53 -250 -53t-250 53t-203 144q-87 93 -136 221q-50 130 -50 283q0 152 50 282t136 222q85 91 203 144q116 52 250 52zM717 43
q113 0 201 55q42 28 78 70q40 47 66 111q28 70 44 163t16 230q0 136 -16 229q-16 95 -44 164q-26 64 -66 111q-34 40 -78 69q-88 55 -201 55t-201 -55q-46 -31 -79 -69q-38 -45 -65 -111q-28 -69 -44 -164q-17 -99 -17 -229q0 -131 17 -230q16 -93 44 -163q27 -66 65 -111
q35 -41 79 -70q88 -55 201 -55z" />
    <glyph glyph-name="P" unicode="P" horiz-adv-x="1177" 
d="M659 0h-598v43q46 2 74 12q33 11 55 28q23 19 39 50q20 42 24 80q5 48 5 133v658q0 85 -5 133q-4 38 -24 80q-16 31 -39 50q-20 16 -55 27q-15 5 -34 6q-6 0 -20 2t-22 3v43h617q212 0 336 -87q125 -87 125 -257q0 -112 -51 -191q-50 -77 -121 -117q-49 -26 -144 -55
q-90 -27 -221 -27h-141v-268q0 -85 5 -133q4 -41 23 -80q16 -31 39 -50q21 -17 56 -28q27 -8 77 -12v-43zM459 688h141q115 0 181 25q63 24 96 69q32 43 43 103q10 57 10 110q0 136 -66 208q-67 73 -219 73h-139q-20 0 -27 -1q-9 -1 -14 -9q-6 -8 -6 -41v-537z" />
    <glyph glyph-name="Q" unicode="Q" horiz-adv-x="1433" 
d="M717 1372q134 0 250 -52t202 -144q88 -94 137 -222q50 -130 50 -282q0 -133 -37 -245q-38 -117 -102 -202q-65 -88 -156 -148q-90 -60 -195 -87h2q-27 -5 -87 -24q-25 -8 -97 -34q-50 -18 -93 -36q-48 -20 -73 -33v-10q32 7 56 8q36 2 57 2q99 0 183 -26q82 -25 142 -66
q84 -56 160 -101q73 -43 152 -43q42 0 73 17q33 18 55 40q24 24 40 50q22 36 28 45l45 -25q-21 -42 -54 -103q-30 -54 -66 -95q-12 -15 -36 -33q-27 -20 -56 -34q-34 -16 -69 -26q-36 -10 -81 -10q-87 0 -169 46q-84 47 -165 124q-41 37 -78 72q-38 35 -77 61q-41 27 -81 43
q-43 17 -92 17q-38 0 -74 -25q-34 -24 -34 -65q0 -7 2 -23q1 -12 6 -27q4 -16 4 -42q0 -27 -4 -52q-7 -46 -38 -61q-30 -15 -58 -15q-37 0 -64 27q-26 26 -26 82q0 57 27 105q25 44 69 85q37 34 85 64q37 23 79 43q22 11 68 32q41 18 96 36q-119 17 -216 74
q-102 60 -173 149q-72 90 -114 210t-42 259q0 152 50 282t136 222q85 91 203 144q116 52 250 52zM717 43q113 0 201 55q42 28 78 70q40 47 66 111q28 70 44 163t16 230q0 136 -16 229q-16 96 -44 163q-25 62 -66 109q-36 42 -78 70q-88 55 -201 55t-201 -55q-44 -29 -79 -70
q-39 -45 -65 -109q-28 -67 -44 -163q-17 -99 -17 -229q0 -131 17 -230q16 -93 44 -163q27 -66 65 -111q35 -41 79 -70q88 -55 201 -55z" />
    <glyph glyph-name="R" unicode="R" horiz-adv-x="1355" 
d="M504 1276q-20 0 -27 -1q-9 -1 -14 -9q-6 -8 -6 -41v-504h170q55 0 100 5q40 4 69 14q26 9 47 25q19 14 36 38q28 38 43 88q14 46 14 115q0 134 -62 202t-200 68h-170zM653 0h-594v43q46 2 74 12q33 11 55 28q23 19 39 50q20 42 24 80q5 48 5 133v655q0 86 -5 134
q-4 37 -24 79q-17 33 -39 51q-20 16 -55 27q-34 9 -74 13v43h643q100 0 184 -23q85 -23 141 -65q59 -44 90 -105q32 -62 32 -141q0 -94 -44 -156q-43 -60 -106 -102q-32 -19 -72 -35q-50 -19 -124 -35v-12q49 -6 94 -21q48 -16 74 -35q47 -30 83 -79q37 -50 58 -156
q24 -134 53 -206q28 -70 64 -95q23 -16 54 -27q27 -9 73 -14v-41h-334q-33 38 -61 113q-27 74 -39 161q-4 30 -16 106q-8 51 -16 82q-9 35 -24 64q-18 34 -35 56q-35 41 -86 53t-116 12h-172v-301q0 -85 5 -133q4 -41 23 -80q16 -31 39 -50q21 -17 56 -28q27 -11 73 -12v-43
z" />
    <glyph glyph-name="S" unicode="S" horiz-adv-x="1058" 
d="M545 -29q-113 0 -203 37q-92 38 -143 84h-11l-53 -84h-39l-18 447h43q29 -85 74 -163q44 -76 98 -130q56 -56 119 -86q65 -31 133 -31q135 0 199 66q65 67 65 165q0 67 -23 116q-22 48 -64 85q-41 36 -102 67q-42 21 -137 62q-74 30 -136 63q-68 36 -119 82
q-53 48 -84 112q-31 63 -31 155q0 79 29 143q31 68 82 113q54 48 122 73t152 25q57 0 99 -6q46 -6 74 -16q33 -11 57 -25q34 -20 52 -31h11l43 62h51l33 -391h-48q-30 82 -71 147q-45 72 -86 107q-36 30 -84 56q-43 23 -131 23q-38 0 -74 -13q-37 -13 -68 -38
q-32 -25 -49 -60q-18 -36 -18 -83q0 -74 25 -120q24 -44 67 -79q38 -31 93 -56q79 -36 106 -50q105 -53 153 -77q71 -35 130 -83q53 -43 90 -111q34 -62 34 -157q0 -97 -37 -170q-39 -76 -98 -125q-62 -51 -141 -78t-166 -27z" />
    <glyph glyph-name="T" unicode="T" horiz-adv-x="1277" 
d="M739 346q0 -85 5 -133q4 -38 24 -80q16 -31 39 -50q22 -17 55 -28q27 -10 74 -12v-43h-594v43q46 2 74 12q33 11 55 28q23 19 39 50q20 42 24 80q5 48 5 133v930h-56q-74 0 -136 -14q-66 -15 -130 -62q-41 -32 -59 -50q-26 -26 -42 -46q-17 -21 -31 -48
q-4 -8 -13.5 -26.5t-14.5 -28.5h-43l60 347h1130l60 -347h-43l-14 28t-14 27q-14 27 -31 48q-16 20 -42 46q-18 18 -59 50q-64 47 -130 62q-62 14 -136 14h-56v-930z" />
    <glyph glyph-name="U" unicode="U" horiz-adv-x="1452" 
d="M1233 451q0 -105 -15 -177q-14 -69 -59 -137q-50 -77 -150 -120q-103 -44 -264 -44q-79 0 -157 15q-79 15 -146 45q-63 28 -118 78q-52 48 -76 114q-11 28 -18 64q-5 26 -11 76q-5 40 -6 75q-2 50 -2 66v495q0 86 -5 134q-4 37 -24 79q-16 33 -39 51q-20 16 -55 27
q-34 9 -74 13v43h594v-43q-40 -4 -73 -13q-37 -12 -56 -27q-23 -18 -39 -51q-19 -39 -23 -79q-5 -48 -5 -131v-572q0 -50 4 -91q5 -49 20 -95q17 -56 49 -93q33 -38 77 -62q43 -24 95 -33q51 -9 107 -9q252 0 334 135q27 45 40 108q11 55 11 146v606q0 86 -11 123
q-13 42 -34 68t-43 38q-20 11 -49 19q-14 4 -40 7q-3 0 -20 2.5t-26 3.5v43h512v-43q-11 -2 -26.5 -4.5t-19.5 -3.5q-16 -3 -38 -9q-26 -7 -46 -21q-21 -15 -38 -40q-19 -25 -28 -63t-9 -120v-593z" />
    <glyph glyph-name="V" unicode="V" horiz-adv-x="1290" 
d="M713 285h14l256 743q19 51 25 81q8 38 8 71q0 40 -18 67t-46 39q-16 7 -44 12q-36 6 -56 7v43h459v-43q-4 -1 -54 -10q-23 -4 -45 -17q-39 -23 -69 -78q-36 -66 -78 -182l-373 -1028h-78l-376 1034q-18 52 -38 94q-22 45 -40 70q-23 34 -49 56q-22 19 -54 36
q-20 9 -37 14q-34 10 -40 11v43h618v-43q-72 -6 -104 -17q-32 -12 -52 -28q-22 -18 -22 -66q0 -49 16 -97q22 -66 33 -96z" />
    <glyph glyph-name="W" unicode="W" horiz-adv-x="1959" 
d="M684 309h14l254 778q-19 51 -28 72q-11 24 -29 49q-25 36 -45 53q-18 16 -49 27q-39 16 -78 17v43h612v-43q-74 -6 -104 -15q-31 -11 -50 -25q-22 -16 -22 -63q0 -44 16 -100q17 -61 31 -98l211 -695h15l221 719q13 43 25 89q10 40 10 71q0 39 -19 63q-18 23 -47 35
q-16 7 -44 12q-36 6 -56 7v43h458v-43q-11 -2 -32 -6l-21 -4q-23 -4 -45 -17q-32 -18 -70 -78q-32 -53 -77 -182l-344 -1028h-74l-324 981l-336 -981h-73l-338 1018q-21 68 -44 115q-20 42 -40 69q-23 33 -47 54q-19 17 -52 34q-21 9 -39 14q-5 1 -14.5 3.5t-16.5 4.5t-13 3
v43h618v-43q-72 -6 -104 -17q-34 -13 -51 -27q-21 -18 -21 -59q0 -50 14 -91t33 -107z" />
    <glyph glyph-name="X" unicode="X" horiz-adv-x="1253" 
d="M606 1348v-43q-71 -6 -120 -20q-46 -13 -46 -58q0 -38 11 -60q9 -18 34 -57l203 -307l168 235q30 46 54 84t24 78q0 34 -19 56q-18 21 -47 32q-15 6 -39 9q-11 1 -53 8v43h498v-43q-12 -1 -41 -12q-22 -8 -43 -17q-20 -10 -49 -27q-27 -17 -51 -39q-29 -27 -55 -58
q-35 -41 -85 -116l-217 -301l262 -393q64 -98 79 -119q39 -57 73 -91q38 -38 79 -60q43 -23 97 -29v-43h-629v43q29 1 60 8q28 6 51 18q24 13 37 26q14 14 14 40q0 29 -12 58q-12 28 -56 92l-196 295l-195 -271q-30 -47 -54 -84t-24 -78q0 -34 19 -56q18 -21 47 -32
q15 -6 39 -9q42 -5 53 -7v-43h-497v43q14 1 40 11q7 3 15 6t16 6.5t12 5.5q32 15 50 26q27 16 51 39q21 19 54 59q38 46 85 115l244 336l-240 359q-55 82 -88 130q-39 56 -73 90q-36 36 -73 54q-40 19 -93 25v43h626z" />
    <glyph glyph-name="Y" unicode="Y" horiz-adv-x="1216" 
d="M199 1098q-30 54 -62 98q-27 37 -52 58t-51 33t-54 18v43h575v-43q-72 -6 -104 -17q-69 -23 -61 -76q8 -56 56 -139l218 -389h10l196 354q39 68 54 105q14 35 14 76q0 35 -13 48q-12 12 -42 23q-16 6 -41 9l-41 6v43h436v-43q-49 -6 -88 -26t-69 -53q-33 -36 -62 -84
q-32 -53 -70 -120l-248 -449v-227q0 -75 6 -133q4 -41 23 -80q16 -31 39 -50q22 -17 55 -28q27 -10 74 -12v-43h-594v43q46 2 74 12q33 11 55 28q23 19 39 50q20 42 24 80q5 48 5 133v229z" />
    <glyph glyph-name="Z" unicode="Z" horiz-adv-x="1206" 
d="M1120 1296l-790 -1224h190q70 0 122 3q56 3 94 10q50 9 75 18q37 13 66 28q54 28 90 58q32 27 65 65q26 30 52 69q12 18 53 72h49l-125 -395h-989v51l800 1225h-229q-40 0 -94 -2q-36 -1 -76 -10q-29 -6 -64 -22q-33 -15 -59 -34q-56 -42 -103 -97q-58 -68 -102 -136h-49
l97 373h927v-52z" />
    <glyph glyph-name="a" unicode="a" horiz-adv-x="851" 
d="M844 14q-14 -10 -61 -22t-105 -12q-38 0 -60 6t-38 16q-17 11 -33 37q-15 24 -15 72h-12q-8 -20 -25 -41q-18 -22 -45 -42q-25 -18 -68 -34q-38 -14 -91 -14q-52 0 -91 14q-42 15 -75 42t-51 69q-19 44 -19 98q0 36 16 81q14 40 50 74q47 41 95 62q46 20 124 43
q85 23 123 43q41 21 57 49l2 168q0 61 -27 85q-26 23 -85 23q-61 0 -93 -22q-15 -9 -29 -35q-14 -25 -20 -63q-12 -84 -86 -84q-34 0 -57 21t-23 59q0 51 41 92q34 35 105 62q75 28 160 28q132 0 212 -41q78 -40 78 -143q0 -45 -1 -85q-1 -21 -1.5 -66t-0.5 -68
q-1 -24 -1 -72t-1 -72q-1 -48 -1 -119q0 -67 5 -100q4 -24 14 -45q17 -33 57 -33q17 0 35 3q19 3 28 7zM520 485q-13 -13 -49 -30q-13 -6 -40.5 -18.5t-39.5 -18.5q-43 -19 -74 -36q-34 -18 -51 -40q-17 -21 -29 -56q-12 -34 -12 -75q0 -85 39 -115t86 -30q60 0 104 30
q43 30 60 86z" />
    <glyph glyph-name="b" unicode="b" horiz-adv-x="1013" 
d="M559 813q-52 0 -90 -13q-39 -13 -74 -44q-25 -22 -52 -70q-26 -46 -26 -121v-237q0 -74 13 -128q12 -49 41 -83q32 -37 76 -54q47 -18 88 -18q119 0 174 105q55 104 55 284q0 106 -15 178q-14 69 -43 117q-27 45 -65 65q-37 19 -82 19zM309 1401q13 0 13 -12
q0 -17 -1.5 -52.5t-1.5 -43.5q-2 -70 -2 -134v-409h7q49 76 116 107q69 32 154 32q65 0 131 -24q64 -23 118 -77q52 -52 84 -140q31 -86 31 -214q0 -121 -37 -205q-37 -85 -98 -141q-60 -56 -133 -81q-72 -25 -147 -25q-77 0 -146 36q-72 37 -106 97h-21l-84 -119h-49
q3 30 5 91q1 31 1 85v1022q0 10 -2 50q-1 29 -6 44q-10 32 -35 49q-18 10 -38 15q-20 4 -48 6v43h295z" />
    <glyph glyph-name="c" unicode="c" horiz-adv-x="874" 
d="M489 831q-36 0 -69 -10q-38 -12 -62 -30q-112 -88 -112 -355q0 -134 30 -214q29 -78 86 -122q55 -43 132 -43q64 0 114 16q48 16 79 42q33 28 51 60q21 37 32 69l57 -23q-35 -113 -119 -177q-85 -64 -233 -64q-78 0 -140 22t-116 64q-78 60 -121 153t-43 217
q0 105 36 189q36 85 95 142q60 59 139 90q81 32 164 32q65 0 111 -9q47 -9 80 -24q35 -16 54 -32q35 -30 38 -33q23 -23 32 -47t9 -46q0 -49 -25 -71q-24 -21 -59 -21q-48 0 -69 32q-19 29 -35 81q-16 59 -45 86q-27 26 -91 26z" />
    <glyph glyph-name="d" unicode="d" horiz-adv-x="1017" 
d="M729 0q-8 0 -12 10q-2 14 -2 19v20q-2 46 -2 53v37h-17q-28 -71 -96 -115t-164 -44q-75 0 -142 29q-71 31 -122 88q-54 60 -85 144q-32 87 -32 193q0 121 37 205q39 88 96 141q59 55 135 82q75 27 148 27q93 0 142 -30q52 -31 73 -64h12v399q0 30 -1 49q-2 32 -5 43
q-5 18 -16 29q-12 12 -25 20q-21 12 -42 16q-32 6 -52 7v43h303q12 0 12 -12q0 -4 -1.5 -37.5t-2.5 -55.5q-2 -74 -2 -137v-938q0 -34 1 -49q2 -29 5 -41q12 -51 60 -74q5 -2 30 -8q20 -5 35 -6v-43h-268zM692 604q0 51 -10 87q-11 38 -41 73q-29 30 -63 45q-32 14 -84 14
q-53 0 -97 -22q-43 -22 -79 -70q-33 -44 -53 -121q-19 -72 -19 -176q0 -111 20 -180q21 -72 55 -115q35 -44 76 -61q46 -19 90 -19q97 0 151 72t54 178v295z" />
    <glyph glyph-name="e" unicode="e" horiz-adv-x="890" 
d="M838 236q-41 -113 -131 -185q-89 -71 -230 -71q-93 0 -159 26t-117 72q-76 67 -111 163t-35 193t35 182q35 86 93 145q58 60 133 94q74 34 157 34q95 0 165 -32q66 -30 112 -79q41 -44 63 -105q21 -58 21 -110q0 -38 -1 -56q-2 -28 -6 -44h-581v-29q0 -48 4 -87
q5 -52 14 -85q11 -42 27 -77t43 -62q30 -32 70 -49q44 -19 102 -19q59 0 107 20q43 18 80 50q35 30 57 66q17 27 36 69zM346 784q-33 -33 -61 -95q-28 -61 -35 -163h350q29 0 45 19q14 17 14 71q0 62 -10 99q-11 39 -37 67q-24 26 -54 37q-32 12 -83 12q-33 0 -66 -10
q-35 -11 -63 -37z" />
    <glyph glyph-name="f" unicode="f" horiz-adv-x="591" 
d="M61 0v41q17 2 32 6q24 7 26 8q47 23 59 74q3 12 5 41q1 15 1 49v578h-135v71h135v176q0 54 9 106q8 44 21 77q12 29 32 56q15 20 37 42q32 32 92 59t131 27q76 0 116 -11q44 -12 70 -28q82 -46 82 -131q0 -40 -23 -63q-25 -25 -63 -25q-64 0 -86 49q-6 12 -9 27
q-5 25 -7 33q-7 30 -15 42q-2 3 -7 9.5t-7 9.5q-10 14 -31 20q-25 7 -37 7q-76 0 -106 -70q-14 -28 -19 -75q-6 -58 -6 -99v-238h222v-71h-222v-578q0 -34 1 -49q2 -23 6 -41q6 -28 17 -44q12 -19 38 -30q6 -3 35 -8q24 -4 47 -6v-41h-441z" />
    <glyph glyph-name="g" unicode="g" horiz-adv-x="958" 
d="M248 340q-67 34 -111 98q-43 62 -43 156q0 68 28 124q27 54 74 92t105 58q60 21 125 21q171 0 270 -133h17q29 58 71 86q39 26 88 26q56 0 81 -30q26 -31 26 -72q0 -37 -22 -56q-21 -18 -50 -18q-42 0 -63 37q-9 15 -20 30q-8 11 -29 11q-17 0 -34 -14q-18 -15 -18 -49
q0 -12 5 -29q2 -6 4.5 -17.5t3.5 -15.5q2 -14 3 -23t1 -28q0 -71 -29 -127q-28 -54 -75 -92t-106 -57q-58 -19 -124 -19h-2q-8 0 -44 2t-46 2q-25 0 -45 -4q-25 -5 -42 -14q-21 -11 -32 -28q-12 -18 -12 -44q0 -37 29 -56q31 -20 79 -20q2 0 56 2q34 1 88 3q47 2 90 3
q58 2 65 2q61 0 108 -10q50 -11 87 -37q36 -26 57 -72t21 -120q0 -87 -43 -151q-42 -62 -113 -107q-69 -44 -156 -65q-85 -21 -174 -21q-204 0 -295 61q-92 62 -92 154q0 78 63 129q64 52 173 80v12q-66 11 -111 50q-47 41 -47 104q0 38 15 68q14 28 40 51q23 20 53 35
q28 14 52 20v12zM762 -141q0 67 -41 94t-111 29q-60 2 -119 -1q-56 -3 -116 -8q-56 -8 -69 -11q-37 -7 -70 -27q-36 -21 -55 -53q-21 -34 -21 -89q0 -93 66 -131q65 -37 192 -37q55 0 119 14q63 14 111 40q49 27 82 72q32 44 32 108zM258 594q0 -127 49 -182q50 -56 117 -56
t120 56q52 55 52 182t-52 183q-52 57 -120 57t-117 -57q-49 -56 -49 -183z" />
    <glyph glyph-name="h" unicode="h" horiz-adv-x="1079" 
d="M911 221q0 -34 1 -49q2 -23 6 -41q12 -51 59 -74q4 -2 25 -8q15 -4 32 -6v-43h-416v43q17 2 32 6q24 7 26 8q26 11 38 30q11 16 17 44q3 12 5 41q1 15 1 49v443q0 70 -39 108q-31 29 -98 29q-54 0 -106 -26t-84 -70q-26 -35 -37 -81q-13 -52 -13 -96v-307q0 -34 1 -49
q2 -23 6 -41q6 -28 17 -44q12 -19 38 -30q4 -2 25 -8q15 -4 32 -6v-43h-416v43q17 2 32 6q24 7 26 8q47 23 59 74q3 12 5 41q1 15 1 49v973q0 30 -1 49q-2 32 -5 43q-10 33 -37 49q-34 22 -86 23v43h295q13 0 13 -12q0 -17 -1.5 -52.5t-1.5 -43.5q-2 -70 -2 -134v-422h15
q34 53 90 92q84 60 203 60q96 0 159 -45q84 -61 84 -182v-441z" />
    <glyph glyph-name="i" unicode="i" horiz-adv-x="528" 
d="M274 1114q-45 0 -78 31q-32 30 -32 78q0 47 32 77q33 31 78 31q46 0 79 -31q32 -30 32 -77q0 -48 -32 -78q-33 -31 -79 -31zM360 221q0 -34 1 -49q2 -23 6 -41q12 -51 59 -74q2 -1 26 -8q15 -5 31 -6v-43h-420v43q17 2 32 6q24 7 26 8q47 23 59 74q3 12 5 41q1 15 1 49
v441q0 30 -1 49q-2 32 -5 43q-10 33 -37 49q-32 20 -86 22v43h295q13 0 13 -12q0 -10 -1.5 -38t-2.5 -45q-1 -31 -1 -111v-441z" />
    <glyph glyph-name="j" unicode="j" horiz-adv-x="501" 
d="M268 1114q-46 0 -79 31q-31 30 -31 78q0 47 31 77q33 31 79 31t79 -31q32 -30 32 -77q0 -48 -32 -78q-33 -31 -79 -31zM180 662q0 30 -1 49q-2 32 -5 43q-10 33 -37 49q-32 20 -86 22v43h295q12 0 12 -12q-2 -42 -3 -83q-1 -31 -1 -111v-685q0 -87 -14 -142
q-15 -57 -36 -100q-20 -40 -49 -69q-24 -24 -52 -45q-27 -22 -75 -40q-44 -17 -105 -17q-93 0 -154 43q-74 50 -74 133q0 48 27 72t59 24q51 0 72 -27q20 -26 20 -59v-15q0 -2 -2 -16l-3 -21q-1 -8 -1 -20q0 -27 18 -42t46 -15q27 0 54 8q24 7 48 31q23 23 35 65t12 113v824
z" />
    <glyph glyph-name="k" unicode="k" horiz-adv-x="1005" 
d="M522 522q92 -8 168 -51t94 -121q15 -68 38 -143q21 -67 50 -98q14 -16 47 -40q28 -20 87 -26v-43h-295q-15 13 -21 28q-8 19 -15 47q-11 44 -17 73q-12 56 -25 106q-8 31 -23 75q-11 34 -30 65q-17 28 -45 50q-26 20 -70 31l-105 -88v-166q0 -34 1 -49q2 -23 6 -41
q12 -51 59 -74q23 -9 61 -14v-43h-424v43q17 2 32 6q24 7 26 8q47 23 59 74q3 12 5 41q1 15 1 49v973q0 30 -1 49q-2 32 -5 43q-10 33 -37 49q-34 22 -86 23v43h295q13 0 13 -12q0 -10 -1.5 -38t-2.5 -45q-1 -31 -1 -112v-735l185 157q43 36 73 71q27 31 27 67q0 25 -12 37
q-13 12 -29 20q-21 9 -76 14v43h424v-43q-56 -11 -125 -53q-11 -7 -59 -45q-54 -43 -129 -106z" />
    <glyph glyph-name="l" unicode="l" horiz-adv-x="528" 
d="M360 221q0 -34 1 -49q2 -23 6 -41q12 -51 59 -74q2 -1 26 -8q15 -5 31 -6v-43h-420v43q17 2 32 6q24 7 26 8q47 23 59 74q3 12 5 41q1 15 1 49v973q0 30 -1 49q-2 32 -5 43q-10 33 -37 49q-34 22 -86 23v43h295q13 0 13 -12q0 -10 -1.5 -38t-2.5 -45q-1 -31 -1 -112v-973
z" />
    <glyph glyph-name="m" unicode="m" horiz-adv-x="1572" 
d="M883 221q0 -34 1 -49q2 -29 5 -41q12 -51 59 -74q3 -1 7 -2.5t9 -3t8 -2.5q14 -5 29 -6v-43h-411v43q17 2 32 6q21 6 25 8q26 11 38 30q11 16 17 44q4 18 6 41q1 15 1 49v443q0 30 -7 61q-6 26 -28 47q-17 17 -36 23q-20 6 -54 6q-55 0 -99 -26q-42 -24 -75 -70
q-26 -35 -37 -81q-13 -52 -13 -96v-307q0 -34 1 -49q2 -23 6 -41q6 -28 17 -44q12 -19 38 -30q4 -2 25 -8q15 -4 32 -6v-43h-416v43q17 2 32 6q24 7 26 8q47 23 59 74q3 12 5 41q1 15 1 49v441q0 30 -1 49q-2 32 -5 43q-10 33 -37 49q-32 20 -86 22v43h291q12 0 12 -12
l-4 -131h15q37 61 90 102q74 62 180 62q55 0 92 -10q41 -11 70 -37q50 -43 67 -117h13q40 65 102 109q77 55 178 55q55 0 92 -10q41 -11 70 -37q37 -31 59 -77q21 -43 21 -106v-438q0 -34 1 -49q2 -29 5 -41q12 -51 59 -74q2 -1 26 -8q15 -4 32 -6v-43h-416v43q17 2 32 6
q21 6 25 8q26 11 38 30t18 44q3 12 5 41q1 15 1 49v443q0 34 -6 61q-6 25 -29 47q-17 17 -36 23q-20 6 -54 6q-54 0 -98 -26q-43 -25 -76 -70q-26 -35 -37 -81q-12 -48 -12 -96v-307z" />
    <glyph glyph-name="n" unicode="n" horiz-adv-x="1079" 
d="M911 221q0 -34 1 -49q2 -23 6 -41q12 -51 59 -74q4 -2 25 -8q15 -4 32 -6v-43h-416v43q17 2 32 6q24 7 26 8q26 11 38 30q11 16 17 44q3 12 5 41q1 15 1 49v443q0 70 -39 108q-31 29 -98 29q-54 0 -106 -26t-84 -70q-26 -35 -37 -81q-13 -52 -13 -96v-307q0 -34 1 -49
q2 -23 6 -41q6 -28 17 -44q12 -19 38 -30q4 -2 25 -8q15 -4 32 -6v-43h-416v43q17 2 32 6q24 7 26 8q47 23 59 74q3 12 5 41q1 15 1 49v441q0 30 -1 49q-2 32 -5 43q-10 33 -37 49q-32 20 -86 22v43h291q12 0 12 -12l-4 -131h15q40 65 108 109q83 55 189 55q96 0 159 -45
q84 -61 84 -182v-441z" />
    <glyph glyph-name="o" unicode="o" horiz-adv-x="966" 
d="M55 436q0 104 35 189q34 83 93 142t136 90q79 32 164 32t164 -32q77 -31 136 -90q61 -61 94 -142q34 -83 34 -189q0 -105 -34 -189q-33 -83 -94 -145q-58 -60 -136 -91q-77 -31 -164 -31t-164 31q-78 31 -136 91q-59 60 -93 145q-35 87 -35 189zM721 436q0 266 -113 355
q-25 20 -58 29q-32 9 -67 9t-66 -9q-34 -10 -59 -29q-112 -88 -112 -355q0 -266 112 -354q55 -43 125 -43t125 43q113 89 113 354z" />
    <glyph glyph-name="p" unicode="p" horiz-adv-x="1034" 
d="M784 434q0 106 -15 178q-14 69 -43 117q-28 46 -64 65q-37 19 -82 19q-52 0 -87 -13q-36 -13 -71 -44q-25 -22 -52 -70q-26 -46 -26 -121v-239q0 -78 12 -128q12 -49 41 -83q32 -37 74 -54q43 -18 84 -18q119 0 174 105q55 104 55 286zM47 -395q17 2 32 6q21 6 25 8
q48 23 60 74q3 12 5 41q1 15 1 49v878q0 31 -1 50q-2 32 -5 43q-10 33 -37 49q-32 20 -86 22v43h291q12 0 12 -12l-2 -117h6q44 75 113 113q67 37 153 37q65 0 131 -24q64 -23 118 -77q52 -52 84 -140t32 -214q0 -121 -37 -205q-39 -88 -96 -141q-59 -55 -132 -82
q-69 -26 -147 -26q-126 0 -211 73h-12v-270q0 -34 1 -49q2 -29 5 -41q12 -51 60 -74q6 -2 28 -8q18 -5 45 -6v-41h-436v41z" />
    <glyph glyph-name="q" unicode="q" horiz-adv-x="1030" 
d="M692 604q0 51 -10 87q-11 38 -41 73q-29 30 -63 45q-32 14 -84 14q-53 0 -97 -22q-43 -22 -79 -70q-33 -44 -53 -121q-19 -72 -19 -176q0 -111 20 -180q21 -72 55 -115q35 -44 76 -61q46 -19 90 -19q97 0 151 72t54 178v295zM754 768l88 115h57q-2 -18 -4.5 -52.5
t-3.5 -51.5q-4 -47 -4 -113v-883q0 -34 1 -49q2 -29 5 -41q12 -51 59 -74q2 -1 26 -8q15 -4 32 -6v-41h-432v41q14 1 38 5q19 3 35 9q25 11 37 29q14 20 19 45q3 12 5 41q1 15 1 49v328h-17q-28 -60 -96 -96q-66 -35 -164 -35q-75 0 -142 29q-71 31 -122 88q-54 60 -85 144
q-32 87 -32 193q0 121 40 205q41 86 103 141q63 55 140 82q78 27 151 27q82 0 143 -28q57 -26 107 -93h15z" />
    <glyph glyph-name="r" unicode="r" horiz-adv-x="772" 
d="M369 702q29 59 50 83q32 36 50 51q20 18 65 36q42 17 91 17q29 0 57 -9q26 -8 49 -28q13 -13 22 -32q9 -20 9 -54q0 -37 -20 -66q-19 -28 -68 -28q-42 0 -61 21q-17 19 -29 55q-15 40 -56 40q-22 0 -48 -18q-25 -18 -50 -49t-43 -72q-17 -39 -22 -86q-3 -24 -4 -50
q-1 -25 -1 -73v-219q0 -34 1 -49q2 -23 6 -41q6 -27 18 -45t37 -29q16 -6 35 -9q23 -4 39 -5v-43h-433v43q17 2 32 6q24 7 26 8q47 23 59 74q3 12 5 41q1 15 1 49v441q0 30 -1 49q-2 32 -5 43q-10 33 -37 49q-32 20 -86 22v43h291q12 0 12 -12l-6 -154h15z" />
    <glyph glyph-name="s" unicode="s" horiz-adv-x="745" 
d="M705 250q0 -68 -25 -121q-23 -50 -67 -84q-41 -32 -96 -49q-52 -16 -114 -16q-69 0 -132 21q-58 19 -111 69h-8l-33 -70h-37l-10 330h41q41 -124 117 -206q77 -83 178 -83q70 0 113 32q42 31 42 95q0 39 -13 65q-14 28 -40 47q-25 18 -69 37q-9 4 -43 19t-56 24
q-43 18 -100 46q-48 23 -83 54q-37 33 -58 77q-21 45 -21 114q0 46 19 87t57 76q35 32 90 54q52 21 121 21q71 0 123 -19q51 -19 75 -41h6l27 43h33l14 -262h-41q-38 99 -89 158q-52 59 -148 59q-69 0 -108 -32q-40 -33 -40 -86q0 -35 9 -61t32 -47q22 -21 63 -42t99 -43
q21 -8 57.5 -23.5t48.5 -20.5q48 -20 90 -52q37 -29 63 -72q24 -41 24 -98z" />
    <glyph glyph-name="t" unicode="t" horiz-adv-x="616" 
d="M616 82q-46 -61 -106 -82q-57 -20 -119 -20q-59 0 -101 12q-41 12 -77 43q-29 24 -39 58q-10 33 -10 91v615l-150 6v41q45 7 88 30q39 21 73 61q36 42 63 101q27 58 55 150h45v-320h227v-71h-227v-613q0 -56 24 -86t87 -30q43 0 77 11q39 13 66 38z" />
    <glyph glyph-name="u" unicode="u" horiz-adv-x="1056" 
d="M889 221q0 -34 1 -49q2 -29 5 -41q12 -51 59 -74q5 -2 30 -8q20 -5 36 -6v-43h-281q-14 0 -14 18q0 11 -1 24t-1 42v55h-14q-23 -41 -42 -63t-46 -43q-33 -24 -78 -39q-42 -14 -105 -14q-60 0 -120 18t-101 68q-26 29 -40 71q-13 39 -13 115v409q0 31 -1 50q-2 32 -5 43
q-10 33 -37 49q-32 20 -86 22v43h297q12 0 12 -12q0 -11 -1.5 -39.5t-2.5 -45.5q-2 -62 -2 -122v-389q0 -50 7 -82q8 -35 34 -63q27 -29 56 -39t67 -10q34 0 66 11q36 12 63 34q31 25 52 62q21 38 26 91q2 21 5 65q1 17 1 72v261q0 30 -1 49q-2 32 -5 43q-10 33 -37 49
q-37 20 -90 22v43h301q12 0 12 -12q0 -11 -1.5 -39.5t-2.5 -45.5q-2 -62 -2 -122v-428z" />
    <glyph glyph-name="v" unicode="v" horiz-adv-x="915" 
d="M926 825q-5 -1 -29 -5q-18 -3 -33 -13q-4 -3 -23 -19q-12 -11 -26 -30q-16 -22 -33 -61q-32 -72 -41 -93l-247 -612h-66l-242 565q-51 127 -69 168q-17 35 -27 51q-11 17 -29 29q-14 9 -37 14q-20 4 -34 6v43h434v-43q-62 -5 -78 -14q-11 -5 -23 -19t-12 -42
q0 -26 13 -63q16 -47 32 -85l158 -391h10l142 381q5 12 11.5 30t7.5 20q7 20 12 36q8 28 8 32q2 20 2 33q0 28 -12 43q-13 16 -27 25q-19 9 -35 10q-7 1 -18 2.5t-15 1.5v43h326v-43z" />
    <glyph glyph-name="w" unicode="w" horiz-adv-x="1366" 
d="M1376 825q-12 -1 -27 -6q-19 -6 -32 -14q-7 -5 -23 -18q-8 -7 -24 -29q-12 -16 -29 -51q-11 -21 -43 -103l-227 -612h-66l-221 565l-211 -565h-65l-222 565q-31 79 -42 106q-22 54 -27 62q-17 35 -27 51q-11 17 -29 29q-14 9 -37 14q-20 4 -34 6v43h436v-43q-5 0 -39 -5
q-23 -3 -35 -9q-11 -5 -25 -23q-12 -15 -12 -43q0 -26 10 -59q13 -42 27 -84l137 -391h11l151 430l-35 84q-19 41 -27 51q-13 17 -30 29q-13 8 -32 14q-15 5 -27 6v43h409v-43q-21 -1 -36 -5q-10 -2 -23 -9q-13 -6 -26 -23q-11 -14 -11 -43t9 -59q6 -19 28 -84l137 -391h10
l125 381q10 30 18 51q1 3 11 36q4 15 6 31q2 20 2 33q0 29 -11 43q-12 15 -28 25q-20 9 -27 10l-32 4v43h315v-43z" />
    <glyph glyph-name="x" unicode="x" horiz-adv-x="849" 
d="M403 356l-90 -129q-8 -12 -24 -37t-22 -34q-15 -24 -15 -43q0 -37 35 -52q27 -12 67 -18v-43h-342v43q50 11 82 31t44 31q22 20 38 39q1 1 39 50q23 29 45 64l107 154l-170 243q-59 82 -63 88q-27 37 -48 52q-15 11 -36 18t-50 12v43h428v-43q-8 -1 -20.5 -2.5
t-13.5 -1.5q-12 -1 -29 -6q-18 -5 -28 -11q-11 -7 -11 -30q0 -21 10 -37q2 -4 7 -11.5t9.5 -15t9.5 -14.5l115 -168l76 111q59 87 59 123q0 26 -7 34q-8 10 -23 15q-17 7 -31 8q-16 1 -37 6v43h336v-41q-52 -11 -82 -30q-28 -19 -43 -33q-22 -20 -37 -39q-21 -27 -38 -51
q-27 -40 -44 -66l-90 -135l174 -252q36 -50 68 -92q28 -37 53 -55q18 -13 36 -19q21 -7 50 -12v-43h-428v43q8 1 20.5 2.5t13.5 1.5q12 1 29 6q16 4 28 12q11 7 11 29q0 21 -10 37q-2 4 -7 11.5t-9.5 15t-9.5 14.5z" />
    <glyph glyph-name="y" unicode="y" horiz-adv-x="915" 
d="M444 -111q-7 -15 -14.5 -34t-17.5 -42t-16 -37q-27 -64 -62 -110q-32 -43 -81 -73q-46 -29 -120 -29q-63 0 -103 33t-40 81q0 41 24 65t56 24q33 0 55 -14q21 -13 39 -36q22 -24 35 -30q12 -6 32 -6q46 0 77 64q32 66 71 157q22 56 22 100q0 32 -12 61l-203 494
q-51 127 -69 168q-17 35 -27 51q-11 17 -29 29q-14 9 -37 14q-20 4 -34 6v43h434v-43q-5 0 -39 -5q-23 -3 -35 -9q-11 -5 -25 -23q-12 -15 -12 -43q0 -29 12 -60q1 -3 12 -33t19 -50l148 -373h10l152 363q5 12 11.5 30t7.5 20q7 20 12 36q8 28 8 32q2 20 2 33q0 28 -12 43
q-13 16 -27 25q-19 9 -35 10q-7 1 -18 2.5t-15 1.5v43h326v-43q-5 -1 -29 -5q-18 -3 -33 -13q-4 -3 -23 -19q-12 -11 -26 -30q-30 -46 -74 -154z" />
    <glyph glyph-name="z" unicode="z" horiz-adv-x="835" 
d="M748 0h-682v29l485 778v8h-195q-38 0 -65 -12q-25 -11 -53 -39q-40 -39 -68 -70q-27 -31 -70 -84h-49l94 258h613v-34l-473 -775v-6h168q69 0 111 17q41 17 69 49q45 52 73 89q30 41 54 83h47z" />
    <glyph glyph-name="quoteleft" unicode="&#x2018;" horiz-adv-x="374" 
d="M82 1096q0 109 59 174t164 110l19 -39q-68 -31 -104 -67q-38 -38 -38 -78q0 -16 21 -22q44 -16 73 -42t29 -69q0 -41 -27 -70q-27 -28 -75 -28q-49 0 -85 30t-36 101z" />
    <glyph glyph-name="quoteright" unicode="&#x2019;" horiz-adv-x="374" 
d="M293 1249q0 -108 -60 -174t-163 -110l-19 39q68 31 104 67q38 38 38 78q0 16 -21 22q-46 17 -74 42t-28 69q0 42 27 70t75 28q49 0 85 -30t36 -101z" />
    <glyph glyph-name="quotedblleft" unicode="&#x201c;" horiz-adv-x="677" 
d="M324 1341q-68 -31 -104 -67q-38 -38 -38 -78q0 -16 21 -22q45 -17 73 -40q29 -24 29 -71q0 -41 -27 -70q-27 -28 -75 -28q-49 0 -85 30t-36 101q0 109 59 174t164 110zM506 965q-49 0 -85 30t-36 101q0 109 59 174t164 110l19 -39q-68 -31 -104 -67q-38 -38 -38 -78
q0 -16 21 -22q46 -17 74 -42t28 -69q0 -41 -27 -70q-27 -28 -75 -28z" />
    <glyph glyph-name="quotedblright" unicode="&#x201d;" horiz-adv-x="677" 
d="M596 1249q0 -109 -59 -174t-164 -110l-19 39q68 31 104 67q38 38 38 78q0 16 -21 22q-46 17 -74 42t-28 69q0 42 27 70t75 28q49 0 85 -30t36 -101zM293 1249q0 -108 -60 -174t-163 -110l-19 39q68 31 104 67q38 38 38 78q0 16 -21 22q-46 17 -74 42t-28 69q0 42 27 70
t75 28q49 0 85 -30t36 -101z" />
  </font>
</defs>
</svg>
