<?xml version="1.0" standalone="no"?>
<!DOCTYPE svg PUBLIC "-//W3C//DTD SVG 1.1//EN" "http://www.w3.org/Graphics/SVG/1.1/DTD/svg11.dtd" >
<svg xmlns="http://www.w3.org/2000/svg" xmlns:xlink="http://www.w3.org/1999/xlink" version="1.1">
<metadata>
Created by FontForge 20170731 at Thu Dec 17 06:39:32 2020
 By Aleksey,,,
Copyright (c) 2014 Commercial Type.
</metadata>
<defs>
<font id="AustinText-Bold" horiz-adv-x="366" >
  <font-face 
    font-family="Austin Text Bold"
    font-weight="700"
    font-stretch="normal"
    units-per-em="2048"
    panose-1="0 0 0 0 0 0 0 0 0 0"
    ascent="1638"
    descent="-410"
    x-height="903"
    cap-height="1348"
    bbox="-274 -600 2136 1411"
    underline-thickness="75"
    underline-position="-269"
    unicode-range="U+000D-201D"
  />
<missing-glyph 
 />
    <glyph glyph-name=".notdef" 
 />
    <glyph glyph-name=".null" horiz-adv-x="0" 
 />
    <glyph glyph-name="nonmarkingreturn" unicode="&#xd;" 
 />
    <glyph glyph-name="NULL" horiz-adv-x="0" 
 />
    <glyph glyph-name="NULL" horiz-adv-x="0" 
 />
    <glyph glyph-name="space" unicode=" " 
 />
    <glyph glyph-name="comma" unicode="," horiz-adv-x="524" 
d="M424 94q0 -66 -25 -132q-24 -63 -67 -115q-44 -53 -103 -90t-127 -58l-18 53q44 16 78 38t63 49q27 25 42 51q16 27 16 47q0 36 -33 43q-67 11 -106 47q-40 37 -40 106q0 71 49 111q48 39 105 39q73 0 120 -50q46 -49 46 -139z" />
    <glyph glyph-name="hyphen" unicode="-" horiz-adv-x="667" 
d="M109 449v159h450v-159h-450z" />
    <glyph glyph-name="period" unicode="." horiz-adv-x="499" 
d="M98 123q0 60 40 104q40 45 112 45q70 0 111 -45q40 -44 40 -104t-40 -106t-111 -46q-72 0 -112 46t-40 106z" />
    <glyph glyph-name="zero" unicode="0" horiz-adv-x="1161" 
d="M582 47q51 0 86 29t56 91q23 69 30 160q8 104 8 236t-8 238q-7 93 -30 160q-21 61 -56 90q-34 28 -86 28t-86 -28q-37 -30 -57 -90q-21 -62 -30 -160q-10 -110 -10 -238q0 -276 39 -396t144 -120zM63 563q0 142 45 255q43 109 116 183q71 73 166 111q92 37 192 37
t190 -37q92 -38 164 -111q73 -74 116 -183q44 -111 44 -255t-44 -255q-43 -109 -116 -183q-72 -73 -164 -111q-90 -37 -190 -37t-192 37q-95 38 -166 111q-73 74 -116 183q-45 113 -45 255z" />
    <glyph glyph-name="one" unicode="1" horiz-adv-x="684" 
d="M43 0v53q8 1 37 7l37 10q18 11 32 23q15 13 25 40q14 38 14 119v582q0 39 -1 59q-2 32 -3 53q-5 32 -17 44q-15 15 -30 22q-17 8 -46 12q-30 5 -58 6v55q68 7 120 12q85 9 156 19q27 4 57 9q12 2 30.5 6t23.5 5q40 8 43 8q18 3 22 3q25 0 25 -23q0 -17 -1 -32t-1 -49
t-1 -51t-1 -44v-696q0 -33 2 -69q2 -28 12 -50q10 -27 25 -40t30 -23q32 -9 38 -10q29 -6 38 -7v-53h-608z" />
    <glyph glyph-name="two" unicode="2" horiz-adv-x="1067" 
d="M1024 453q0 -2 -1.5 -6.5t-4 -14t-5.5 -18.5q-21 -77 -22 -81q-23 -94 -26 -103q-4 -16 -13.5 -50.5t-14.5 -51.5q-18 -64 -23 -84l-11 -44h-852v70q60 46 106 87q77 68 81 72q63 54 146 137q75 75 130 153q58 83 92 172q35 93 35 194q0 108 -41 147q-40 39 -115 39
q-44 0 -86 -19q-39 -17 -76 -58q-34 -37 -55 -93q-20 -53 -20 -129q0 -61 22 -101t74 -40q50 0 80 34q32 36 53 89l53 -23q-38 -100 -103 -156q-66 -57 -177 -57q-89 0 -149 57t-60 162q0 87 41 163q39 73 112 130q71 56 166 87q98 32 207 32q208 0 313 -78t105 -207
q0 -73 -22 -127q-21 -53 -61 -102t-90 -88q-59 -46 -112 -80q-96 -62 -146 -92q-95 -57 -181 -103v-14h305q44 0 74 6q28 6 54 17q28 12 42 24q24 20 35 31q30 33 48 60q5 8 11 17.5t13.5 21.5t11.5 18h57z" />
    <glyph glyph-name="three" unicode="3" horiz-adv-x="989" 
d="M938 346q0 -78 -40 -145t-114 -117t-177 -78q-105 -29 -230 -29q-167 0 -265 71t-98 181q0 59 38 102q38 42 93 42q54 0 85 -29q29 -28 34 -76q4 -24 -1 -47q-4 -19 -17 -43q-1 -2 -5 -11t-7 -16q-7 -17 -7 -38q0 -34 40 -50q39 -16 110 -16q111 0 174 78t63 248
q0 93 -37 127q-38 35 -98 35q-61 0 -116 -37l-62 -37l-33 55l117 72q91 52 147 134t56 193q0 90 -37 127t-119 37q-86 0 -145 -58q-60 -59 -60 -153q0 -118 88 -118q43 0 70 26t49 68l51 -23q-12 -34 -34 -63q-24 -32 -54 -56q-28 -22 -70 -38q-41 -15 -89 -15q-46 0 -80 17
q-33 16 -54 42q-20 24 -29 59t-9 69q0 71 31 127q32 58 88 99t133 64q78 23 165 23q195 0 288 -59q95 -60 95 -168q0 -55 -25 -98q-25 -44 -72 -81q-46 -37 -109 -67q-75 -36 -138 -58l2 -8q92 8 162 -3q76 -12 131 -43t88 -87q33 -55 33 -131z" />
    <glyph glyph-name="four" unicode="4" horiz-adv-x="1073" 
d="M809 444q47 0 77 10q28 9 48 31q24 24 31 55t12 62h51v-387h-51q-5 35 -12 64t-31 53q-21 22 -48 33q-26 10 -77 10h-39v-123q0 -81 14 -119q10 -27 25 -40q12 -11 33 -23q32 -9 38 -10q29 -6 38 -7v-53h-613v53q12 1 40 7q6 1 38 10q19 12 31 23q13 12 24 40
q12 25 13 49q2 36 2 68v125h-433v71l523 689h213q16 0 16 -21q0 -35 -1 -65t-1 -80v-525h39zM106 444h347v445h-9z" />
    <glyph glyph-name="five" unicode="5" horiz-adv-x="956" 
d="M336 47q116 0 173 85q56 84 56 245q0 71 -12 117t-35 74q-23 27 -52 39q-28 11 -67 11q-65 0 -113 -36q-51 -39 -73 -93l-74 15l146 620h67q22 -8 57 -18q34 -10 52 -13q51 -9 56 -9q30 -3 71 -3q52 0 97 16q39 14 72 37q28 20 49 47q20 25 30 48l51 -8q-18 -92 -50 -159
q-35 -74 -85 -125q-50 -52 -120 -82q-69 -30 -155 -30q-90 0 -186 13l-47 -209l4 -2q40 40 108 61t148 21q191 0 294 -85t103 -247q0 -97 -47 -173q-46 -75 -124 -125q-79 -51 -175 -76q-101 -26 -201 -26q-165 0 -256 71q-90 70 -90 171q0 67 39 104q38 37 92 37
q61 0 87 -32q28 -34 32 -76q4 -21 1 -38q-1 -4 -2 -10.5t-2.5 -16t-2.5 -15.5q-6 -24 -9 -37q-3 -15 -3 -31q0 -57 96 -57z" />
    <glyph glyph-name="six" unicode="6" horiz-adv-x="1048" 
d="M1008 942q0 -59 -30 -98t-97 -39q-52 0 -83 29q-29 28 -34 69q-3 11 -5 31q-1 10 1 31q1 6 4 17.5t5 17.5q5 20 5 32q0 49 -82 49q-67 0 -117 -35t-88 -96q-37 -59 -58 -136q-23 -84 -30 -157h9q28 38 79 59q52 21 119 21q85 0 152 -22q69 -22 122 -68q51 -44 82 -115
q29 -67 29 -161q0 -89 -30 -161q-29 -71 -90 -125q-59 -53 -141 -81q-84 -29 -187 -29q-122 0 -211 40t-150 110q-58 67 -89 161q-30 92 -30 193q0 171 62 298t156 209q97 85 203 124q111 41 208 41q87 0 144 -17t98 -47q37 -27 56 -66q18 -38 18 -79zM541 655
q-31 0 -55 -14q-26 -15 -45 -49q-17 -31 -30 -94q-12 -60 -12 -148q0 -90 11 -153q11 -62 29 -93q19 -33 45 -45t57 -12t56 12q27 12 44 46q19 36 29 93q10 56 10 152q0 102 -10 159q-10 59 -29 93q-18 32 -44 43q-24 10 -56 10z" />
    <glyph glyph-name="seven" unicode="7" horiz-adv-x="913" 
d="M915 1087q-100 -190 -166 -329q-68 -145 -100 -258q-30 -96 -37 -169q-13 -134 -16 -169q-6 -98 -53 -145q-46 -46 -119 -46q-69 0 -115 41q-45 40 -45 119q0 41 12 84q12 42 33 85q25 50 44 82q29 49 46 75q33 51 76 103q58 70 88 104q14 16 44 49.5t45 50.5
q54 62 83 96v8h-416q-27 0 -58 -4q-36 -5 -64 -20q-35 -18 -55 -50q-21 -34 -36 -69h-59l84 467h53q11 -22 37 -45q24 -21 78 -21h616v-39z" />
    <glyph glyph-name="eight" unicode="8" horiz-adv-x="980" 
d="M883 897q0 -76 -52 -134q-51 -57 -122 -91q25 -11 78 -43q37 -22 73 -61q32 -35 52 -85q20 -51 20 -116q0 -92 -33 -164q-33 -73 -93 -122q-61 -50 -143 -77q-83 -27 -184 -27q-84 0 -169 16q-79 15 -137 49q-59 34 -93 84q-35 50 -35 122q0 45 20 83q19 37 50 66t68 50
q36 20 77 36q-98 49 -147 125q-50 77 -50 189q0 86 34 151q36 68 92 110q57 42 137 67q78 24 163 24q88 0 158 -16q68 -16 124 -49q52 -31 82 -78q30 -46 30 -109zM713 199q0 43 -22 74t-67 56q-48 26 -119 53q-26 10 -173 69q-50 -29 -78 -76q-27 -45 -27 -123
q0 -60 21 -101t56 -64q37 -25 81 -32q48 -8 94 -8q108 0 171 39t63 113zM297 940q0 -42 21 -70q19 -26 63 -55q39 -26 102 -52q65 -27 142 -56q42 39 63 82q23 48 23 106q0 103 -63 144q-62 40 -159 40q-87 0 -139 -36q-53 -36 -53 -103z" />
    <glyph glyph-name="nine" unicode="9" horiz-adv-x="1044" 
d="M49 188q0 55 32 95q31 39 99 39q55 0 86 -31q30 -30 35 -76q2 -21 1 -29q-2 -16 -3 -26l-7 -36q-3 -15 -3 -32q0 -22 26 -34q25 -11 56 -11q71 0 121 36q49 35 80 95q33 62 50 136q16 70 23 157h-6q-28 -37 -81 -58q-55 -22 -120 -22q-80 0 -152 23t-123 68t-82 116
q-30 69 -30 162q0 89 33 161q34 73 92 123q62 53 142 79q86 28 184 28q122 0 211 -40q88 -39 149 -110q59 -67 89 -160q30 -92 30 -194q0 -171 -53 -298q-52 -124 -140 -209q-87 -84 -195 -124q-111 -41 -222 -41q-87 0 -147 18q-62 19 -99 47q-39 30 -57 69q-19 41 -19 79z
M502 473q28 0 52 14q25 15 46 49q20 33 32 92q11 54 11 148q0 97 -10 154t-29 92q-18 33 -44 45t-56 12q-34 0 -59 -13q-27 -14 -44 -47q-18 -34 -28 -92q-10 -56 -10 -151q0 -101 10 -158q10 -60 28 -92t44 -43q24 -10 57 -10z" />
    <glyph glyph-name="A" unicode="A" horiz-adv-x="1413" 
d="M752 399h-381l-25 -71q-7 -21 -25 -84q-14 -48 -14 -78q0 -46 19 -68q16 -18 49 -30q37 -14 80 -15v-53h-455v53q24 5 45 9q15 3 43 18q24 13 41 30q18 18 39 48q19 26 38 73q18 45 42 111l362 1014h217l344 -1020q19 -59 42 -106q24 -49 47 -83q37 -49 88 -73
q24 -11 32 -13l33 -8v-53h-741v53q22 1 43 6q18 4 35 9q34 11 52 26q19 16 19 62q0 38 -14 80q-21 63 -33 100zM399 485h324l-154 461h-14z" />
    <glyph glyph-name="B" unicode="B" horiz-adv-x="1396" 
d="M733 1348q104 0 202 -14q96 -14 166 -48q71 -35 111 -94q41 -61 41 -152q0 -112 -60 -172q-58 -58 -161 -98q-32 -14 -68 -22q-54 -11 -83 -15v-10q97 -10 182 -36q82 -25 143 -69q59 -43 93 -102t34 -139q0 -97 -41 -170q-40 -71 -107 -118q-64 -45 -153 -67
q-90 -22 -176 -22h-813v53q8 1 22.5 2.5t18.5 1.5q13 1 35 9q37 11 57 30q22 21 39 68q10 27 13 70q3 42 3 110v662q0 65 -3 107q-3 44 -13 71q-16 46 -39 67q-22 20 -57 31q-18 7 -35 8q-4 0 -18.5 1.5t-22.5 2.5v54h690zM580 674v-381q0 -50 7 -92q8 -48 27 -70
q18 -22 51 -35q31 -12 72 -12h31q96 0 147 55q15 19 28 42q12 20 18 49q6 26 9 64q3 36 3 83q0 70 -10 129q-10 61 -45 100q-33 37 -91 53q-55 15 -120 15h-127zM580 760h122q72 0 108 13q38 14 65 42q27 32 41 95q14 65 14 134q0 123 -49 171q-51 49 -148 49h-106
q-14 0 -21 -1q-9 -1 -16 -10q-10 -10 -10 -26v-467z" />
    <glyph glyph-name="C" unicode="C" horiz-adv-x="1366" 
d="M782 1298q-37 0 -76 -10q-41 -11 -73 -31q-37 -24 -68 -62t-59 -108q-27 -68 -42 -168q-15 -102 -15 -245q0 -138 16 -227t42 -150q25 -58 56 -94q29 -34 60 -58q33 -27 86 -46q48 -17 122 -17q61 0 119 19q59 19 112 60t96 103q45 66 75 150l59 -25q-28 -94 -71 -167
q-44 -76 -110 -132q-65 -56 -149 -87q-87 -32 -192 -32q-165 0 -295 53q-131 53 -218 145q-90 94 -136 221q-47 129 -47 282q0 156 54 287q55 133 148 223q96 93 221 142q127 50 269 50q146 0 246 -44q99 -43 145 -103h8l52 114h49v-471h-56q-24 93 -56 159q-34 71 -75 120
q-55 67 -127 109q-68 40 -170 40z" />
    <glyph glyph-name="D" unicode="D" horiz-adv-x="1525" 
d="M725 1348q125 0 231 -25q102 -24 168 -57q69 -35 128 -87q63 -55 105 -125q43 -72 69 -167q26 -96 26 -213q0 -224 -87 -366t-228 -220q-65 -34 -164 -61t-203 -27h-727v53q8 1 22.5 2.5t18.5 1.5q13 1 35 9q37 11 57 30q22 21 39 68q10 27 13 70q3 42 3 110v660
q0 67 -3 109q-3 44 -13 71q-16 46 -39 67q-22 20 -57 31q-18 7 -35 8q-4 0 -18.5 1.5t-22.5 2.5v54h682zM758 84q55 0 108 20q56 21 101 74q59 66 92 184q33 117 33 312q0 207 -41 328q-40 118 -97 180q-45 46 -112 64q-68 18 -119 18h-96q-14 0 -21 -1q-9 -1 -16 -10
q-10 -10 -10 -28v-938q0 -49 6 -93q6 -46 26 -67q17 -22 50 -33q29 -10 71 -10h25z" />
    <glyph glyph-name="E" unicode="E" horiz-adv-x="1335" 
d="M1198 0h-1155v53q8 1 22.5 2.5t18.5 1.5q13 1 35 9q37 11 57 30q22 21 39 68q10 27 13 70q3 42 3 110v660q0 67 -3 109q-3 44 -13 71q-16 46 -39 67q-22 20 -57 31q-18 7 -35 8q-4 0 -18.5 1.5t-22.5 2.5v54h1128l72 -420h-55q-33 77 -70 137q-38 61 -98 115
q-49 44 -112 64q-65 20 -175 20h-88q-12 0 -27 -3q-12 -3 -24 -14q-14 -15 -14 -49v-461h59q83 0 123 14q38 13 61 42q36 46 47 85q14 46 19 93h55v-551h-55q-6 52 -20 94q-14 41 -48 86q-23 29 -60 41q-38 12 -122 12h-59v-374q0 -49 6 -90t26 -62q34 -43 117 -43h35
q75 0 136 28t110 70q73 60 133 142q56 77 94 151h55z" />
    <glyph glyph-name="F" unicode="F" horiz-adv-x="1267" 
d="M774 0h-731v53q8 1 22.5 2.5t18.5 1.5q13 1 35 9q37 11 57 30q22 21 39 68q10 27 13 71q3 42 3 109v660q0 67 -3 109q-3 44 -13 71q-16 46 -39 67q-22 20 -57 31q-18 7 -35 8q-4 0 -18.5 1.5t-22.5 2.5v54h1112l64 -457h-56q-33 75 -78 146t-102 124q-28 28 -48 43
q-26 19 -54 32q-25 11 -72 20q-43 8 -100 8h-66q-14 0 -29 -3q-14 -3 -22 -14q-14 -14 -14 -49v-444h36q85 0 123 13q40 14 62 42q36 46 47 85q12 40 18 93h56v-551h-56q-6 56 -19 94q-14 41 -48 86q-23 29 -61 41q-41 13 -122 13h-36v-326q0 -73 4 -110q5 -45 14 -70
q17 -47 39 -68q20 -19 57 -30q22 -8 39 -9q8 -1 22 -2.5t21 -1.5v-53z" />
    <glyph glyph-name="G" unicode="G" horiz-adv-x="1443" 
d="M946 356q0 37 -2 83q-2 36 -16 63q-15 33 -32 47q-15 13 -52 24q-18 7 -32 8q-10 1 -34 3v53h668v-53q-6 -1 -18 -2.5t-17 -1.5q-11 -1 -33 -7q-38 -12 -53 -24q-20 -16 -35 -47q-14 -27 -16 -75q-2 -62 -2 -103v-236q-33 -12 -81 -29q-46 -17 -124 -39q-44 -12 -66 -16
q-50 -10 -78 -15q-56 -10 -85 -13q-48 -5 -80 -5q-149 0 -277 51q-123 49 -216 142q-91 91 -141 221t-50 287q0 158 55 287q56 131 151 223q96 93 222 142q129 50 270 50q82 0 143 -16q66 -17 111 -39q50 -24 78 -48q33 -28 47 -46h8l43 96h58v-485h-56q-23 108 -59 181
q-37 75 -84 142q-52 70 -117 107t-172 37q-35 0 -79 -11q-43 -11 -77 -39q-31 -25 -60 -64q-30 -40 -54 -107q-24 -65 -39 -166q-14 -92 -14 -242q0 -152 11 -246q12 -104 33 -172t52 -112q29 -41 67 -62q64 -35 146 -35q72 0 107 14q40 16 57 41q15 21 20 60q4 33 4 84v110
z" />
    <glyph glyph-name="H" unicode="H" horiz-adv-x="1609" 
d="M754 0h-711v53q8 1 22.5 2.5t18.5 1.5q13 1 35 9q37 11 57 30q22 21 39 68q10 27 13 70q3 42 3 110v660q0 67 -3 109q-3 44 -13 71q-16 46 -39 67q-22 20 -57 31q-18 7 -35 8q-4 0 -18.5 1.5t-22.5 2.5v54h711v-54q-14 -1 -37 -5q-19 -3 -35 -9q-34 -16 -52 -36
q-17 -18 -32 -56q-9 -24 -14 -68q-4 -35 -4 -104v-295h450v295q0 69 -4 104q-5 44 -14 68q-11 34 -31 56q-18 19 -53 36q-16 6 -35 9q-23 4 -37 5v54h711v-54q-8 -1 -21 -2.5t-18 -1.5q-17 -1 -37 -8q-35 -11 -57 -31q-22 -21 -37 -67q-10 -28 -15 -71q-4 -37 -4 -109v-660
q0 -73 4 -110q4 -41 15 -70q15 -48 37 -68q20 -19 57 -30q24 -8 37 -9q5 0 18 -1.5t21 -2.5v-53h-711v53q14 1 37 5q14 2 35 10q37 18 53 35q20 21 31 57q9 25 14 67q4 35 4 105v305h-450v-305q0 -70 4 -105q5 -42 14 -67q16 -39 32 -57q17 -18 52 -35q21 -8 35 -10
q23 -4 37 -5v-53z" />
    <glyph glyph-name="I" unicode="I" horiz-adv-x="813" 
d="M580 344q0 -73 4 -110q5 -45 14 -70q17 -47 39 -68q20 -19 57 -30q22 -8 35 -9q4 0 18.5 -1.5t22.5 -2.5v-53h-727v53q8 1 22.5 2.5t18.5 1.5q13 1 35 9q37 11 57 30q22 21 39 68q10 27 13 70q3 42 3 110v660q0 67 -3 109q-3 44 -13 71q-16 46 -39 67q-22 20 -57 31
q-18 7 -35 8q-4 0 -18.5 1.5t-22.5 2.5v54h727v-54q-8 -1 -22.5 -2.5t-18.5 -1.5q-17 -1 -35 -8q-35 -11 -57 -31q-23 -21 -39 -67q-9 -24 -14 -71q-4 -37 -4 -109v-660z" />
    <glyph glyph-name="J" unicode="J" horiz-adv-x="1042" 
d="M485 1004q0 72 -4 109q-5 47 -14 71q-16 46 -39 67q-22 20 -57 31q-18 7 -35 8q-4 0 -18.5 1.5t-22.5 2.5v54h727v-54q-8 -1 -22.5 -2.5t-18.5 -1.5q-17 -1 -35 -8q-35 -11 -57 -31q-22 -21 -37 -67q-9 -24 -14 -71q-4 -37 -4 -109v-535q0 -155 -42 -250
q-41 -92 -100 -145q-63 -55 -147 -78q-92 -25 -193 -25q-65 0 -140 22q-73 21 -114 56q-42 41 -68 85q-28 48 -28 108q0 91 50 138q49 46 122 46q74 0 110 -37q35 -37 40 -100q4 -23 2 -46q-1 -7 -7 -48q-7 -22 -16 -58q-6 -23 -4 -37q4 -27 23 -39q18 -12 45 -12
q31 0 58 16q25 15 42 50q14 33 16 85q2 66 2 126v678z" />
    <glyph glyph-name="K" unicode="K" horiz-adv-x="1490" 
d="M580 680l325 344q74 81 94 106q31 39 31 78q0 32 -13 46q-14 15 -38 26q-24 9 -78 14v54h504v-54q-37 -6 -81 -22q-46 -16 -81 -39q-23 -15 -42 -30t-41 -35q-21 -20 -47 -47q-43 -46 -60 -64l-246 -262v-15q72 -5 115 -14q52 -11 87 -25q43 -17 66 -33q24 -16 55 -44
q29 -30 52 -67q20 -33 40 -82q15 -35 29 -91q14 -54 19 -92q12 -80 21 -109q13 -43 25 -65q14 -24 29 -38q20 -18 31 -26q19 -14 55 -26q31 -10 54 -15v-53h-496q-28 28 -55 104q-26 74 -37 179q-2 28 -7 96q-4 58 -7 86q-4 38 -14 77q-9 36 -27 66q-21 34 -46 52t-73 18
q-30 0 -54 -14q-27 -16 -48 -37l-41 -41v-242q0 -73 4 -110q5 -45 14 -70q17 -47 39 -68q20 -19 57 -30q22 -8 36 -9q6 0 19.5 -1.5t20.5 -2.5v-53h-727v53q8 1 22.5 2.5t18.5 1.5q13 1 35 9q37 11 57 30q22 21 39 68q10 27 13 70q3 42 3 110v660q0 67 -3 109q-3 44 -13 71
q-16 46 -39 67q-22 20 -57 31q-18 7 -35 8q-4 0 -18.5 1.5t-22.5 2.5v54h727v-54q-7 -1 -20.5 -2.5t-19.5 -1.5q-18 -1 -36 -8q-35 -11 -57 -31q-23 -21 -39 -67q-9 -24 -14 -71q-4 -37 -4 -109v-324z" />
    <glyph glyph-name="L" unicode="L" horiz-adv-x="1316" 
d="M43 53q8 1 22.5 2.5t18.5 1.5q13 1 35 9q37 11 57 30q22 21 39 68q10 27 13 70q3 42 3 110v660q0 67 -3 109q-3 44 -13 71q-16 46 -39 67q-22 20 -57 31q-18 7 -35 8q-4 0 -18.5 1.5t-22.5 2.5v54h727v-54q-8 -1 -22.5 -2.5t-18.5 -1.5q-17 -1 -35 -8q-35 -11 -57 -31
q-23 -21 -39 -67q-9 -24 -14 -70q-4 -36 -4 -106v-729q0 -49 6 -90t26 -62q34 -43 117 -43h39q75 0 130 25q50 23 101 71q81 72 129 151q51 83 86 154h54l-74 -485h-1151v53z" />
    <glyph glyph-name="M" unicode="M" horiz-adv-x="1830" 
d="M1788 1294q-8 -1 -22.5 -2.5t-18.5 -1.5q-17 -1 -35 -8q-35 -11 -57 -31q-23 -21 -39 -67q-10 -27 -13 -71q-3 -42 -3 -109v-660q0 -68 3 -110q3 -43 13 -70q17 -47 39 -68q20 -19 57 -30q22 -8 35 -9q4 0 18.5 -1.5t22.5 -2.5v-53h-729v53q8 1 22 2.5t20 1.5q14 1 36 9
q37 11 57 30q22 21 39 68q9 25 14 70q4 37 4 110v772h-14l-369 -1122h-131l-393 1108h-10v-772q0 -94 6 -133q6 -41 22 -64q17 -27 37 -42q15 -11 47 -23q24 -8 35 -9q17 -1 39 -6v-53h-477v53q17 3 74 15q25 8 44 22q23 16 38 41q10 20 13 30q4 13 9 37q4 21 6 53
q2 42 2 79v674q0 58 -3 104q-3 49 -13 76q-15 47 -39 68q-25 22 -57 32q-17 4 -36 6q-7 1 -19.5 2.5t-18.5 1.5v54h594l285 -832h8l284 832h574v-54z" />
    <glyph glyph-name="N" unicode="N" horiz-adv-x="1488" 
d="M1090 -8l-740 1055h-10v-717q0 -37 2 -79q1 -26 5 -54q3 -22 9 -37q3 -8 15 -27q17 -27 37 -42q15 -11 47 -23q24 -8 33 -9q17 -2 40 -6v-53h-477v53q29 4 72 15q25 8 44 22q23 16 38 41q10 20 14 30q6 14 9 37q4 26 5 53q3 63 3 79v532q0 111 -9 194q-7 69 -30 120
q-17 39 -46 63q-24 20 -57 39q-6 2 -32 10q-15 5 -37 6v54h559l583 -838h11v508q0 37 -2 79q-1 17 -6 53q-3 23 -9 37q-4 10 -14 30q-14 23 -38 40q-22 16 -44 23q-11 3 -35 7q-36 6 -41 7v54h479v-54q-23 -5 -37 -6q-12 -1 -36 -8q-29 -11 -47 -24q-20 -15 -37 -42
q-17 -25 -23 -63q-6 -39 -6 -133v-1026h-192z" />
    <glyph glyph-name="O" unicode="O" horiz-adv-x="1486" 
d="M743 1374q145 0 269 -50q122 -49 212 -142t139 -223q50 -132 50 -287q0 -157 -50 -287q-49 -128 -139 -221t-212 -142q-127 -51 -269 -51q-141 0 -268 51q-122 49 -212 142t-139 221q-50 130 -50 287q0 155 50 287q49 130 139 223t212 142q124 50 268 50zM743 43
q42 0 74 7q37 8 66 30q33 22 61 64q29 43 50 111q21 69 33 171q11 94 11 248q0 152 -11 246q-12 102 -33 171q-20 66 -50 110t-61 65q-28 21 -66 29q-37 8 -74 8q-36 0 -73 -8t-68 -29t-61 -65q-28 -41 -49 -110q-19 -64 -32 -171q-11 -93 -11 -246q0 -154 11 -248
q13 -107 32 -171q21 -70 49 -111q28 -42 61 -64t68 -30q32 -7 73 -7z" />
    <glyph glyph-name="P" unicode="P" horiz-adv-x="1302" 
d="M772 0h-729v53q8 1 22.5 2.5t18.5 1.5q13 1 35 9q37 11 57 30q22 21 39 68q9 25 14 70q4 37 4 110v662q0 70 -4 107q-5 47 -14 71q-16 46 -39 67q-22 20 -57 31q-18 7 -35 8q-4 0 -18.5 1.5t-22.5 2.5v54h725q248 0 377 -87t129 -280q0 -49 -12 -96t-35 -88
q-23 -42 -53 -73q-27 -28 -66 -52q-66 -36 -166 -61t-276 -25h-84v-242q0 -73 4 -110q5 -45 14 -70q15 -48 37 -68q20 -19 57 -30q24 -8 37 -9q4 0 18.5 -1.5t22.5 -2.5v-53zM582 674h82q87 0 131 19q45 20 80 65q22 32 34 87q13 59 13 138q0 141 -49 211t-160 70h-70
q-40 0 -53 -13q-8 -8 -8 -34v-543z" />
    <glyph glyph-name="Q" unicode="Q" horiz-adv-x="1486" 
d="M743 1374q145 0 269 -50q122 -49 212 -142t139 -223q50 -132 50 -287q0 -139 -39 -256q-40 -119 -109 -206q-72 -90 -170 -148q-95 -56 -218 -78q-37 -9 -115 -31q-59 -17 -124 -38q-58 -19 -109 -38q-12 -5 -66 -27v-14q52 14 85 19q42 6 91 6q83 0 164 -19
q74 -18 162 -59q110 -55 169 -77q62 -23 126 -23q70 0 105 41q31 36 54 86l56 -17q-10 -64 -30 -131t-54 -119q-37 -59 -106 -101t-169 -42q-119 0 -219 56q-104 58 -188 139q-83 82 -159 137q-73 53 -132 53q-28 0 -45 -13q-19 -14 -19 -38q0 -15 13 -30q13 -14 20 -26
q16 -19 23 -40q8 -23 6 -50q-1 -45 -37 -76q-35 -30 -92 -30q-55 0 -91 38t-36 97q0 73 34 125q37 56 79 90q44 36 92 58q62 29 69 32q15 7 71 28q43 16 103 34q-121 22 -217 78q-97 57 -169 148q-69 87 -109 206q-39 117 -39 256q0 155 50 287q49 130 139 223t212 142
q124 50 268 50zM743 43q42 0 74 7q37 8 66 30q33 22 61 64q29 43 50 111q21 69 33 171q11 94 11 248q0 152 -11 246q-12 102 -33 171q-20 66 -50 110t-61 65q-28 21 -66 29q-37 8 -74 8q-36 0 -73 -8t-68 -29t-61 -65q-28 -41 -49 -110q-19 -64 -32 -171q-11 -93 -11 -246
q0 -154 11 -248q13 -107 32 -171q21 -70 49 -111q28 -42 61 -64t68 -30q32 -7 73 -7z" />
    <glyph glyph-name="R" unicode="R" horiz-adv-x="1470" 
d="M621 1264q-23 0 -31 -11q-10 -10 -10 -28v-512h104q72 0 110 17q40 18 62 54q28 46 35 101q8 59 8 121q0 139 -46 198q-47 60 -138 60h-94zM768 0h-725v53q5 0 18 1.5t21 2.5q21 1 39 6q31 10 56 32q23 20 40 69q11 29 12 64q2 48 2 94v704q0 45 -2 93q-2 37 -12 65
q-17 48 -40 68q-25 22 -56 32q-18 4 -39 6q-8 1 -21 2.5t-18 1.5v54h752q101 0 189 -18q94 -19 156 -57q66 -41 105 -106q39 -66 39 -159q0 -108 -54 -174q-53 -65 -138 -103q-43 -19 -77 -29q-37 -11 -100 -22v-14q64 -7 111 -23t84 -37q51 -28 96 -84q46 -56 62 -147
q22 -133 43 -194q22 -64 57 -97q31 -25 102 -31v-53h-466q-35 40 -55 97q-22 62 -29 149q-11 115 -25 187q-16 81 -51 130q-33 46 -69 56q-34 10 -87 10h-108v-307q0 -58 3 -94q3 -37 13 -64q17 -49 40 -69q25 -22 56 -32q18 -4 38 -6q7 -1 19.5 -2.5t18.5 -1.5v-53z" />
    <glyph glyph-name="S" unicode="S" horiz-adv-x="1153" 
d="M580 -29q-110 0 -204 38t-147 100h-8l-72 -105h-51l-10 485h57q23 -80 67 -166q44 -85 98 -143q56 -61 125 -98q68 -37 149 -37q114 0 166 44q51 43 51 132q0 45 -15 81q-16 39 -48 68q-35 32 -90 61q-65 34 -140 65q-75 30 -146 63q-73 34 -134 89q-60 54 -99 133
t-39 194q0 93 39 166t105 126q67 53 155 80t186 27q114 0 188 -31q72 -30 111 -75h13l47 75h55l37 -440h-55q-21 68 -56 136q-34 67 -67 114q-50 72 -115 111q-66 39 -158 39q-97 0 -149 -50q-51 -49 -51 -116q0 -59 19 -96t56 -66q34 -27 87 -52q58 -27 116 -51
q85 -37 158 -72q77 -37 139 -90t101 -125t39 -177q0 -107 -41 -191q-40 -81 -110 -136q-71 -56 -162 -82q-96 -28 -197 -28z" />
    <glyph glyph-name="T" unicode="T" horiz-adv-x="1353" 
d="M852 322q0 -46 2 -94q1 -35 12 -64q17 -49 40 -69q25 -22 59 -32q17 -5 32 -6q5 0 17 -1.5t18 -2.5v-53h-708v53q6 1 17.5 2.5t16.5 1.5q16 1 33 6q34 11 58 32q22 19 38 69q11 30 14 64q3 36 3 94v950h-39q-62 0 -116 -27q-53 -27 -113 -94q-54 -57 -86 -115
q-54 -97 -78 -143h-54l43 455h1233l41 -455h-53q-41 80 -78 142q-35 60 -84 116q-61 75 -115 98q-55 23 -116 23h-37v-950z" />
    <glyph glyph-name="U" unicode="U" horiz-adv-x="1495" 
d="M1290 467q0 -94 -16 -171q-16 -78 -51 -140q-18 -34 -54 -67q-33 -30 -90 -58q-56 -27 -134 -42q-85 -16 -185 -16q-83 0 -163 11t-141 35q-65 26 -115 68q-49 42 -83 106q-29 51 -42 136q-13 82 -13 177v520q0 57 -3 93q-3 35 -14 65q-15 47 -39 68q-25 22 -57 32
q-18 4 -35 6q-4 0 -16.5 1.5t-20.5 2.5v54h709v-54q-6 -1 -16.5 -2.5t-15.5 -1.5q-14 -1 -31 -6q-34 -10 -59 -32q-23 -20 -40 -68q-10 -28 -12 -65q-2 -48 -2 -91v-596q0 -63 8 -117q7 -46 27 -90q40 -85 108 -117q69 -32 162 -32q104 0 174 29q71 30 109 102q29 50 38 116
t9 132v563q0 37 -2 79q-1 27 -5 53q-3 19 -10 37q-4 10 -14 30q-14 23 -38 40q-22 16 -44 23q-10 2 -37 7q-36 6 -41 7v54h482v-54q-22 -4 -38 -6q-12 -1 -36 -8q-29 -11 -47 -24q-20 -15 -37 -42q-17 -25 -23 -63q-6 -39 -6 -133v-551z" />
    <glyph glyph-name="V" unicode="V" horiz-adv-x="1388" 
d="M825 403h15l200 617q17 54 26 84q13 45 13 78q0 47 -17 67t-48 31q-22 6 -44 9q-31 4 -52 5v54h477v-54l-49 -8q-29 -5 -48 -18q-20 -11 -40 -30q-15 -14 -39 -48q-38 -57 -78 -184l-346 -1014h-215l-340 1034q-18 52 -39 99q-22 49 -43 77q-24 30 -44 47t-48 27
q-13 5 -36 10q-4 1 -17 3.5t-19 4.5v54h751v-54q-23 -2 -47 -6q-33 -6 -39 -8q-31 -10 -53 -27q-20 -16 -20 -61q0 -38 14 -80q12 -35 31 -100z" />
    <glyph glyph-name="W" unicode="W" horiz-adv-x="2129" 
d="M797 438h14l203 647q-20 55 -28 72q-14 31 -30 53q-22 34 -42 48q-22 15 -42 22q-40 13 -69 14v54h733v-54q-13 -1 -46 -5q-25 -3 -38 -7q-32 -11 -49 -27q-19 -17 -19 -57q0 -31 13 -81q13 -52 28 -105l168 -574h15l178 582q9 29 24 92q11 46 11 74q0 41 -17 63
q-16 20 -47 31q-29 9 -90 14v54h469v-54q-59 -6 -94 -26q-23 -14 -37 -25q-19 -16 -41 -45q-21 -28 -39 -78q-34 -94 -41 -114l-321 -1014h-211l-287 934l-299 -934h-211l-317 1028q-38 125 -82 184q-25 32 -44 46q-23 18 -46 28q-19 9 -36 10q-20 2 -36 6v54h735v-54
q-50 -5 -78 -14q-27 -10 -46 -26q-17 -14 -17 -56q0 -39 11 -79q4 -13 8 -29.5t10 -39.5t10 -38z" />
    <glyph glyph-name="X" unicode="X" horiz-adv-x="1372" 
d="M762 1350v-54q-78 -11 -111 -25q-35 -15 -35 -63q0 -32 19 -72q18 -38 47 -85l115 -199l135 205q28 43 46 80q17 35 17 65q0 35 -16 51q-17 17 -45 27q-15 6 -33 9q-29 5 -39 7v54h469v-54q-12 -1 -39 -10q-22 -8 -39 -18q-30 -18 -50 -33q-23 -18 -40 -35
q-22 -23 -52 -61q-27 -33 -75 -101l-186 -276l262 -449q66 -108 128 -175q59 -64 151 -85v-53h-752v53q64 7 96 28q31 20 31 69q0 30 -18 67q-12 24 -52 94l-118 203l-146 -221q-29 -46 -44 -74q-19 -37 -19 -72t13 -52q12 -16 42 -27q20 -8 35 -9q20 -1 43 -6v-53h-473v53
q12 1 36 8q18 5 44 19q36 18 49 29q25 20 41 38q19 19 52 62q30 39 75 102l198 293l-264 453q-44 73 -66 102q-31 42 -60 68q-31 28 -62 42t-78 25v54z" />
    <glyph glyph-name="Y" unicode="Y" horiz-adv-x="1320" 
d="M207 1112q-24 50 -47 83q-22 31 -46 52q-23 20 -53 31q-27 10 -67 16v54h702v-54q-22 -1 -43 -6q-36 -8 -37 -8q-50 -22 -52 -71q-1 -47 38 -130l186 -374h11l170 335q33 67 45 105q10 33 10 65q0 31 -13 45t-42 25q-16 6 -38 9q-30 4 -38 5v54h434v-54q-90 -16 -142 -73
q-52 -56 -108 -170l-241 -490v-217q0 -68 3 -110q3 -43 13 -70q17 -47 39 -68q20 -19 57 -30q22 -8 35 -9q4 0 18.5 -1.5t22.5 -2.5v-53h-727v53q8 1 22.5 2.5t18.5 1.5q13 1 35 9q37 11 57 30q22 21 39 68q9 25 14 70q4 37 4 110v217z" />
    <glyph glyph-name="Z" unicode="Z" horiz-adv-x="1298" 
d="M1219 1296l-725 -1212h129q109 0 189 18q76 17 140 72q94 80 144 153q56 81 96 152h57l-106 -479h-1086v53l766 1211h-161q-105 0 -175 -19q-64 -18 -110 -51q-55 -41 -112 -114q-59 -76 -105 -160h-56l66 428h1049v-52z" />
    <glyph glyph-name="a" unicode="a" horiz-adv-x="987" 
d="M971 25q-24 -15 -80 -30q-55 -15 -146 -15q-61 0 -93 8q-30 8 -48 18q-18 11 -33 34q-14 23 -16 69h-14q-30 -56 -85 -92q-56 -37 -155 -37q-47 0 -92 12t-81 39t-58 68q-23 43 -23 102q0 57 19 98q18 39 47 68q66 65 225 104q37 9 83 25q38 13 55 23q26 15 34 23
q15 15 20 25l2 176q0 61 -20 87q-22 28 -68 28q-36 0 -53 -16q-20 -19 -29 -31q-10 -12 -18 -41q-3 -12 -18 -65q-10 -43 -41 -72t-84 -29q-56 0 -87 29q-30 29 -30 74q0 27 9 51q9 25 26 43q36 48 126 86q87 37 208 37q84 0 159 -11t122 -35q52 -27 78 -69q28 -45 28 -107
v-37v-83q0 -68 -1 -106t-1 -106v-87v-45q0 -76 3 -105q3 -28 15 -43q14 -20 51 -20q8 0 24 2q10 1 21 6zM530 485q-11 -11 -30 -22q-4 -2 -12 -7t-16 -9.5t-15 -8.5q-23 -12 -42 -24q-17 -11 -36 -31q-16 -21 -28 -53q-11 -30 -11 -84q0 -84 25 -115t65 -31q32 0 58 18
q26 19 38 52z" />
    <glyph glyph-name="b" unicode="b" horiz-adv-x="1132" 
d="M422 1401q16 0 16 -19l-6 -155v-420h6q76 117 252 117q65 0 134 -24t124 -79q56 -56 90 -145q35 -91 35 -223q0 -121 -40 -208q-42 -92 -107 -148q-66 -57 -155 -88q-84 -29 -181 -29q-30 0 -72 8q-40 8 -79 25q-40 18 -74 43q-35 26 -58 61h-8l-119 -119h-63q1 21 3 53
l2 62q1 20 1 60v48v932q0 41 -3 74q-3 31 -11 51q-15 33 -43 51q-26 14 -66 19v53h422zM594 827q-28 0 -58 -12q-31 -12 -59 -51q-15 -22 -31 -65q-14 -38 -14 -99v-313q0 -46 1 -63q2 -31 5 -45q5 -22 9 -35q3 -11 16 -31q22 -37 57 -52q32 -14 64 -14q93 0 127 94
q34 93 34 310q0 109 -10 178q-11 75 -29 115q-20 44 -49 64q-28 19 -63 19z" />
    <glyph glyph-name="c" unicode="c" horiz-adv-x="956" 
d="M557 858q-65 0 -98 -47q-29 -38 -51 -119q-23 -84 -23 -239q0 -82 7 -132q7 -53 20 -94q12 -40 28 -64q17 -26 37 -42q28 -22 58 -33q27 -10 65 -10q67 0 108 17q44 18 73 47q30 30 48 68q19 39 35 79l56 -21q-15 -52 -46 -109q-28 -52 -74 -92q-45 -39 -113 -64
q-63 -23 -159 -23q-86 0 -156 22q-72 23 -126 64q-79 61 -132 152q-55 95 -55 235q0 124 46 212q47 89 119 146q74 58 161 85q92 28 172 28q129 0 199 -28q67 -27 98 -58q28 -28 42 -58q13 -27 13 -69q0 -60 -30 -87q-31 -28 -84 -28q-67 0 -95 42t-45 116q-15 61 -38 82
q-23 22 -60 22z" />
    <glyph glyph-name="d" unicode="d" horiz-adv-x="1144" 
d="M725 0q-13 0 -14 12q-2 20 -2 24v21v58h-15q-67 -133 -256 -133q-75 0 -142 29q-70 30 -121 89q-53 60 -84 148q-32 90 -32 205q0 113 37 199q38 89 99 148q63 61 139 92q79 32 158 32q80 0 122 -20t70 -54h8v303q0 30 -2 74q-1 30 -10 51q-11 19 -22 30q-12 12 -23 19
q-27 17 -70 21v53h424q19 0 19 -19q0 -7 -1.5 -28.5t-2.5 -35.5q-3 -72 -3 -91v-981q0 -9 3 -69q1 -27 10 -48q12 -26 21 -36q11 -12 28 -23q14 -7 29 -11q17 -5 32 -6v-53h-399zM690 645q0 49 -6 85q-6 34 -31 69q-17 26 -43 37q-23 10 -61 10q-77 0 -121 -103
q-43 -101 -43 -290q0 -110 11 -175q12 -70 33 -114q21 -43 52 -62q30 -18 68 -18q63 0 102 51t39 117v393z" />
    <glyph glyph-name="e" unicode="e" horiz-adv-x="993" 
d="M938 256q-19 -60 -48 -108q-31 -51 -77 -88q-47 -38 -114 -59q-66 -21 -158 -21q-87 0 -163 24q-72 23 -138 66q-81 56 -131 152q-50 95 -50 231q0 121 42 210q42 88 110 147t150 86q86 28 167 28q101 0 179 -30t129 -81q49 -49 77 -117q27 -66 27 -139q0 -19 -2 -59
q-1 -20 -4 -41h-549q1 -154 27 -232q24 -73 61 -106q28 -26 61 -39q32 -12 78 -12q65 0 109 19t78 50q30 28 53 68q22 39 33 71zM446 821q-28 -32 -43 -97q-13 -57 -18 -200h215q55 0 55 68q0 84 -8 143q-7 53 -31 88t-84 35q-22 0 -46 -9q-22 -8 -40 -28z" />
    <glyph glyph-name="f" unicode="f" horiz-adv-x="663" 
d="M37 0v53q31 1 59 17q34 18 49 57q15 37 15 117v569h-123v90h121v150q0 57 13 99q14 45 34 78t44 57q25 25 44 40q46 34 117 59q72 25 172 25q92 0 135 -11q47 -12 84 -30q55 -30 76 -68q22 -40 22 -81q0 -48 -31 -87q-30 -38 -90 -38q-44 0 -70 16q-28 17 -44 45
q-19 36 -29 78q-6 39 -17 70q-6 17 -20 28q-16 13 -37 13t-40 -12q-20 -12 -32 -36q-22 -45 -22 -135v-260h195v-90h-195v-569q0 -82 14 -117q7 -23 20 -35q13 -13 27 -22q13 -7 35 -11q23 -5 39 -6v-53h-565z" />
    <glyph glyph-name="g" unicode="g" horiz-adv-x="1073" 
d="M248 344q-78 35 -125 101q-47 67 -47 167q0 80 33 139q33 58 87 97t123 57q73 19 146 19q89 0 171 -28q78 -27 132 -85h14q33 62 81 89q50 28 102 28q58 0 97 -31q38 -30 38 -86q0 -59 -28 -85t-68 -26q-72 0 -99 68q-3 7 -8.5 19t-7.5 16q-6 12 -21 12q-17 0 -28 -14
q-13 -16 -13 -41q0 -22 4 -31q11 -28 18 -55t7 -62q0 -82 -33 -140t-87 -96q-57 -40 -125 -57q-71 -18 -146 -18q-28 0 -40 1t-34 3h-6q-6 1 -16 2.5t-14 1.5q-18 2 -23 2q-41 0 -69 -17q-30 -18 -30 -52q0 -60 93 -60q22 0 68 3t99 6q18 1 52.5 3.5t50.5 3.5q51 3 82 3
q165 0 244 -65q77 -64 77 -212q0 -83 -45 -152q-45 -70 -121 -117q-77 -49 -182 -74q-103 -25 -221 -25q-93 0 -163 11q-78 12 -133 34q-57 22 -89 59q-33 38 -33 90q0 38 20 69q19 29 52 50t76 33q49 13 92 20v12q-98 16 -142 74t-44 121q0 85 54 138q54 52 128 69v8z
M823 -182q0 53 -34 75q-35 23 -123 23q-46 0 -73 -1q-52 -2 -80 -4q-36 -3 -76 -6q-9 -1 -29.5 -2.5t-28.5 -2.5q-86 -8 -133 -41t-47 -92q0 -47 19 -73q21 -28 53 -44q36 -17 81 -23q47 -6 103 -6q78 0 142 13q67 14 117 38t80 62q29 36 29 84zM344 612q0 -132 30 -189
q29 -56 89 -56q62 0 93 56q32 58 32 187q0 133 -32 191q-32 57 -93 57q-59 0 -89 -57t-30 -189z" />
    <glyph glyph-name="h" unicode="h" horiz-adv-x="1196" 
d="M1047 246q0 -85 14 -117q7 -22 20 -36q9 -10 29 -23q28 -16 59 -17v-53h-532v53q23 4 49 13q21 11 31 26t16 45q3 15 5 49q1 19 1 60v426q0 40 -8 62t-22 36q-16 13 -30 17q-20 6 -44 6q-38 0 -72 -20q-33 -19 -55 -52q-15 -25 -28 -65q-11 -34 -11 -78v-332q0 -41 1 -60
q2 -34 5 -49q7 -50 45 -71q26 -9 51 -13v-53h-532v53q33 4 57 17q20 13 29 23q13 14 20 36q12 20 13 48q2 40 2 69v913q0 27 -2 69q-1 30 -13 50q-12 32 -41 49t-67 21v53h409q17 0 17 -19v-614h14q21 33 41 53q22 22 53 43q41 29 88 44q50 16 111 16q75 0 124 -21
q50 -21 83 -51q33 -33 52 -79q18 -44 18 -109v-418z" />
    <glyph glyph-name="i" unicode="i" horiz-adv-x="616" 
d="M313 1038q-71 0 -118 48q-48 50 -48 114q0 30 13 63q11 27 35 53q21 23 53 37q29 13 65 13q72 0 120 -50t48 -116q0 -65 -47 -114q-46 -48 -121 -48zM469 246q0 -29 2 -69q1 -27 10 -48q11 -24 22 -36q12 -13 27 -23q29 -13 60 -17v-53h-551v53q33 4 57 17q20 13 29 23
q13 14 20 36q12 20 13 48q2 40 2 69v416q0 29 -2 69q-1 29 -13 49q-15 35 -41 51q-29 14 -67 19v53h420q16 0 16 -18q-1 -25 -3 -62q-1 -22 -1 -84v-493z" />
    <glyph glyph-name="j" unicode="j" horiz-adv-x="589" 
d="M313 1038q-73 0 -120 48q-48 50 -48 114q0 65 49 116q48 50 119 50q37 0 66 -13q32 -14 53 -37q24 -26 35 -53q12 -30 12 -63q0 -65 -47 -114q-46 -48 -119 -48zM158 662q0 29 -2 69q-1 26 -11 49q-18 35 -43 52q-24 13 -67 18v53h420q16 0 16 -18q-1 -25 -3 -62
q-1 -22 -1 -84v-721q0 -81 -16 -139q-16 -57 -42 -102q-23 -39 -57 -73q-26 -26 -57 -50q-21 -17 -39 -28q-21 -13 -59 -28q-34 -13 -80 -24q-43 -10 -101 -10q-64 0 -109 13t-87 38q-41 27 -68 68q-26 39 -26 94q0 60 40 104q40 45 107 45q78 0 114 -41t36 -98q0 -1 -3 -31
q-1 -10 -10 -35l-12 -30q-6 -15 -6 -25q0 -16 13 -26q14 -11 34 -11q33 0 55 19q20 17 37 51q15 28 21 67q6 38 6 97v799z" />
    <glyph glyph-name="k" unicode="k" horiz-adv-x="1177" 
d="M686 569q120 -17 190 -68q73 -53 91 -132q16 -85 44 -160q27 -72 56 -107q15 -20 39 -33q22 -12 65 -16v-53h-399q-35 29 -59 105t-45 194q-11 70 -30 112q-19 41 -60 62l-109 -96v-131q0 -29 2 -69q1 -27 10 -48q11 -24 22 -36q12 -13 27 -23q29 -13 60 -17v-53h-551v53
q33 4 57 17q20 13 29 23q13 14 20 36q12 20 13 48q2 40 2 69v913q0 27 -2 69q-1 30 -13 50q-12 32 -41 49t-67 21v53h420q16 0 16 -19q-2 -32 -3 -61q-1 -22 -1 -84v-768l188 168q50 44 75 74q28 34 28 63q0 23 -10 37q-10 15 -31 25q-12 6 -36 9q-6 1 -14.5 2t-14.5 2
t-11 1v53h442v-53q-59 -6 -127 -49q-14 -9 -58 -45q-33 -27 -95 -82z" />
    <glyph glyph-name="l" unicode="l" horiz-adv-x="616" 
d="M469 246q0 -29 2 -69q1 -27 10 -48q11 -24 22 -36q12 -13 27 -23q29 -13 60 -17v-53h-551v53q33 4 57 17q20 13 29 23q13 14 20 36q12 20 13 48q2 40 2 69v913q0 27 -2 69q-1 30 -13 50q-12 32 -41 49t-67 21v53h420q16 0 16 -19q-2 -32 -3 -61q-1 -22 -1 -84v-991z" />
    <glyph glyph-name="m" unicode="m" horiz-adv-x="1759" 
d="M629 0v53q24 1 49 13q39 18 47 71q3 15 5 49q1 19 1 60v426q0 42 -7 62q-8 22 -22 36q-17 14 -28 17q-20 6 -43 6q-39 0 -70 -20q-32 -20 -53 -52q-15 -25 -28 -65q-11 -34 -11 -78v-332q0 -41 1 -60q2 -34 5 -49q7 -50 45 -71q26 -9 51 -13v-53h-532v53q33 4 57 17
q20 13 29 23q13 14 20 36q12 20 13 48q2 40 2 69v416q0 29 -2 69q-1 29 -13 49q-15 35 -41 51q-29 14 -67 19v53h409q17 0 17 -18l-6 -127h14q22 35 44 58q23 24 54 46q40 28 86 45t107 17q75 0 126 -20q53 -21 81 -52q42 -42 57 -94h12q43 66 103 106q41 29 86 44
q48 16 106 16q74 0 125 -20q49 -20 82 -52q33 -33 52 -79q18 -44 18 -109v-418q0 -85 14 -117q7 -20 21 -36q11 -12 28 -23q23 -12 58 -17v-53h-533v53q25 4 51 13q21 11 31 26t16 45q5 21 6 49q1 19 1 60v426q0 37 -9 62q-8 22 -22 36q-13 13 -27 17q-20 6 -43 6
q-38 0 -69 -20q-33 -22 -54 -52q-13 -19 -27 -57q-13 -35 -14 -70v-348q0 -41 1 -60q2 -34 5 -49q6 -27 17 -45q10 -15 33 -26q27 -10 47 -13v-53h-512z" />
    <glyph glyph-name="n" unicode="n" horiz-adv-x="1196" 
d="M1047 246q0 -85 14 -117q7 -22 20 -36q9 -10 29 -23q28 -16 59 -17v-53h-532v53q23 4 49 13q21 11 31 26t16 45q3 15 5 49q1 19 1 60v426q0 40 -8 62t-22 36q-16 13 -30 17q-20 6 -44 6q-38 0 -72 -20q-33 -19 -55 -52q-15 -25 -28 -65q-11 -34 -11 -78v-332q0 -41 1 -60
q2 -34 5 -49q7 -50 45 -71q26 -9 51 -13v-53h-532v53q33 4 57 17q20 13 29 23q13 14 20 36q12 20 13 48q2 40 2 69v416q0 29 -2 69q-1 29 -13 49q-15 35 -41 51q-29 14 -67 19v53h409q17 0 17 -18l-6 -127h14q24 37 46 59q26 26 58 47q41 29 88 44q50 16 107 16
q75 0 124 -21q50 -21 83 -51q33 -33 52 -79q18 -44 18 -109v-418z" />
    <glyph glyph-name="o" unicode="o" horiz-adv-x="1089" 
d="M59 453q0 113 40 199q41 88 107 148q67 61 154 92q90 32 185 32q96 0 186 -32q88 -31 155 -92q65 -59 105 -148q39 -87 39 -199q0 -113 -39 -201q-39 -89 -105 -149q-67 -61 -155 -92q-87 -31 -186 -31q-98 0 -185 31t-154 92q-66 60 -107 149q-40 87 -40 201zM707 453
q0 66 -6 150q-4 62 -15 106q-11 46 -23 70q-14 28 -32 46q-33 33 -86 33q-21 0 -45 -8q-21 -7 -39 -25t-32 -46q-12 -24 -23 -70q-12 -50 -16 -106q-5 -70 -5 -150q0 -83 5 -153q4 -55 16 -105q11 -46 23 -70q13 -26 32 -45q30 -33 84 -33q53 0 86 33q19 19 32 45
q12 24 23 70q11 44 15 105q6 84 6 153z" />
    <glyph glyph-name="p" unicode="p" horiz-adv-x="1159" 
d="M772 451q0 109 -10 178q-10 71 -30 115q-20 46 -48 63q-28 18 -63 18q-29 0 -58 -12q-28 -12 -57 -53q-15 -20 -31 -70q-14 -43 -14 -106v-271q0 -64 8 -112q7 -43 31 -78q22 -36 51 -53t61 -17q85 0 123 92q37 90 37 306zM29 -383q33 1 59 16q33 17 49 58q15 37 15 119
v845q0 91 -15 125q-15 33 -43 51q-26 15 -65 19v53h413q17 0 17 -18q-2 -14 -2 -24v-27v-33h6q35 57 100 90q66 33 154 33q65 0 134 -24t124 -79q56 -56 90 -145q35 -91 35 -223q0 -121 -37 -208q-39 -91 -100 -148t-147 -88q-80 -29 -177 -29q-50 0 -94 16q-46 17 -74 45
h-8v-231q0 -32 2 -70q1 -25 10 -49q11 -24 22 -35q16 -16 27 -23q25 -11 74 -16v-53h-569v53z" />
    <glyph glyph-name="q" unicode="q" horiz-adv-x="1138" 
d="M702 639q0 45 -5 85q-5 37 -27 71q-18 27 -42 39t-61 12q-78 0 -125 -95q-47 -96 -47 -298q0 -99 13 -175q12 -70 33 -114q21 -43 52 -62q30 -18 66 -18q66 0 105 51q38 50 38 117v387zM829 756l140 164h65q-3 -17 -7 -55q-4 -42 -5 -65q-1 -12 -2.5 -34t-1.5 -32
q-2 -42 -2 -54v-870q0 -84 14 -119q16 -41 49 -58q26 -14 60 -16v-53h-570v53q14 1 42 5q20 3 36 11q31 16 47 58q15 37 15 119v288h-11q-35 -58 -102 -88q-68 -30 -147 -30q-89 0 -157 29q-71 30 -123 88q-53 59 -81 144q-29 87 -29 195q0 118 39 210q39 91 104 153
q64 61 147 93q84 32 171 32q116 0 189 -52q72 -51 106 -116h14z" />
    <glyph glyph-name="r" unicode="r" horiz-adv-x="892" 
d="M471 721q28 69 50 96q27 34 50 53q21 19 63 37q39 17 91 17q81 0 125 -41q17 -17 30 -52q11 -30 11 -77q0 -72 -39 -108t-90 -36q-56 0 -87 25q-29 23 -48 78q-11 30 -22 38q-12 9 -27 9q-26 0 -60 -51t-45 -146q-1 -12 -3 -56q-1 -29 -1 -91v-170q0 -29 2 -69
q1 -27 10 -48q17 -41 49 -59q14 -7 33 -11q21 -5 37 -6v-53h-561v53q33 4 57 17q20 13 29 23q13 14 20 36q12 20 13 48q2 40 2 69v424v51q0 27 -4 47q-4 26 -14 39q-10 14 -23 20q-17 12 -37 16q-31 6 -41 7v53h405q17 0 17 -18q0 -15 -1 -29q-1 -7 -1.5 -22t-0.5 -23
l-2 -49q-1 -16 -1 -41h14z" />
    <glyph glyph-name="s" unicode="s" horiz-adv-x="864" 
d="M815 291q0 -141 -96 -226q-95 -85 -277 -85q-79 0 -145 25t-113 67h-8l-45 -70h-43l-14 336h49q25 -66 57 -118q34 -55 73 -93t87 -61t104 -23q134 0 134 102q0 30 -13 53q-13 22 -38 40q-25 17 -67 34q-42 16 -102 39q-49 16 -106 41q-49 22 -91 59q-40 35 -64 90
q-23 52 -23 138q0 65 26 116q27 53 75 90q47 36 113 58q65 21 140 21q81 0 147 -25q65 -25 93 -57h6l26 59h48l8 -274h-47q-16 36 -44 81q-22 36 -61 75q-35 35 -79 56q-43 21 -97 21q-52 0 -87 -22q-36 -22 -36 -76q0 -29 10 -49q11 -22 34 -39q25 -19 62 -35
q29 -13 93 -37q71 -25 120 -46q55 -23 99 -58t68 -84q24 -50 24 -123z" />
    <glyph glyph-name="t" unicode="t" horiz-adv-x="714" 
d="M715 102q-46 -51 -116 -87q-67 -35 -181 -35q-77 0 -125 13q-49 13 -86 40q-41 30 -56 81q-16 53 -16 109v590h-20q-23 0 -35 1t-34 1h-19v72q74 16 123 47q54 34 94 80q39 44 70 107q30 61 53 130h77v-348h226v-90h-226v-594q0 -58 21 -88q22 -31 80 -31q87 0 131 50z
" />
    <glyph glyph-name="u" unicode="u" horiz-adv-x="1179" 
d="M1030 246q0 -85 14 -117q7 -20 21 -36q9 -10 29 -23q24 -13 61 -17v-53h-399q-19 0 -19 20q0 9 -1 22t-1 42v59h-10q-17 -35 -34 -57q-19 -25 -52 -51q-40 -28 -88 -42q-45 -13 -100 -13q-67 0 -125 16q-59 16 -97 51q-82 79 -82 225v390q0 29 -2 69q-2 31 -12 49
q-15 35 -41 51q-29 14 -67 19v53h419q17 0 17 -18q-1 -29 -3 -63q-1 -23 -1 -85v-485q0 -86 24 -119q17 -24 37 -32q21 -9 45 -9q34 0 61 19q25 18 48 53q31 40 41 100q4 24 6 47q2 30 2 56v295q0 39 -3 69t-11 49q-15 33 -43 51q-27 14 -68 19v53h422q16 0 16 -18
q-2 -29 -3 -63q-1 -23 -1 -85v-491z" />
    <glyph glyph-name="v" unicode="v" horiz-adv-x="1038" 
d="M1040 850q-5 0 -32 -5q-18 -3 -35 -14q-15 -10 -25 -18q-11 -10 -24 -29q-14 -21 -28 -55q-18 -44 -36 -92l-242 -643h-196l-248 645q-29 65 -35 80q-6 14 -20 45q-17 28 -27 42q-9 12 -29 25q-16 11 -33 14q-4 1 -15.5 2.5t-16.5 2.5v53h600v-53q-57 -5 -76 -14
q-16 -7 -28 -22q-11 -14 -11 -40q0 -27 11 -63q17 -56 20 -64l123 -383h10l131 379q15 42 24 73q7 24 7 56q0 26 -9 40q-9 13 -26 24q-18 9 -32 10q-6 1 -17 2.5t-16 1.5v53h331v-53z" />
    <glyph glyph-name="w" unicode="w" horiz-adv-x="1566" 
d="M1569 850q-5 -1 -16.5 -2.5t-15.5 -2.5q-18 -3 -36 -14q-9 -5 -23 -18q-7 -6 -26 -29q-14 -21 -28 -58q-6 -15 -31 -89l-219 -643h-183l-207 584l-200 -584h-183l-227 645q-28 63 -35 81q-8 20 -20 44q-17 28 -27 42q-9 12 -29 25q-16 11 -33 14q-4 1 -15.5 2.5
t-16.5 2.5v53h569v-53q-3 0 -26 -5q-14 -3 -25 -9q-11 -7 -21 -22t-10 -40q0 -22 9 -63q8 -37 18 -64l100 -325h13l120 372q-19 51 -28 70q-17 33 -25 44q-11 14 -24 23q-18 11 -31 14q-22 4 -27 5v53h559v-53q-37 -1 -59 -14q-15 -7 -27 -22q-10 -13 -10 -40q0 -28 9 -63
q9 -33 20 -64l92 -328h12l107 324q13 41 22 76q6 24 6 55q0 26 -9 40q-10 16 -23 22q-12 9 -23 10q-31 4 -33 4v53h316v-53z" />
    <glyph glyph-name="x" unicode="x" horiz-adv-x="962" 
d="M395 334l-71 -98q-33 -45 -45 -69q-13 -26 -13 -46q0 -21 12 -33q13 -13 27 -18q16 -11 57 -17v-53h-356v53q22 5 42 12q17 7 34 15q47 24 83 68q25 30 85 112l102 141l-180 289q-40 61 -59 86q-26 34 -50 51q-29 22 -63 23v53h549v-53q-27 -1 -51 -10q-31 -11 -31 -41
q0 -18 11 -37q3 -4 8 -13.5t10 -18.5t10 -17l82 -133l61 88q32 49 44 71q14 25 14 47q0 21 -10 34q-9 12 -25 18q-12 4 -24 6t-30 6v53h345v-51q-30 -6 -45 -10q-21 -5 -37 -17q-47 -28 -83 -74q-24 -31 -83 -116l-84 -123l186 -295q31 -48 62 -87q28 -35 51 -52
q29 -20 69 -25v-53h-565v53q34 1 58 10q34 15 34 43q0 17 -13 40q-12 21 -32 53z" />
    <glyph glyph-name="y" unicode="y" horiz-adv-x="1007" 
d="M535 -117q-32 -83 -66 -141q-29 -49 -61 -86q-37 -37 -91 -65q-52 -27 -131 -27q-77 0 -137 39q-59 38 -59 123q0 48 33 88q33 41 92 41q51 0 82 -26t49 -73q16 -33 24 -56q8 -22 35 -22q53 0 125 158q14 31 17 43q8 28 8 31q1 27 -9 55l-272 674q-26 63 -34 80
q-14 29 -21 45q-17 28 -27 42q-9 12 -29 25q-16 11 -33 14q-4 1 -15.5 2.5t-16.5 2.5v53h600v-53q-56 -5 -76 -14q-17 -7 -27 -22t-10 -40q0 -27 11 -63q17 -56 20 -64l105 -325h10l117 321q9 25 23 73q7 24 7 56q0 26 -9 40q-9 13 -26 24q-19 9 -32 10q-5 0 -17 1.5
t-18 2.5v53h334v-53q-4 0 -34 -5q-18 -3 -36 -14q-12 -7 -24 -18q-3 -3 -25 -29q-14 -21 -28 -55q-18 -44 -36 -92z" />
    <glyph glyph-name="z" unicode="z" horiz-adv-x="919" 
d="M852 0h-813v43l475 786v9h-113q-58 0 -101 -23t-71 -51q-26 -26 -61 -80q-33 -51 -62 -115h-55l66 334h760v-49l-467 -784v-9h125q58 0 106 25q46 24 94 78q40 45 66 87q32 51 57 97h53z" />
    <glyph glyph-name="quoteleft" unicode="&#x2018;" horiz-adv-x="460" 
d="M82 1030q0 64 23 116q24 54 66 99q44 47 97 80q55 34 119 57l23 -53q-37 -16 -68 -33q-28 -15 -58 -40q-23 -19 -42 -43q-17 -22 -17 -42q0 -21 27 -28q60 -18 98 -51q37 -33 37 -99q0 -52 -38 -95q-37 -42 -103 -42q-77 0 -120 46q-44 47 -44 128z" />
    <glyph glyph-name="quoteright" unicode="&#x2019;" horiz-adv-x="460" 
d="M379 1210q0 -58 -25 -116q-24 -55 -65 -101q-41 -45 -98 -80q-58 -35 -119 -57l-21 53q29 13 67 33q28 15 59 40q23 19 42 43q17 22 17 42q0 23 -27 29q-61 18 -99 51t-38 98q0 53 39 95t104 42q77 0 120 -46q44 -47 44 -126z" />
    <glyph glyph-name="quotedblleft" unicode="&#x201c;" horiz-adv-x="839" 
d="M410 1329q-37 -16 -68 -33q-28 -15 -58 -40q-23 -19 -42 -43q-17 -22 -17 -42q0 -21 27 -28q60 -18 98 -51q37 -33 37 -99q0 -52 -38 -95q-37 -42 -103 -42q-77 0 -120 46q-44 47 -44 128q0 64 23 116q24 54 66 99q44 47 97 80q55 34 119 57zM625 856q-77 0 -120 46
q-44 47 -44 128q0 62 24 116q23 52 67 99t97 80q55 34 119 57l20 -53q-32 -14 -67 -33q-28 -15 -58 -40q-23 -19 -42 -43q-17 -22 -17 -42q0 -21 27 -28q61 -18 99 -51t38 -99q0 -53 -39 -95t-104 -42z" />
    <glyph glyph-name="quotedblright" unicode="&#x201d;" horiz-adv-x="839" 
d="M758 1210q0 -58 -25 -116q-24 -55 -65 -101q-40 -45 -97 -80q-56 -35 -118 -57l-23 53q29 13 67 33q28 15 59 40q23 19 42 43q16 20 16 42q0 23 -26 29q-61 18 -98 51t-37 98q0 54 37 95q38 42 104 42q78 0 121 -46t43 -126zM379 1210q0 -58 -25 -116q-24 -55 -65 -101
q-41 -45 -98 -80q-58 -35 -119 -57l-21 53q29 13 67 33q28 15 59 40q23 19 42 43q17 22 17 42q0 23 -27 29q-61 18 -99 51t-38 98q0 53 39 95t104 42q77 0 120 -46q44 -47 44 -126z" />
  </font>
</defs>
</svg>
