<?xml version="1.0" standalone="no"?>
<!DOCTYPE svg PUBLIC "-//W3C//DTD SVG 1.1//EN" "http://www.w3.org/Graphics/SVG/1.1/DTD/svg11.dtd" >
<svg xmlns="http://www.w3.org/2000/svg" xmlns:xlink="http://www.w3.org/1999/xlink" version="1.1">
<metadata>
Created by FontForge 20170731 at Thu Dec 17 06:39:31 2020
 By Aleksey,,,
Copyright (c) 2014 Commercial Type.
</metadata>
<defs>
<font id="AustinText-Fat" horiz-adv-x="389" >
  <font-face 
    font-family="Austin Text Fat"
    font-weight="900"
    font-stretch="normal"
    units-per-em="2048"
    panose-1="0 0 0 0 0 0 0 0 0 0"
    ascent="1638"
    descent="-410"
    x-height="918"
    cap-height="1348"
    bbox="-301 -621 2195 1411"
    underline-thickness="75"
    underline-position="-269"
    unicode-range="U+000D-201D"
  />
<missing-glyph 
 />
    <glyph glyph-name=".notdef" 
 />
    <glyph glyph-name=".null" horiz-adv-x="0" 
 />
    <glyph glyph-name="nonmarkingreturn" unicode="&#xd;" 
 />
    <glyph glyph-name="NULL" horiz-adv-x="0" 
 />
    <glyph glyph-name="NULL" horiz-adv-x="0" 
 />
    <glyph glyph-name="space" unicode=" " 
 />
    <glyph glyph-name="comma" unicode="," horiz-adv-x="548" 
d="M457 100q0 -72 -27 -138q-28 -68 -73 -122q-46 -55 -108 -95q-59 -38 -136 -60l-21 57q42 13 79 36q44 28 67 50q29 27 46 53t17 47q0 24 -10 31q-12 9 -23 10q-77 10 -121 53q-43 42 -43 117q0 39 15 71t39 53q23 20 55 33q27 11 61 11q84 0 133 -54q50 -55 50 -153z
" />
    <glyph glyph-name="hyphen" unicode="-" horiz-adv-x="661" 
d="M102 436v185h457v-185h-457z" />
    <glyph glyph-name="period" unicode="." horiz-adv-x="524" 
d="M92 139q0 67 43 117q43 51 127 51t127 -51q43 -50 43 -117q0 -66 -43 -116q-44 -52 -127 -52t-127 52q-43 50 -43 116z" />
    <glyph glyph-name="zero" unicode="0" horiz-adv-x="1193" 
d="M598 47q43 0 72 26q28 25 45 87q16 59 22 162q6 101 6 249q0 151 -6 252q-6 103 -22 161q-17 61 -45 85q-30 25 -72 25t-72 -25q-28 -24 -45 -85q-16 -58 -22 -161q-6 -101 -6 -252q0 -149 6 -249q6 -103 22 -162q17 -62 45 -87q29 -26 72 -26zM61 571q0 147 47 259
q49 116 120 186q73 72 171 110q95 37 199 37q102 0 197 -37q97 -38 172 -110q73 -70 120 -186q46 -113 46 -259q0 -145 -46 -258q-45 -112 -120 -185q-78 -76 -172 -113q-97 -38 -197 -38q-102 0 -199 38q-95 37 -171 113q-73 73 -120 185t-47 258z" />
    <glyph glyph-name="one" unicode="1" horiz-adv-x="720" 
d="M35 0v57q17 2 38 6q19 4 38 11q11 5 29 20q16 13 26 39q16 38 16 129v580q0 39 -1 60q-1 32 -3 54q-5 34 -17 45q-18 16 -26 21q-16 7 -47 12q-9 1 -29 3.5t-30 4.5v60q15 1 116 8q96 7 177 16q11 1 68 11q8 1 22 3.5t24.5 4.5t19.5 3q10 2 26.5 4.5t23.5 3.5q21 3 26 3
q25 0 25 -22q0 -8 -2 -60t-2 -73v-742q0 -91 16 -129q11 -28 25 -39q17 -14 31 -20q19 -7 38 -11q21 -5 37 -6v-57h-665z" />
    <glyph glyph-name="two" unicode="2" horiz-adv-x="1101" 
d="M938 0h-893v74q24 21 51 45l54 49q8 7 25 22.5t26 23.5q24 21 41 38q86 79 147 147q72 80 122 157q54 83 83 169q31 91 31 182q0 108 -37 142t-105 34q-38 0 -74 -16q-41 -18 -69 -50q-31 -36 -50 -84q-20 -51 -20 -120q0 -58 20 -103q20 -44 75 -44q41 0 66 24
q24 23 48 72l56 -25q-39 -96 -104 -146t-177 -50q-88 0 -150 58q-63 59 -63 169q0 88 40 159q42 74 110 125q70 52 169 82q96 29 215 29q223 0 338 -77t115 -212q0 -64 -19 -112t-56 -90q-39 -43 -87 -79q-64 -47 -116 -79q-54 -32 -79 -48t-79 -46q-15 -8 -45.5 -24.5
t-42.5 -23.5q-72 -40 -107 -57v-14h312q84 0 131 25q45 24 80 59t53 62q7 11 39 63h59z" />
    <glyph glyph-name="three" unicode="3" horiz-adv-x="1009" 
d="M969 336q0 -78 -43 -143q-44 -67 -121 -114q-78 -48 -188 -75q-109 -27 -240 -27q-174 0 -271 73q-96 72 -96 190q0 60 41 107q40 46 101 46q69 0 103 -37t34 -96q0 -30 -9 -51q-8 -18 -26 -43q-6 -15 -13 -26q-10 -17 -10 -36q0 -28 39 -43q36 -14 107 -14q93 0 153 78
t60 250q0 92 -36 124q-35 31 -99 31q-61 0 -119 -36l-55 -33l-35 59l104 62q93 53 154 144t61 202q0 91 -35 128q-34 36 -120 36q-71 0 -130 -54q-57 -52 -57 -145q0 -123 86 -123q40 0 68 26t45 62l55 -24q-12 -30 -34 -63q-21 -31 -52 -56t-72 -40q-43 -16 -92 -16
q-53 0 -88 18q-36 19 -56 46q-23 31 -31 62q-9 35 -9 69q0 72 33 129t89 97q59 42 134 62q78 21 170 21q220 0 316 -62q98 -63 98 -167q0 -54 -29 -100q-27 -43 -80 -82q-50 -37 -122 -69q-74 -33 -152 -60l4 -11q92 10 177 0q86 -11 148 -43q66 -34 102 -91q38 -59 38 -142
z" />
    <glyph glyph-name="four" unicode="4" horiz-adv-x="1103" 
d="M848 444q82 0 119 39q21 21 29 57t12 64h55v-393h-55q-4 31 -12 65q-8 35 -29 56q-22 23 -48 32q-27 9 -71 9h-37v-111q0 -91 16 -129q11 -28 25 -39q17 -14 31 -20q19 -7 38 -11q21 -5 37 -6v-57h-667v57q17 1 39 6q19 4 39 11q8 4 28 20q15 12 27 39q16 38 16 127v113
h-420v80l494 690h279q20 0 20 -25q0 -36 -1 -69t-1 -84v-521h37zM100 444h340v459h-8z" />
    <glyph glyph-name="five" unicode="5" horiz-adv-x="970" 
d="M330 47q200 0 200 324q0 75 -12 121q-12 45 -34 74q-22 28 -51 38t-62 10q-58 0 -100 -33q-43 -34 -64 -77l-76 12l148 623h59q63 -23 115 -35q53 -12 135 -12q60 0 104 15q43 15 73 39q31 25 48 49q25 35 31 46l51 -8q-15 -89 -45 -168q-30 -78 -82 -140
q-52 -61 -125 -97q-71 -35 -172 -35q-51 0 -101 3q-51 3 -94 9l-40 -168l4 -2q43 38 111 56q69 18 147 18q206 0 316 -89t110 -251q0 -103 -51 -179q-49 -74 -132 -120q-86 -49 -183 -70q-104 -23 -202 -23q-81 0 -149 20q-67 20 -112 53q-47 35 -70 80q-25 48 -25 97
q0 73 42 113q43 41 101 41q70 0 102 -42q31 -41 31 -95q0 -28 -4 -41l-12 -43q-9 -28 -11 -37q-3 -12 -3 -27q0 -49 84 -49z" />
    <glyph glyph-name="six" unicode="6" horiz-adv-x="1089" 
d="M1044 950q0 -62 -31 -103q-31 -42 -108 -42q-65 0 -101 38q-36 37 -36 91q0 14 2 32q1 13 6 25q12 37 12 64q0 15 -18 27t-43 12q-65 0 -114 -35q-47 -34 -82 -93q-33 -56 -53 -135q-19 -74 -25 -155h6q23 33 71 51q50 18 109 18q83 0 155 -21q70 -20 125 -66
q51 -43 82 -113q31 -71 31 -166q0 -186 -122 -294t-345 -108q-128 0 -224 41q-93 40 -158 111q-61 67 -92 163q-30 93 -30 195q0 179 66 306q65 126 165 209t216 122q117 39 217 39q87 0 144 -17q64 -19 100 -47q39 -30 57 -69t18 -80zM563 664q-23 0 -45 -16
q-20 -14 -34 -50q-13 -34 -21 -95q-8 -64 -8 -149q0 -96 8 -160q8 -61 21 -94t34 -43q20 -10 45 -10t45 10t35 43q16 34 23 94q8 64 8 160q0 102 -8 168q-7 60 -23 93t-35 40q-25 9 -45 9z" />
    <glyph glyph-name="seven" unicode="7" horiz-adv-x="921" 
d="M938 1108l-101 -203q-54 -110 -77 -160q-34 -75 -57 -133q-18 -47 -37 -118q-20 -65 -31 -144q-13 -89 -19 -166q-7 -104 -60 -158q-53 -55 -138 -55q-78 0 -131 45q-54 46 -54 134q0 84 42 153q32 53 90 135q41 55 82 100q16 18 100 104q51 52 102 102q47 45 92 94v8
h-405q-26 0 -63 -3q-36 -3 -70 -20q-36 -17 -62 -53q-26 -37 -43 -76h-61l84 510h61q12 -24 35 -44q22 -19 76 -19h645v-33z" />
    <glyph glyph-name="eight" unicode="8" horiz-adv-x="1005" 
d="M911 911q0 -71 -48 -123q-49 -54 -115 -86q35 -16 76 -44q43 -29 69 -62q32 -40 49 -88q19 -54 19 -121q0 -95 -35 -173q-34 -76 -99 -130q-66 -55 -149 -81q-89 -28 -191 -28q-85 0 -171 16q-82 15 -142 49q-61 34 -97 85t-36 123q0 45 18 81q16 33 49 62q30 27 65 46
q38 20 71 32q-94 53 -141 130q-48 79 -48 196q0 91 36 160t97 115q60 45 142 70q76 23 170 23q92 0 166 -16q76 -16 130 -48q55 -32 85 -79t30 -109zM717 182q0 40 -22 71q-20 28 -69 56q-52 29 -124 56q-116 43 -185 71q-36 -30 -53 -71q-18 -43 -18 -115q0 -63 19 -102
q19 -40 53 -62q37 -24 77 -31q46 -8 92 -8q109 0 170 38q60 37 60 97zM319 967q0 -35 23 -63q22 -27 67 -53q39 -23 107 -52q56 -24 146 -60q59 71 59 174q0 102 -64 142q-63 39 -157 39q-82 0 -131 -33q-50 -33 -50 -94z" />
    <glyph glyph-name="nine" unicode="9" horiz-adv-x="1085" 
d="M57 193q0 58 32 102q31 43 110 43q65 0 100 -39q35 -40 35 -92q0 -14 -2 -32q-1 -13 -6 -25q-13 -41 -13 -64q0 -16 21 -28q19 -11 45 -11q62 0 109 35q46 34 76 93q30 58 46 134q17 80 23 156h-6q-23 -33 -72 -51q-52 -19 -109 -19q-78 0 -153 22q-74 21 -125 67
q-55 48 -84 116q-31 71 -31 166q0 94 34 166q36 76 95 125q63 52 148 79q86 27 192 27q127 0 223 -41q93 -40 157 -110q61 -67 92 -163q30 -93 30 -196q0 -177 -57 -304t-150 -211q-92 -83 -208 -122t-230 -39q-81 0 -146 19q-61 18 -100 48t-57 69q-19 41 -19 80zM524 479
q24 0 44 15t33 50q15 40 22 94q8 62 8 148q0 97 -8 161q-7 56 -22 93q-13 32 -33 43t-44 11t-46 -11q-21 -11 -36 -43q-14 -31 -22 -93q-8 -64 -8 -161q0 -102 8 -168q8 -63 22 -92q16 -32 36 -39q22 -8 46 -8z" />
    <glyph glyph-name="A" unicode="A" horiz-adv-x="1452" 
d="M733 375h-362l-15 -43q-2 -5 -4 -11t-4.5 -14.5t-4.5 -13.5q-6 -18 -13 -46q-10 -38 -11 -45q-4 -19 -4 -36q0 -50 18 -68t50 -28q30 -8 35 -9q2 0 15 -1.5t22 -2.5v-57h-455v57q8 2 22.5 5.5t20.5 4.5q19 4 43 17q26 14 44 31q15 14 40 47q20 27 40 75q16 39 40 109
l356 1010h273l335 -1016q17 -54 44 -110q23 -49 49 -87q29 -42 82 -67q31 -14 63 -19v-57h-801v57q5 1 37 5q16 2 35 8q34 11 52 26q20 17 20 62q0 28 -14 72q-30 94 -33 102zM399 465h306l-144 446h-14z" />
    <glyph glyph-name="B" unicode="B" horiz-adv-x="1445" 
d="M762 1348q113 0 216 -14q100 -14 172 -48q75 -36 114 -94q41 -61 41 -152q0 -115 -66 -175q-67 -61 -176 -99q-63 -22 -152 -33v-10q110 -11 194 -37q86 -27 149 -70t97 -103q33 -57 33 -136q0 -103 -43 -174q-44 -73 -112 -117q-69 -45 -158 -66q-84 -20 -178 -20h-856
v57q8 1 21 2.5t18 1.5q13 1 37 9q35 11 58 31q22 19 38 75q5 20 10 67q4 37 4 99v664q0 62 -4 99q-5 46 -10 66q-16 56 -38 75q-25 22 -58 32q-20 7 -37 8q-5 0 -18 1.5t-21 2.5v58h725zM629 672v-381q0 -44 7 -85q8 -47 23 -67q37 -49 113 -49h21q41 0 69 12q29 12 47 33
t30 42q10 17 17 49q8 35 9 64q2 48 2 87q0 61 -10 129q-9 62 -37 96q-34 39 -85 55q-50 15 -112 15h-94zM629 762h90q65 0 98 12t58 37q28 28 40 91q13 68 13 142q0 120 -39 166q-39 47 -129 47h-86q-12 0 -19 -1q-11 -2 -16 -7q-10 -10 -10 -24v-463z" />
    <glyph glyph-name="C" unicode="C" horiz-adv-x="1382" 
d="M799 1298q-34 0 -70 -10t-63 -28q-30 -23 -61 -61q-29 -36 -52 -105q-22 -65 -37 -169q-14 -95 -14 -251q0 -141 16 -230t41 -150q23 -55 52 -91q22 -27 50 -53q30 -29 78 -46q49 -18 111 -18q60 0 114 20q55 20 108 64q50 42 95 111t74 163l59 -18q-22 -98 -66 -181
q-44 -84 -109 -144q-66 -62 -149 -95q-87 -35 -190 -35q-172 0 -307 53q-133 52 -224 145q-90 91 -137 222q-46 128 -46 281q0 158 53 290q52 129 148 222q95 92 224 142t279 50q144 0 247 -48q105 -49 151 -114h8l47 123h51v-473h-59q-41 169 -125 277q-56 72 -131 115
q-73 42 -166 42z" />
    <glyph glyph-name="D" unicode="D" horiz-adv-x="1560" 
d="M752 1348q130 0 239 -26q107 -26 172 -58q66 -34 127 -84q62 -51 104 -121q43 -72 69 -167q26 -96 26 -218q0 -113 -24 -203q-24 -92 -64 -162q-40 -71 -98 -126q-54 -52 -127 -91q-27 -15 -75 -33q-32 -12 -94 -29q-56 -15 -106 -22q-59 -8 -110 -8h-754v57q8 1 21 2.5
t18 1.5q13 1 37 9q35 11 58 31q22 19 38 75q5 20 10 67q4 37 4 99v664q0 62 -4 99q-5 46 -10 66q-16 56 -38 75q-25 22 -58 32q-20 7 -37 8q-5 0 -18 1.5t-21 2.5v58h715zM784 90q48 0 97 19q47 18 88 71q52 64 77 182q25 116 25 312q0 210 -36 332t-81 174q-22 25 -47 39
q-23 12 -54 23q-27 9 -54 12t-47 3h-78q-12 0 -19 -1q-11 -2 -16 -7q-10 -10 -10 -24v-944q0 -41 6 -83q6 -43 22 -65t44 -33q26 -10 63 -10h20z" />
    <glyph glyph-name="E" unicode="E" horiz-adv-x="1372" 
d="M1231 0h-1194v57q8 1 21 2.5t18 1.5q13 1 37 9q35 11 58 31q22 19 38 75q5 20 10 67q4 37 4 99v664q0 62 -4 99q-5 46 -10 66q-16 56 -38 75q-25 22 -58 32q-20 7 -37 8q-5 0 -18 1.5t-21 2.5v58h1177l78 -455h-59q-28 76 -68 147q-39 68 -102 127q-25 24 -57 44
q-26 16 -64 28q-29 9 -80 14q-40 4 -108 4h-80q-12 0 -19 -1q-11 -2 -16 -7q-10 -10 -10 -24v-486h37q88 0 127 14q35 13 57 42q35 47 47 88t18 96h60v-569h-60q-6 56 -18 96q-12 41 -47 88q-22 29 -57 42q-36 13 -127 13h-37v-379q0 -40 6 -77q6 -38 22 -60q30 -43 103 -43
h31q66 0 124 26q60 27 111 72q78 66 141 156q67 95 103 168h59z" />
    <glyph glyph-name="F" unicode="F" horiz-adv-x="1306" 
d="M817 0h-780v57q8 1 21 2.5t18 1.5q13 1 37 9q35 11 58 31q22 19 38 75q5 20 10 67q4 37 4 99v664q0 62 -4 99q-5 46 -10 66q-16 56 -38 75q-25 22 -58 32q-20 7 -37 8q-5 0 -18 1.5t-21 2.5v58h1153l65 -492h-59q-30 82 -74 155q-46 76 -104 134q-31 31 -54 50
q-26 21 -58 35q-28 12 -75 20q-41 7 -106 7h-55q-12 0 -19 -1q-11 -2 -16 -7q-10 -10 -10 -24v-465h24q91 0 127 13q37 13 58 42q35 47 47 88t18 96h59v-569h-59q-6 56 -18 96q-12 41 -47 88q-21 29 -58 42q-39 14 -127 14h-24v-328q0 -62 4 -99q5 -47 10 -67q16 -56 38 -75
q23 -20 58 -31q23 -8 40 -9q7 -1 21 -2.5t21 -1.5v-57z" />
    <glyph glyph-name="G" unicode="G" horiz-adv-x="1441" 
d="M915 352q0 32 -2 78q-2 35 -12 59q-15 34 -31 48q-14 13 -51 24q-15 5 -32 7q-18 2 -29 3v58h694v-58q-6 -1 -16.5 -2.5t-15.5 -1.5q-17 -2 -34 -6q-35 -11 -52 -22t-34 -47q-10 -24 -12 -61q-2 -48 -2 -79v-256q-50 -15 -87 -30q-50 -20 -136 -43q-5 -1 -28.5 -8
t-37.5 -10q-32 -8 -77 -16q-52 -10 -82 -13q-45 -5 -74 -5q-148 0 -279 51q-126 49 -219 142q-92 92 -143 221t-51 287q0 161 55 290q55 130 153 222q100 94 227 142q132 50 281 50q81 0 144 -18q61 -17 111 -44q49 -26 79 -53q31 -28 43 -49h9l34 97h64v-494h-60
q-21 109 -55 186q-35 80 -86 154q-51 73 -119 111q-67 37 -164 39q-30 0 -72 -11q-39 -10 -73 -41q-27 -27 -52 -64t-45 -103q-20 -68 -32 -163q-12 -99 -12 -249q0 -155 10 -255q11 -106 30 -176q20 -72 46 -111q27 -41 59 -58q24 -13 53 -20q28 -7 62 -7q56 0 85 14
q32 15 48 43q16 24 18 65q2 54 2 69v114z" />
    <glyph glyph-name="H" unicode="H" horiz-adv-x="1640" 
d="M795 0h-758v57q8 1 21 2.5t18 1.5q13 1 37 9q35 11 58 31q22 19 38 75q5 20 10 67q4 37 4 99v664q0 62 -4 99q-5 46 -10 66q-16 56 -38 75q-25 22 -58 32q-20 7 -37 8q-5 0 -18 1.5t-21 2.5v58h758v-58q-5 0 -37 -5q-19 -3 -37 -11q-35 -17 -51 -37q-17 -22 -27 -59
q-5 -20 -10 -62q-4 -33 -4 -94v-301h383v301q0 61 -4 94q-4 35 -11 62q-11 39 -26 59q-16 20 -51 37q-18 8 -37 11q-32 5 -37 5v58h758v-58q-8 -1 -21 -2.5t-18 -1.5q-17 -1 -37 -8q-34 -10 -59 -32q-21 -18 -37 -75q-7 -27 -11 -66q-4 -37 -4 -99v-664q0 -62 4 -99
q4 -40 11 -67q16 -57 37 -75q23 -20 59 -31q24 -8 37 -9q5 0 18 -1.5t21 -2.5v-57h-758v57q6 1 37 5q15 2 37 12q35 17 51 37q15 20 26 59q7 28 11 61t4 95v305h-383v-305q0 -62 4 -95q5 -40 10 -61q10 -37 27 -59q16 -20 51 -37q22 -10 37 -12q31 -4 37 -5v-57z" />
    <glyph glyph-name="I" unicode="I" horiz-adv-x="851" 
d="M629 342q0 -62 4 -99q5 -47 10 -67q16 -56 38 -75q23 -20 58 -31q24 -8 37 -9q5 0 18 -1.5t21 -2.5v-57h-778v57q8 1 21 2.5t18 1.5q13 1 37 9q35 11 58 31q22 19 38 75q5 20 10 67q4 37 4 99v664q0 62 -4 99q-5 46 -10 66q-16 56 -38 75q-25 22 -58 32q-20 7 -37 8
q-5 0 -18 1.5t-21 2.5v58h778v-58q-8 -1 -21 -2.5t-18 -1.5q-17 -1 -37 -8q-33 -10 -58 -32q-22 -19 -38 -75q-5 -21 -10 -66q-4 -37 -4 -99v-664z" />
    <glyph glyph-name="J" unicode="J" horiz-adv-x="1122" 
d="M512 1006q0 62 -4 99q-5 46 -10 66q-16 56 -38 75q-25 22 -59 32q-20 7 -36 8q-5 0 -18 1.5t-21 2.5v58h778v-58q-8 -1 -21 -2.5t-18 -1.5q-17 -1 -37 -8q-33 -10 -58 -32q-22 -19 -38 -75q-5 -21 -10 -66q-5 -47 -5 -99v-512q0 -164 -41 -264t-108 -156
q-65 -55 -165 -79q-99 -24 -212 -24q-39 0 -79 6q-35 5 -78 19q-31 10 -69 28q-30 14 -52 33q-52 46 -82 98q-31 54 -31 124q0 106 57 160q58 55 142 55q91 0 135 -50q43 -49 43 -129q0 -26 -5 -48q-3 -13 -16 -50q-6 -16 -15 -42t-9 -27q-10 -29 -10 -42q0 -28 20 -41
q22 -14 49 -14q35 0 62 18q26 17 41 52q12 30 15 74q3 43 3 129v682z" />
    <glyph glyph-name="K" unicode="K" horiz-adv-x="1548" 
d="M629 676l321 346q39 41 56 60t36 46q15 21 22 38t7 38q0 54 -47 72q-24 9 -78 14v58h504v-58q-38 -7 -80 -22q-46 -17 -80 -39q-26 -17 -40 -29q-13 -11 -38 -34q-24 -22 -45 -46q-6 -7 -25.5 -28t-31.5 -35l-246 -269v-12q140 -12 212 -42q75 -31 126 -81q30 -28 51 -65
q20 -35 40 -83q15 -36 29 -89q10 -36 17 -84q10 -64 23 -108q12 -39 24 -64q12 -24 28 -37q24 -19 32 -25q20 -14 51 -26q29 -10 51 -15v-57h-557q-25 29 -50 98t-36 172q-3 32 -5 97q-2 60 -4 90q-3 42 -12 83q-9 39 -30 74q-28 48 -96 48q-27 0 -52 -14t-47 -36l-30 -32
v-238q0 -62 4 -99q5 -47 10 -67q16 -56 38 -75q23 -20 58 -31q24 -8 37 -9q5 0 18 -1.5t21 -2.5v-57h-778v57q8 1 21 2.5t18 1.5q13 1 37 9q35 11 58 31q22 19 38 75q5 20 10 67q4 37 4 99v664q0 62 -4 99q-5 46 -10 66q-16 56 -38 75q-25 22 -58 32q-20 7 -37 8
q-5 0 -18 1.5t-21 2.5v58h778v-58q-8 -1 -21 -2.5t-18 -1.5q-17 -1 -37 -8q-33 -10 -58 -32q-22 -19 -38 -75q-5 -21 -10 -66q-4 -37 -4 -99v-330z" />
    <glyph glyph-name="L" unicode="L" horiz-adv-x="1359" 
d="M37 57q8 1 21 2.5t18 1.5q13 1 37 9q35 11 58 31q22 19 38 75q5 20 10 67q4 37 4 99v664q0 62 -4 99q-5 46 -10 66q-16 56 -38 75q-25 22 -58 32q-20 7 -37 8q-5 0 -18 1.5t-21 2.5v58h778v-58q-8 -1 -21 -2.5t-18 -1.5q-17 -1 -37 -8q-33 -10 -58 -32q-22 -19 -38 -75
q-5 -21 -10 -66q-4 -37 -4 -95v-740q0 -40 6 -77q6 -38 22 -60q30 -43 103 -43h43q67 0 117 24q52 25 100 72q85 79 138 164q50 80 91 162h60l-78 -512h-1194v57z" />
    <glyph glyph-name="M" unicode="M" horiz-adv-x="1845" 
d="M1808 1290q-8 -1 -21 -2.5t-18 -1.5q-16 -1 -36 -8q-34 -10 -59 -32q-22 -19 -38 -75q-5 -21 -10 -66q-4 -37 -4 -99v-664q0 -62 4 -99q5 -47 10 -67q16 -56 38 -75q23 -20 59 -31q24 -8 36 -9q5 0 18 -1.5t21 -2.5v-57h-778v57q8 1 21 2.5t18 1.5q13 1 37 9q35 11 58 31
q22 19 38 75q5 20 10 67t5 99v754h-15l-344 -1100h-149l-377 1079h-8v-735q0 -60 1 -82q2 -38 4 -55q3 -20 8 -38q4 -14 13 -28q18 -31 37 -43q16 -10 47 -22q24 -8 33 -9q14 -1 37 -6v-57h-467v57q36 6 72 17q20 6 43 21q22 15 34 42q1 3 4 9.5t5 11.5t3 9q5 17 8 37
q2 16 4 54q1 22 1 82v666q0 26 -2 92q-1 47 -8 73q-15 54 -39 76q-23 22 -60 33q-18 4 -33 6q-5 0 -15.5 1.5t-16.5 2.5v58h645l246 -748h8l242 748h630v-58z" />
    <glyph glyph-name="N" unicode="N" horiz-adv-x="1497" 
d="M1059 -4l-713 1020h-10v-676q0 -60 1 -82q2 -38 4 -55q3 -20 8 -38q4 -14 13 -28q18 -31 37 -43q16 -10 47 -22q24 -8 33 -9q14 -1 37 -6v-57h-467v57q36 6 72 17q20 6 43 21t35 42q8 20 11 30q5 17 8 37q2 16 4 54q1 22 1 82v502q0 129 -6 201q-6 73 -33 128
q-22 47 -46 67q-28 23 -50 34q-16 7 -32 12q-15 4 -36 6v58h613l541 -775h10v435q0 60 -1 82q-2 38 -4 54q-2 13 -9 37q-2 6 -11 29q-12 27 -35 42q-26 17 -43 22q-31 10 -71 16v58h467v-58q-23 -5 -37 -6q-13 -1 -33 -8q-28 -10 -47 -23q-19 -12 -37 -43q-9 -15 -13 -27
q-5 -18 -8 -38q-4 -28 -5 -55q-1 -22 -1 -82v-1012h-237z" />
    <glyph glyph-name="O" unicode="O" horiz-adv-x="1507" 
d="M754 1376q148 0 275 -50q124 -49 216 -142q91 -92 140 -222q51 -134 51 -290q0 -154 -51 -287q-49 -129 -140 -221q-92 -93 -216 -142q-130 -51 -275 -51q-149 0 -277 51q-124 49 -215 142q-91 92 -140 221q-50 130 -50 287q0 158 50 290q49 130 140 222q91 93 215 142
q126 50 277 50zM754 43q32 0 61 6q26 5 55 25q34 24 56 61q25 42 43 111t27 174q10 117 10 254t-10 254q-9 105 -27 174q-17 65 -43 109q-22 38 -56 63q-27 18 -55 24q-33 7 -61 7q-29 0 -62 -7q-28 -6 -55 -24q-32 -24 -55 -63q-26 -44 -43 -109q-19 -75 -28 -174
q-9 -105 -9 -254t9 -254q9 -99 28 -174q18 -69 43 -111q23 -38 55 -61q29 -20 55 -25q28 -6 62 -6z" />
    <glyph glyph-name="P" unicode="P" horiz-adv-x="1351" 
d="M815 0h-778v57q8 1 21 2.5t18 1.5q13 1 37 9q35 11 58 31q22 19 38 75q5 20 10 67q4 37 4 99v664q0 62 -4 99q-5 46 -10 66q-16 56 -38 75q-25 22 -58 32q-20 7 -37 8q-5 0 -18 1.5t-21 2.5v58h766q263 0 393 -87q131 -87 131 -288q0 -47 -12 -93q-11 -41 -34 -88
q-20 -40 -52 -75q-26 -29 -66 -53q-67 -38 -173 -63q-110 -26 -298 -26h-63v-233q0 -62 4 -99q5 -47 10 -67q16 -56 38 -75q23 -20 58 -31q24 -8 37 -9q5 0 18 -1.5t21 -2.5v-57zM629 668h59q74 0 111 17q38 17 73 65q20 28 34 79q14 53 14 150q0 143 -41 211
q-40 67 -140 67h-43q-45 0 -57 -12q-10 -10 -10 -31v-546z" />
    <glyph glyph-name="Q" unicode="Q" horiz-adv-x="1507" 
d="M754 1376q148 0 275 -50q124 -49 216 -142q91 -92 140 -222q51 -134 51 -290q0 -140 -41 -260q-40 -118 -115 -208q-76 -91 -177 -147q-103 -57 -229 -75q-80 -22 -124 -35q-21 -6 -66.5 -19.5t-67.5 -20.5q-69 -21 -112 -37q-44 -16 -64 -26v-14q49 16 97 24q43 7 104 7
q48 0 81 -4q25 -3 77 -13q43 -8 80 -22q58 -22 88 -35q73 -32 97 -41q47 -18 76 -26q30 -8 61 -13q24 -4 54 -4q68 0 98 36q27 33 50 83l57 -15q-5 -82 -18 -141q-15 -70 -49 -129q-41 -70 -112 -114t-177 -44q-129 0 -240 60t-196 145q-89 84 -160 137q-70 52 -117 52
q-45 0 -45 -37q0 -16 15 -31q5 -5 14 -13t12 -11q41 -41 41 -91q0 -47 -37 -83q-36 -35 -104 -35q-63 0 -104 42q-40 41 -40 105q0 79 37 132t84 91q45 37 94 57q18 8 40.5 17t25.5 10q21 10 72 27t108 33q-120 22 -218 81q-99 59 -168 146q-70 89 -108 204q-38 117 -38 255
q0 158 50 290q49 130 140 222q91 93 215 142q126 50 277 50zM754 43q32 0 61 6q26 5 55 25q34 24 56 61q25 42 43 111t27 174q10 117 10 254t-10 254q-9 105 -27 174q-17 65 -43 109q-22 38 -56 63q-27 18 -55 24q-33 7 -61 7q-29 0 -62 -7q-28 -6 -55 -24q-32 -24 -55 -63
q-26 -44 -43 -109q-19 -75 -28 -174q-9 -105 -9 -254t9 -254q9 -99 28 -174q18 -69 43 -111q23 -38 55 -61q29 -20 55 -25q28 -6 62 -6z" />
    <glyph glyph-name="R" unicode="R" horiz-adv-x="1515" 
d="M813 0h-776v57q4 0 17 1.5t21 2.5q17 1 40 7q37 11 59 32q24 22 39 76q7 27 8 58q2 46 2 77v725q0 31 -2 77q-1 31 -8 58q-15 54 -39 76t-59 33q-18 4 -40 6q-8 1 -21 2.5t-17 1.5v58h794q98 0 192 -17t161 -55q70 -39 110 -105q41 -67 41 -165q0 -114 -58 -182
q-57 -68 -151 -103q-40 -17 -78 -27q-33 -9 -90 -16v-16q69 -7 118 -23q46 -15 89 -37q57 -31 101 -85q46 -56 61 -146q7 -55 19 -110q13 -56 21 -79q13 -34 26 -56q17 -27 30 -40q14 -14 36 -19q31 -7 57 -10v-57h-521q-31 38 -51 92q-20 52 -26 144q-7 91 -22 186
q-14 82 -48 135q-29 44 -62 54t-75 10h-82v-310q0 -31 2 -77q1 -31 8 -58q15 -54 39 -76q22 -21 59 -32q24 -6 39 -7q8 -1 20.5 -2.5t16.5 -1.5v-57zM666 1257q-19 0 -27 -8q-10 -10 -10 -24v-514h78q107 0 141 67q25 49 31 105q6 57 6 123q0 139 -40 195t-114 56h-65z" />
    <glyph glyph-name="S" unicode="S" horiz-adv-x="1189" 
d="M592 -29q-108 0 -203 39t-147 105h-9l-77 -113h-58l-6 500h62q23 -83 65 -168q41 -84 97 -147q57 -64 127 -103q71 -39 155 -39q109 0 155 36t46 120q0 37 -12 67q-13 32 -42 61q-27 27 -86 59q-61 33 -143 65q-80 30 -148 62q-80 37 -141 93q-63 57 -104 142t-41 208
q0 98 42 174t115 131q71 53 168 84q91 29 199 29q112 0 193 -35q79 -34 112 -84h13l49 82h57l37 -460h-57q-17 66 -47 132q-26 57 -64 115q-107 179 -293 179q-53 0 -92 -14q-34 -12 -60 -35q-23 -20 -34 -50q-10 -27 -10 -57q0 -53 16 -86q17 -37 50 -62q34 -26 85 -49
q36 -16 121 -51q73 -31 158 -71q78 -37 144 -92q65 -54 105 -130q39 -74 39 -186t-42 -198q-41 -83 -114 -141q-72 -57 -170 -84q-101 -28 -210 -28z" />
    <glyph glyph-name="T" unicode="T" horiz-adv-x="1384" 
d="M895 311q0 -31 2 -77q1 -31 8 -58q15 -54 39 -76q22 -20 60 -32q25 -6 33 -7q5 0 15.5 -1.5t16.5 -2.5v-57h-754v57q6 1 16.5 2.5t15.5 1.5q10 1 34 7q37 11 59 32q24 22 39 76q7 27 8 58q2 46 2 77v959h-30q-58 0 -109 -31q-47 -29 -108 -106q-46 -59 -80 -123
q-12 -22 -40 -75.5t-44 -84.5h-58l35 498h1274l35 -498h-57q-59 112 -86 159q-35 61 -78 124q-61 85 -111 111t-106 26h-31v-959z" />
    <glyph glyph-name="U" unicode="U" horiz-adv-x="1511" 
d="M1313 473q0 -84 -17 -169q-17 -83 -49 -142q-18 -33 -50 -65q-35 -35 -90 -61q-58 -27 -140 -45q-84 -18 -201 -18q-79 0 -164 10q-77 9 -140 31q-64 22 -115 64t-85 102q-28 49 -46 134q-17 81 -17 192v530q0 31 -2 77q-1 27 -9 58q-16 55 -38 76q-23 22 -60 33
q-21 4 -36 6q-4 0 -15.5 1.5t-18.5 2.5v58h754v-58q-6 -1 -16 -2.5t-15 -1.5q-13 -1 -30 -6q-37 -11 -60 -33q-24 -22 -39 -76q-7 -27 -8 -58q-2 -46 -2 -77v-604q0 -146 39 -215q45 -76 103 -103q61 -28 145 -28q94 0 161 29q66 28 103 100q27 51 36 120t9 126v547
q0 60 -1 82q-2 38 -4 54q-3 20 -8 37q-2 6 -11 29q-12 27 -35 42q-26 17 -43 22q-22 6 -37 9q-1 0 -15.5 2.5t-23.5 4.5v58h469v-58q-22 -5 -35 -6t-33 -8q-28 -10 -47 -23q-19 -12 -37 -43q-9 -15 -13 -27q-5 -18 -8 -38q-2 -17 -4 -55q-1 -22 -1 -82v-535z" />
    <glyph glyph-name="V" unicode="V" horiz-adv-x="1427" 
d="M868 449h15l180 567q2 5 4 11t4.5 14.5t4.5 13.5q10 30 14 46q3 10 10 45q4 19 4 36q0 49 -18 67q-19 19 -50 29q-23 7 -43 8q-6 0 -22.5 1.5t-26.5 2.5v58h483v-58q-8 -2 -24 -4.5t-23 -3.5q-28 -5 -47 -18q-25 -17 -42 -31q-18 -16 -42 -47q-20 -27 -40 -75
q-14 -34 -40 -110l-335 -1009h-267l-327 1034q-17 58 -37 103q-22 50 -45 79q-22 26 -43 42q-18 14 -45 24q-13 5 -36 10q-20 5 -34 6v58h803v-58l-41 -5q-27 -3 -39 -7q-32 -10 -52 -27t-20 -61q0 -28 13 -73q6 -21 30 -101z" />
    <glyph glyph-name="W" unicode="W" horiz-adv-x="2195" 
d="M842 487h14l182 596q-14 46 -26 72q-16 35 -31 57q-22 32 -41 45q-22 15 -41 21q-24 7 -36 8q-5 0 -14.5 2t-14.5 2v58h780v-58q-5 0 -39 -5q-25 -3 -37 -7q-31 -10 -49 -26q-16 -15 -16 -56q0 -33 10 -74q21 -86 26 -106l154 -529h14l160 529q14 46 25 95q10 44 10 75
q0 46 -14 63q-16 19 -48 29q-24 7 -41 8q-5 0 -21 1.5t-26 2.5v58h473v-58q-30 -6 -46 -10q-25 -6 -46 -16q-12 -7 -38 -23q-18 -11 -42 -43q-22 -30 -41 -81q-9 -24 -38 -116l-316 -1009h-264l-272 913l-285 -913h-264l-307 1034q-17 58 -37 103q-22 50 -45 79
q-20 24 -43 43q-16 13 -43 25q-19 9 -35 10q-7 1 -18 2.5t-15 1.5v58h780v-58q-11 -1 -35 -5q-20 -3 -32 -7q-28 -10 -45 -26q-17 -15 -17 -56q0 -28 11 -74q21 -86 26 -106z" />
    <glyph glyph-name="X" unicode="X" horiz-adv-x="1417" 
d="M821 1350v-58q-77 -11 -105 -26q-30 -16 -30 -66q0 -32 21 -76t51 -96l84 -154l119 189q23 35 41 79q16 40 16 60q0 34 -16 50q-15 16 -44 26q-17 7 -29 8q-17 2 -34 6v58h459v-58q-17 -2 -38 -9q-26 -9 -38 -17q-35 -22 -51 -37q-24 -22 -35 -33q-35 -40 -52 -62
q-42 -56 -69 -96l-174 -266l260 -471q61 -101 119 -162q56 -59 141 -82v-57h-801v57q68 11 92 30q23 19 23 69q0 32 -21 72l-51 94l-90 161l-125 -196q-17 -27 -40 -70q-17 -33 -17 -70q0 -35 12 -50q11 -14 41 -25q20 -8 33 -9q19 -2 37 -6v-57h-463v57q6 1 18.5 4t16.5 4
q19 4 45 17q33 16 48 30q19 17 38 40q18 19 50 61q40 51 71 98l178 275l-270 491q-32 53 -60 91q-29 39 -53 60q-26 23 -57 37q-24 11 -72 25v58z" />
    <glyph glyph-name="Y" unicode="Y" horiz-adv-x="1361" 
d="M211 1118q-25 51 -43 76q-23 33 -44 50q-25 20 -53 30q-27 10 -71 16v58h752v-58q-11 -1 -35 -5q-19 -3 -35 -9q-87 -38 -18 -195l174 -368h10l158 327q31 68 43 105q10 31 10 61q0 28 -14 44q-15 16 -41 26q-17 6 -37 9q-32 5 -37 5v58h432v-58q-87 -17 -137 -70
q-53 -56 -99 -157l-239 -506v-215q0 -62 4 -99q5 -47 10 -67q16 -56 38 -75q23 -20 58 -31q24 -8 37 -9q5 0 18 -1.5t21 -2.5v-57h-778v57q8 1 21 2.5t18 1.5q13 1 37 9q35 11 58 31q22 19 38 75q5 20 10 67q4 37 4 99v213z" />
    <glyph glyph-name="Z" unicode="Z" horiz-adv-x="1335" 
d="M1257 1296l-700 -1206h107q98 0 178 21q82 22 139 79q87 87 139 166q55 83 92 156h62l-100 -512h-1123v53l752 1204h-135q-111 0 -174 -20q-68 -22 -107 -49q-55 -41 -115 -120q-61 -80 -106 -169h-57l53 449h1095v-52z" />
    <glyph glyph-name="a" unicode="a" horiz-adv-x="1040" 
d="M1020 29q-29 -17 -88 -33q-58 -16 -160 -16q-73 0 -106 9q-35 10 -54 19q-14 9 -30 33q-14 22 -19 66h-14q-36 -59 -92 -93t-152 -34q-45 0 -91 12q-45 12 -84 38q-37 25 -61 67t-24 104q0 67 21 105q23 41 45 63q62 67 225 106q47 11 88 25q40 14 57 23q24 13 35 24
q14 14 19 24l2 181q0 60 -18 88t-62 28q-40 0 -56 -20q-16 -21 -22 -35q-5 -13 -13 -44q-6 -25 -18 -67q-12 -43 -46 -74q-35 -32 -95 -32q-64 0 -98 32q-33 32 -33 79q0 26 9 52t24 44q41 53 136 94q96 41 226 41q102 0 175 -11q81 -12 134 -38q55 -27 85 -72t30 -115
l-2 -458q0 -78 3 -107q3 -28 15 -43q16 -16 52 -16q14 0 36 8zM535 485q-9 -9 -24 -19l-30 -20q-16 -10 -30 -20q-15 -10 -27 -27q-16 -21 -28 -53q-11 -30 -11 -88q0 -83 19 -114t57 -31q44 0 71 51z" />
    <glyph glyph-name="b" unicode="b" horiz-adv-x="1179" 
d="M465 1401q18 0 18 -21l-6 -127v-424h6q32 48 95 79q62 30 149 30q66 0 135 -24q71 -25 126 -78q54 -52 93 -148q37 -90 37 -229q0 -118 -41 -209q-41 -90 -111 -150q-70 -59 -163 -90q-91 -30 -195 -30q-27 0 -70 8q-40 7 -82 24q-43 17 -80 42q-40 27 -63 63h-4
l-131 -119h-69q2 24 3 55q1 11 1.5 34t0.5 35q1 24 1 67v51v897q0 101 -17 137q-11 22 -21 32q-11 11 -24 19q-21 13 -59 18v58h471zM608 834q-21 0 -47 -13q-24 -12 -51 -55q-15 -23 -24 -61q-9 -39 -9 -93v-342q0 -44 1 -60q1 -22 3 -40q1 -16 6 -30q1 -1 13 -29
q17 -38 47 -50t55 -12q40 0 67 22q26 21 41 68q15 46 21 125q6 78 6 193q0 101 -8 178q-8 73 -24 116t-41 63t-56 20z" />
    <glyph glyph-name="c" unicode="c" horiz-adv-x="987" 
d="M584 868q-39 0 -56 -13q-18 -13 -30 -36q-10 -18 -21 -45q-11 -28 -18 -69q-11 -64 -14 -104q-5 -67 -5 -142q0 -79 6 -136q6 -58 18 -95q12 -36 27 -61q14 -23 31 -38q28 -22 56 -33q26 -10 63 -10q63 0 107 18q39 16 71 50q29 31 47 69q22 47 35 82l55 -18
q-16 -56 -44 -113q-26 -54 -75 -98q-46 -42 -118 -70q-66 -26 -170 -26q-88 0 -164 22t-129 64q-41 31 -75 67t-62 85q-27 48 -42 108q-16 64 -16 133q0 128 51 222q49 90 128 148t169 83q93 26 175 26q131 0 201 -26t100 -56q30 -28 47 -61q14 -28 14 -78q0 -125 -125 -125
q-71 0 -104 46t-49 128q-12 59 -34 81q-21 21 -50 21z" />
    <glyph glyph-name="d" unicode="d" horiz-adv-x="1193" 
d="M723 0q-13 0 -14 14q-2 20 -2 24v21v45h-13q-67 -122 -254 -122q-77 0 -144 29q-68 30 -121 90q-52 60 -83 150q-31 91 -31 208q0 111 37 198q37 88 99 151q60 61 140 96q78 34 163 34q78 0 115 -15q38 -15 67 -53h8v267q0 104 -16 137q-10 20 -22 32t-23 19
q-21 13 -60 18v58h471q19 0 19 -21l-6 -127v-997q0 -96 16 -129q10 -20 22 -32t23 -19q23 -14 60 -19v-57h-451zM690 662q0 52 -4 83q-5 35 -27 68q-18 24 -35 32q-20 9 -53 9q-67 0 -100 -106t-33 -289q0 -100 8 -174q7 -69 26 -112q18 -42 42 -60q25 -19 57 -19
q53 0 86 43t33 92v433z" />
    <glyph glyph-name="e" unicode="e" horiz-adv-x="1032" 
d="M977 264q-17 -57 -45 -108q-28 -50 -77 -90q-48 -39 -119 -63q-68 -23 -171 -23q-87 0 -165 22q-74 21 -144 64q-85 52 -140 148t-55 245q0 131 45 222q44 90 116 148q71 57 157 83q87 26 170 26q105 0 184 -30t135 -81t84 -121q29 -72 29 -151q0 -19 -2 -59
q-1 -20 -4 -41h-535q1 -80 10 -147q8 -61 19 -96q11 -36 28 -59q16 -22 31 -36q27 -21 57 -33q26 -10 68 -10q65 0 110 19q47 19 77 50q31 31 50 68q21 40 32 72zM485 836q-13 -17 -20 -38q-9 -25 -13 -58q-7 -59 -9 -88q-3 -52 -3 -128h160q53 0 53 58q0 100 -6 161
q-6 62 -29 97q-10 14 -27 21t-36 7q-44 0 -70 -32z" />
    <glyph glyph-name="f" unicode="f" horiz-adv-x="692" 
d="M29 0v57q36 5 59 19q13 8 24 19q10 10 21 32q10 20 13 52q3 31 3 75v565h-116v99h114v137q0 49 16 95q15 44 38 79t48 60q24 24 48 40q53 35 126 59q69 23 189 23q46 0 80 -3q29 -3 62 -8q25 -4 47 -12q18 -6 41 -18q58 -28 83 -73q23 -42 23 -85q0 -52 -33 -96
q-33 -43 -102 -43q-47 0 -77 18t-48 48q-22 39 -33 86l-12 73q-5 17 -17 31q-13 14 -36 14q-15 0 -33 -8q-17 -8 -27 -28q-11 -22 -16 -53q-4 -24 -4 -68v-268h182v-99h-182v-565q0 -44 3 -75q3 -32 13 -52t22 -32t23 -19q14 -9 33 -13q21 -5 37 -6v-57h-612z" />
    <glyph glyph-name="g" unicode="g" horiz-adv-x="1118" 
d="M248 346q-79 38 -128 103q-50 67 -50 169q0 86 34 145q34 58 93 99q59 40 131 58q74 18 153 18q93 0 174 -26q82 -26 138 -78h16q35 62 84 89t108 27t103 -30q43 -30 43 -93q0 -65 -30 -95t-77 -30q-36 0 -65 20t-45 60l-16 37q-5 12 -17 12q-15 0 -26 -14t-11 -37
q0 -26 4 -35q13 -34 20 -59q9 -33 9 -68q0 -83 -35 -144q-34 -59 -92 -99q-57 -39 -131 -57q-69 -17 -154 -17q-59 0 -94 6t-57 6q-37 0 -60 -16q-24 -17 -24 -45q0 -53 86 -53q27 0 75 3q24 2 102 8q74 6 106 8q53 3 90 3q185 0 262 -70t77 -221q0 -85 -46 -153
q-47 -70 -126 -119q-81 -51 -190 -77q-111 -27 -240 -27q-76 0 -158 8q-77 8 -138 29q-58 20 -96 57q-36 34 -36 90q0 41 21 68q25 32 54 47q34 18 77 28q49 12 88 17v10q-53 7 -92 32q-38 24 -61 53q-22 28 -33 63q-11 36 -11 65q0 85 54 144q52 57 137 75v6zM846 -199
q0 48 -32 69t-128 21q-21 0 -79 -2q-29 -1 -87 -5q-51 -4 -80 -7q-39 -5 -59 -6q-91 -11 -129 -42q-37 -31 -37 -73q0 -43 21 -70q22 -28 54 -42q36 -16 80 -20q52 -5 99 -5q86 0 152 13q72 14 119 37q53 25 78 58q28 36 28 74zM379 618q0 -135 22 -191t78 -56q60 0 82 56
q23 58 23 189q0 134 -23 194q-22 58 -82 58q-55 0 -78 -57q-22 -56 -22 -193z" />
    <glyph glyph-name="h" unicode="h" horiz-adv-x="1241" 
d="M1100 256q0 -96 16 -129q10 -20 22 -32t23 -19q23 -14 60 -19v-57h-578v57q20 3 47 13q36 17 43 69q3 15 5 52q1 21 1 65v420q0 39 -8 61q-7 20 -18 31t-26 16q-12 4 -38 4q-33 0 -58 -16q-26 -17 -44 -45q-17 -23 -27 -56t-10 -73v-342q0 -44 1 -65q2 -37 5 -52
q7 -52 43 -69q27 -10 47 -13v-57h-577v57q36 5 59 19q13 8 24 19q10 10 21 32q17 36 17 129v889q0 93 -17 129q-11 22 -21 32q-11 11 -24 19q-21 13 -59 18v58h454q19 0 19 -21v-182v-129v-127v-103v-59h14q24 37 42 55q20 19 54 42q40 28 86 45q44 16 111 16q87 0 139 -24
q54 -25 86 -58q35 -38 50 -81q16 -46 16 -109v-410z" />
    <glyph glyph-name="i" unicode="i" horiz-adv-x="651" 
d="M510 256q0 -96 16 -129q10 -20 22 -32t23 -19q23 -14 60 -19v-57h-602v57q36 5 59 19q13 8 24 19q10 10 21 32q17 36 17 129v406q0 93 -17 129q-10 20 -21 31q-13 13 -24 20q-21 13 -59 18v58h469q18 0 18 -21l-6 -127v-514zM330 1010q-42 0 -76 15t-59 40q-24 24 -39 57
t-15 70q0 36 15 71q14 33 39 59q24 26 59 41t76 15q42 0 76 -15q35 -15 59 -41q25 -26 39 -59q14 -32 14 -71t-14 -70q-15 -33 -39 -57q-25 -25 -59 -40q-35 -15 -76 -15z" />
    <glyph glyph-name="j" unicode="j" horiz-adv-x="624" 
d="M150 662q0 93 -17 129q-10 20 -21 31q-13 13 -24 20q-21 13 -59 18v57h469q18 0 18 -20l-6 -127v-735q0 -80 -17 -137q-19 -62 -44 -103q-26 -42 -59 -75q-32 -32 -60 -54q-20 -16 -41 -30t-66 -33q-37 -16 -91 -28q-48 -11 -118 -11q-73 0 -119 14q-56 17 -96 41
q-42 26 -71 70t-29 102q0 65 44 118q43 52 128 52q86 0 128 -47q42 -46 42 -113q0 -20 -3 -38q-3 -20 -13 -42q-2 -6 -16 -33q-7 -14 -7 -26q0 -29 41 -29q34 0 54 23t32 57q11 33 15 69q6 48 6 91v789zM330 1010q-42 0 -76 15t-59 40q-24 24 -39 57t-15 70q0 36 15 71
q14 33 39 59q24 26 59 41t76 15q42 0 76 -15q35 -15 59 -41q25 -26 39 -59q14 -32 14 -71t-14 -70q-15 -33 -39 -57q-25 -25 -59 -40q-35 -15 -76 -15z" />
    <glyph glyph-name="k" unicode="k" horiz-adv-x="1245" 
d="M750 588q126 -21 198 -75t88 -136q18 -95 48 -168q30 -74 59 -109q17 -23 37 -30q26 -9 55 -13v-57h-438q-37 30 -69 118q-31 85 -46 199q-7 63 -23 100q-15 37 -41 54l-108 -98v-117q0 -96 16 -129q10 -20 22 -32t23 -19q23 -14 60 -19v-57h-602v57q36 5 59 19
q13 8 24 19q10 10 21 32q17 36 17 129v889q0 93 -17 129q-11 22 -21 32q-11 11 -24 19q-21 13 -59 18v58h469q18 0 18 -21l-6 -127v-782l190 174q50 44 76 75q29 35 29 62q0 41 -41 62q-10 5 -37 10q-24 4 -39 6v58h449v-58q-59 -6 -127 -49q-24 -15 -59 -44
q-49 -40 -83 -73z" />
    <glyph glyph-name="l" unicode="l" horiz-adv-x="651" 
d="M510 256q0 -96 16 -129q10 -20 22 -32t23 -19q23 -14 60 -19v-57h-602v57q36 5 59 19q13 8 24 19q10 10 21 32q17 36 17 129v889q0 93 -17 129q-11 22 -21 32q-11 11 -24 19q-21 13 -59 18v58h469q18 0 18 -21l-6 -127v-997z" />
    <glyph glyph-name="m" unicode="m" horiz-adv-x="1830" 
d="M643 0v57q20 3 47 13q36 17 43 69q3 15 5 52q1 21 1 65v420q0 39 -8 61q-7 20 -18 31t-26 16q-12 4 -38 4q-33 0 -58 -16q-26 -17 -44 -45q-17 -23 -27 -56t-10 -73v-342q0 -44 1 -65q2 -37 5 -52q7 -52 43 -69q27 -10 47 -13v-57h-577v57q36 5 59 19q13 8 24 19
q10 10 21 32q17 36 17 129v406q0 93 -17 129q-10 20 -21 31q-13 13 -24 20q-21 13 -59 18v58h454q19 0 19 -21l-6 -127h14q24 36 45 59q26 28 57 48q40 28 86 45q44 16 111 16q87 0 139 -24q54 -25 86 -58q35 -36 51 -86h15q24 36 45 59q26 28 57 48q40 28 86 45
q44 16 111 16q87 0 139 -24q54 -25 86 -58q35 -38 50 -81q16 -46 16 -109v-410q0 -96 16 -129q11 -22 21 -32q11 -11 24 -19q23 -14 59 -19v-57h-577v57q20 3 47 13q36 17 43 69q3 15 5 52q1 21 1 65v420q0 39 -8 61q-7 20 -18 31t-26 16q-12 4 -38 4q-33 0 -58 -16
q-26 -17 -44 -45q-14 -21 -25 -51q-10 -28 -12 -64v-356q0 -44 1 -65q2 -37 5 -52q7 -52 43 -69q27 -10 47 -13v-57h-553z" />
    <glyph glyph-name="n" unicode="n" horiz-adv-x="1241" 
d="M1100 256q0 -96 16 -129q10 -20 22 -32t23 -19q23 -14 60 -19v-57h-578v57q20 3 47 13q36 17 43 69q3 15 5 52q1 21 1 65v420q0 39 -8 61q-7 20 -18 31t-26 16q-12 4 -38 4q-33 0 -58 -16q-26 -17 -44 -45q-17 -23 -27 -56t-10 -73v-342q0 -44 1 -65q2 -37 5 -52
q7 -52 43 -69q27 -10 47 -13v-57h-577v57q36 5 59 19q13 8 24 19q10 10 21 32q17 36 17 129v406q0 93 -17 129q-10 20 -21 31q-13 13 -24 20q-21 13 -59 18v58h454q19 0 19 -21l-6 -127h14q24 36 45 59q26 28 57 48q40 28 86 45q44 16 111 16q87 0 139 -24q54 -25 86 -58
q35 -38 50 -81q16 -46 16 -109v-410z" />
    <glyph glyph-name="o" unicode="o" horiz-adv-x="1138" 
d="M61 459q0 114 41 204q40 87 112 150q70 61 162 93q93 32 193 32t193 -32t163 -93q71 -61 111 -150q41 -90 41 -204t-41 -204t-111 -151t-163 -93q-90 -31 -193 -31t-193 31q-92 31 -162 93q-71 62 -112 151q-41 90 -41 204zM700 459q0 105 -4 164q-4 64 -12 107
q-8 45 -19 67q-15 29 -26 43q-11 15 -31 22q-18 6 -39 6t-39 -6t-30 -22q-11 -14 -26 -43q-11 -22 -19 -67q-9 -52 -13 -107q-4 -59 -4 -164t4 -164q4 -57 13 -108q8 -44 19 -66q15 -30 26 -43q12 -17 30 -23t39 -6t39 6q19 6 31 23q11 13 26 43q11 22 19 66q8 42 12 108
q4 59 4 164z" />
    <glyph glyph-name="p" unicode="p" horiz-adv-x="1208" 
d="M766 457q0 101 -8 178q-7 68 -25 115q-16 42 -41 61q-24 18 -55 18q-23 0 -47 -12t-51 -55q-15 -22 -24 -70q-9 -46 -9 -100v-283q0 -60 8 -106q7 -40 25 -78q17 -36 43 -52t53 -16q36 0 61 20q25 21 40 66q16 49 23 123q7 71 7 191zM23 -379q36 5 59 19q11 7 23 19
t22 32q16 33 16 129v833q0 105 -16 138q-9 18 -22 31q-15 15 -23 20q-21 13 -59 18v58h462q19 0 19 -21q-2 -16 -2 -26v-23v-23h6q33 49 96 81q64 32 152 32q66 0 135 -24q71 -25 126 -78q54 -52 93 -148q37 -90 37 -229q0 -120 -37 -209q-38 -92 -101 -150
q-65 -60 -153 -90t-190 -30q-47 0 -86 16q-42 17 -64 39h-8v-215q0 -96 16 -129q10 -20 22 -32t23 -19q14 -9 32 -13q19 -5 42 -6v-57h-620v57z" />
    <glyph glyph-name="q" unicode="q" horiz-adv-x="1181" 
d="M707 653q0 38 -4 84q-3 38 -23 70q-16 23 -33 35q-18 12 -51 12q-66 0 -104 -96q-37 -95 -37 -299q0 -100 8 -174q8 -72 25 -112q18 -42 42 -60q25 -19 58 -19q53 0 86 43t33 92v424zM860 750l158 184h67q-4 -19 -7 -56q-4 -46 -5 -70q-1 -12 -2.5 -35.5t-1.5 -34.5
q-2 -46 -2 -52v-866q0 -96 16 -129q10 -20 22 -32t23 -19q23 -14 60 -19v-57h-623v57q23 1 45 6q21 4 35 13q13 8 24 19q10 10 21 32q17 36 17 129v272h-9q-38 -56 -104 -84t-141 -28q-182 0 -286 117q-106 120 -106 341q0 117 39 210t104 158q64 64 149 98q84 34 179 34
q65 0 116 -16q50 -16 91 -44q39 -27 65 -62t40 -66h16z" />
    <glyph glyph-name="r" unicode="r" horiz-adv-x="940" 
d="M510 729q28 71 51 100q28 34 51 54q21 18 62 38q35 17 90 17q88 0 131 -43q45 -45 45 -147q0 -43 -13 -72q-14 -32 -34 -50q-22 -21 -46 -29q-26 -9 -50 -9q-67 0 -99 25q-33 25 -55 85q-12 33 -21 42q-10 10 -24 10q-18 0 -45 -45q-26 -44 -37 -142q-3 -23 -4 -57
q-2 -60 -2 -98v-154q0 -44 3 -75q3 -32 13 -52t22 -32t23 -19q14 -9 33 -13q21 -5 37 -6v-57h-612v57q36 5 59 19q13 8 24 19q10 10 21 32q10 20 13 52q4 42 4 75v420v52q0 21 -5 48q-5 29 -12 41q-8 14 -22 23q-15 11 -38 15q-37 7 -38 7v58h448q19 0 19 -21l-6 -168h14z
" />
    <glyph glyph-name="s" unicode="s" horiz-adv-x="909" 
d="M858 307q0 -71 -24 -131q-23 -57 -75 -103t-125 -69q-75 -24 -175 -24q-85 0 -153 25q-65 24 -113 67h-9l-47 -68h-47l-14 338h51q30 -73 60 -120q36 -57 74 -93q40 -39 89 -61q51 -23 109 -23q125 0 125 92q0 26 -12 47q-13 22 -37 37q-26 16 -68 33q-33 13 -102 37
q-51 16 -108 41q-53 22 -93 60q-42 39 -67 95t-25 146q0 72 29 127q30 58 82 96q52 39 122 60q72 22 148 22q83 0 155 -28q71 -28 99 -62h6l28 63h52l6 -278h-49q-11 23 -47 79q-26 41 -65 78q-35 34 -84 59q-45 23 -101 23q-45 0 -80 -18t-35 -72q0 -28 11 -45
q13 -20 35 -35q23 -16 61 -31q43 -17 92 -34q50 -17 123 -47q59 -24 103 -62q46 -40 70 -89q25 -51 25 -132z" />
    <glyph glyph-name="t" unicode="t" horiz-adv-x="751" 
d="M752 111q-23 -25 -52 -49q-29 -25 -67 -42q-34 -16 -89 -29q-45 -11 -116 -11q-85 0 -134 14q-51 14 -89 39q-48 34 -64 88t-16 119v579h-94v84q78 18 137 55q61 38 103 86q45 51 74 109q27 54 50 123h90v-358h226v-99h-226v-588q0 -56 19 -88q18 -30 78 -30q84 0 127 49
z" />
    <glyph glyph-name="u" unicode="u" horiz-adv-x="1226" 
d="M1085 256q0 -93 17 -129q11 -22 21 -32q11 -11 24 -19q23 -14 59 -19v-57h-444q-21 0 -21 20v125h-10q-18 -34 -32 -54q-20 -28 -54 -54q-45 -33 -93 -45t-95 -12q-69 0 -128 15q-58 15 -93 44q-53 48 -73 109q-22 66 -22 133v380q0 97 -16 130q-9 18 -22 31
q-15 15 -23 20q-21 13 -60 18v58h467q19 0 19 -21q-2 -32 -2 -54v-71v-522q0 -81 18 -111q22 -37 66 -37q33 0 58 23t42 59q16 30 27 80q8 35 8 88v310q0 96 -16 129q-9 18 -22 31q-15 15 -23 20q-21 13 -60 18v58h467q18 0 18 -21q-2 -32 -2 -54v-71v-516z" />
    <glyph glyph-name="v" unicode="v" horiz-adv-x="1085" 
d="M1085 860q-4 0 -9.5 -1t-12.5 -2t-12 -2q-21 -3 -37 -13q-12 -7 -25 -19q-13 -11 -24 -28t-26 -54l-34 -92l-237 -653h-248l-250 676q-28 62 -32 70q-4 9 -10 21t-7 15q-16 27 -27 40t-28 24q-14 10 -34 13q-4 1 -15.5 2.5t-16.5 2.5v58h666v-58q-53 -2 -76 -14
q-21 -10 -30 -24t-9 -38q0 -28 9 -63q8 -29 15 -55l109 -381h12l127 379q15 40 21 66t6 54q0 25 -9 37t-26 23q-23 11 -65 16v58h335v-58z" />
    <glyph glyph-name="w" unicode="w" horiz-adv-x="1644" 
d="M1645 860q-4 0 -9.5 -1t-13 -2t-12.5 -2q-21 -3 -37 -13q-11 -7 -25 -19q-13 -11 -24 -28q-14 -20 -28 -62l-8.5 -25.5t-10.5 -31t-9 -27.5l-217 -653h-227l-201 592l-196 -592h-228l-229 676q-28 62 -32 70q-4 9 -10 21t-7 15q-16 27 -27 40t-28 24q-14 10 -34 13
q-4 1 -15.5 2.5t-16.5 2.5v58h623v-58q-28 -5 -43 -14q-14 -9 -21 -23q-8 -16 -8 -39q0 -28 9 -63q8 -29 15 -55l87 -301h12l106 350q-15 46 -24 65q-12 29 -24 41q-18 18 -23 21q-23 13 -56 18v58h617v-58q-38 -1 -60 -14q-15 -7 -25 -23q-9 -15 -9 -39q0 -28 9 -63
q7 -29 15 -55l74 -304h12l100 302q16 51 20 70q5 27 5 52q0 24 -8 38t-21 22q-17 13 -53 14v58h316v-58z" />
    <glyph glyph-name="x" unicode="x" horiz-adv-x="1005" 
d="M391 324l-63 -84q-34 -44 -45 -68t-11 -47q0 -21 12 -33q14 -14 27 -20q21 -10 56 -15v-57h-363v57q20 4 41 11q15 5 33 14q43 22 82 68q35 42 86 110l100 135l-184 307q-26 46 -57 86q-28 36 -50 52q-25 15 -55 20v58h596v-58q-28 -1 -47 -10q-27 -10 -27 -43
q0 -17 12 -38q3 -6 12 -23t15 -27l72 -119l53 78q32 49 44 71q13 23 13 48q0 21 -10 32q-12 14 -26 19q-10 4 -21 6q-15 3 -27 6v58h347v-58q-30 -6 -44 -9q-21 -5 -36 -15q-47 -28 -85 -76q-35 -44 -83 -115l-82 -117l190 -313q62 -104 109 -135q15 -10 33 -15l32 -8v-57
h-618v57q32 1 53 11q35 15 35 45q0 17 -15 41q-25 40 -34 55z" />
    <glyph glyph-name="y" unicode="y" horiz-adv-x="1042" 
d="M569 -119q-41 -103 -72 -152q-31 -48 -61 -77q-40 -36 -93 -62q-52 -26 -136 -26q-45 0 -82 10q-38 10 -69 32q-30 21 -48 55q-18 35 -18 83q0 24 9 50t27 47q20 23 44 35q26 13 63 13q109 0 146 -116q4 -13 19 -67q8 -28 36 -28q22 0 52 30q31 31 65 102q16 36 17 39
q6 19 7 24q4 14 1 29q-3 16 -7 26l-299 744q-14 35 -31 70l-18 36q-16 27 -27 40t-28 24q-14 10 -34 13q-4 1 -15.5 2.5t-16.5 2.5v58h666v-58q-53 -2 -76 -14q-21 -10 -30 -24t-9 -38q0 -30 10 -63q15 -48 17 -57l88 -306h10l104 306q15 40 21 66t6 54q0 25 -9 37t-26 23
q-23 11 -65 16v58h335v-58q-4 0 -9.5 -1t-12.5 -2t-12 -2q-21 -3 -37 -13q-11 -7 -25 -19q-13 -11 -24 -28t-26 -54l-34 -92z" />
    <glyph glyph-name="z" unicode="z" horiz-adv-x="952" 
d="M893 0h-864v49l471 789v8h-82q-66 0 -114 -27q-50 -28 -77 -55q-25 -25 -59 -84q-29 -50 -59 -127h-58l55 365h818v-56l-465 -788v-11h106q55 0 106 28t103 89q34 39 63 86q24 39 58 105h57z" />
    <glyph glyph-name="quoteleft" unicode="&#x2018;" horiz-adv-x="493" 
d="M82 1004q0 62 28 124q27 60 73 109q44 47 108 86q58 35 129 59l22 -57q-38 -17 -69 -34q-33 -19 -65 -41q-29 -20 -48 -44q-18 -22 -18 -43q0 -26 28 -33q70 -22 109 -55q41 -35 41 -108q0 -60 -43 -106t-115 -46q-86 0 -133 51q-47 52 -47 138z" />
    <glyph glyph-name="quoteright" unicode="&#x2019;" horiz-adv-x="493" 
d="M412 1194q0 -63 -28 -125q-25 -56 -74 -108q-50 -53 -107 -88q-60 -36 -129 -58l-23 57q39 18 69 34q28 15 65 41q29 20 48 44t19 43q0 25 -29 33q-68 21 -108 55q-41 35 -41 109q0 59 43 105t114 46q87 0 134 -51q47 -52 47 -137z" />
    <glyph glyph-name="quotedblleft" unicode="&#x201c;" horiz-adv-x="903" 
d="M442 1325q-38 -17 -69 -34q-33 -19 -65 -41q-29 -20 -48 -44q-18 -22 -18 -43q0 -26 28 -33q70 -22 109 -55q41 -35 41 -108q0 -60 -43 -106t-115 -46q-86 0 -133 51q-47 52 -47 138q0 62 28 124q27 60 73 109q44 47 108 86q58 35 129 59zM672 815q-86 0 -133 51
q-47 52 -47 138q0 64 27 124q26 58 74 109q46 49 107 86q58 35 129 59l23 -57q-43 -19 -70 -34q-28 -16 -64 -41q-29 -20 -48 -44t-19 -43q0 -25 29 -33q68 -21 108 -55q41 -35 41 -108q0 -60 -43 -106t-114 -46z" />
    <glyph glyph-name="quotedblright" unicode="&#x201d;" horiz-adv-x="903" 
d="M821 1194q0 -65 -27 -125q-25 -56 -74 -108t-108 -88q-60 -36 -129 -58l-22 57q33 15 68 34q33 18 66 41q29 20 48 44t19 43q0 25 -29 33q-70 22 -109 55q-41 35 -41 109q0 59 43 105t115 46q87 0 133 -51q47 -52 47 -137zM412 1194q0 -63 -28 -125q-25 -56 -74 -108
q-50 -53 -107 -88q-60 -36 -129 -58l-23 57q39 18 69 34q28 15 65 41q29 20 48 44t19 43q0 25 -29 33q-68 21 -108 55q-41 35 -41 109q0 59 43 105t114 46q87 0 134 -51q47 -52 47 -137z" />
  </font>
</defs>
</svg>
